<?xml version="1.0" encoding="UTF-8"?>
<svg xmlns="http://www.w3.org/2000/svg" xmlns:xlink="http://www.w3.org/1999/xlink" width="224.87999pt" height="149.999998pt" viewBox="0 0 224.87999 149.999998" version="1.2">
<defs>
<clipPath id="clip1">
  <path d="M 7.691406 0.0390625 L 209.886719 0.0390625 L 209.886719 149.957031 L 7.691406 149.957031 Z M 7.691406 0.0390625 "/>
</clipPath>
</defs>
<g id="surface1">
<g clip-path="url(#clip1)" clip-rule="nonzero">
<path style=" stroke:none;fill-rule:nonzero;fill:rgb(0%,0%,0%);fill-opacity:1;" d="M 94.804688 120.398438 C 78.859375 123.4375 64.503906 123.695312 52.179688 120.40625 C 52.046875 123.203125 52.113281 125.894531 52.410156 128.480469 C 33.382812 125.820312 34.96875 83.804688 66.441406 83.894531 L 140.234375 84.105469 L 140.234375 112.5625 L 155.125 112.5625 L 160.238281 84.164062 C 163.925781 93.839844 173.269531 100.710938 184.222656 100.710938 C 198.394531 100.710938 209.886719 89.199219 209.886719 74.996094 C 209.886719 60.796875 198.394531 49.28125 184.222656 49.28125 C 173.328125 49.28125 164.019531 56.085938 160.296875 65.683594 L 155.125 37.433594 L 140.234375 37.433594 L 140.234375 65.621094 L 66.441406 65.394531 C 34.914062 65.300781 33.378906 23.347656 52.5 20.800781 C 52.128906 23.597656 52.03125 26.53125 52.179688 29.589844 C 64.503906 26.300781 78.859375 26.554688 94.804688 29.59375 C 87.234375 17.542969 77.289062 7.433594 64.007812 0.0664062 C 61.890625 1.722656 60.09375 3.539062 58.582031 5.503906 C 16.320312 4.652344 32.539062 70.71875 7.683594 74.644531 C 32.433594 78.558594 16.269531 144.097656 58.066406 143.796875 C 59.675781 146.023438 61.644531 148.078125 64.007812 149.929688 C 77.289062 142.558594 87.234375 132.453125 94.804688 120.398438 Z M 171.058594 74.996094 C 171.058594 67.710938 176.953125 61.804688 184.222656 61.804688 C 191.492188 61.804688 197.386719 67.710938 197.386719 74.996094 C 197.386719 82.28125 191.492188 88.1875 184.222656 88.1875 C 176.953125 88.1875 171.058594 82.28125 171.058594 74.996094 Z M 171.058594 74.996094 "/>
</g>
</g>
</svg>
