<?xml version="1.0" encoding="UTF-8"?>
<svg xmlns="http://www.w3.org/2000/svg" xmlns:xlink="http://www.w3.org/1999/xlink" width="224.87999pt" height="149.999998pt" viewBox="0 0 224.87999 149.999998" version="1.2">
<defs>
<clipPath id="clip1">
  <path d="M 7.496094 0.0390625 L 209.488281 0.0390625 L 209.488281 149.957031 L 7.496094 149.957031 Z M 7.496094 0.0390625 "/>
</clipPath>
</defs>
<g id="surface1">
<g clip-path="url(#clip1)" clip-rule="nonzero">
<path style=" stroke:none;fill-rule:nonzero;fill:rgb(0%,0%,0%);fill-opacity:1;" d="M 122.375 120.398438 C 138.324219 123.4375 152.675781 123.695312 165.003906 120.40625 C 165.136719 123.203125 165.066406 125.894531 164.769531 128.480469 C 183.796875 125.820312 182.214844 83.804688 150.738281 83.894531 L 76.949219 84.105469 L 76.949219 112.5625 L 62.058594 112.5625 L 56.941406 84.164062 C 53.257812 93.839844 43.910156 100.710938 32.957031 100.710938 C 18.785156 100.710938 7.296875 89.199219 7.296875 74.996094 C 7.296875 60.796875 18.785156 49.28125 32.957031 49.28125 C 43.851562 49.28125 53.160156 56.085938 56.886719 65.683594 L 62.058594 37.433594 L 76.949219 37.433594 L 76.949219 65.621094 L 150.738281 65.394531 C 182.265625 65.300781 183.800781 23.347656 164.679688 20.800781 C 165.054688 23.597656 165.148438 26.53125 165.003906 29.589844 C 152.675781 26.300781 138.324219 26.554688 122.375 29.59375 C 129.949219 17.542969 139.890625 7.433594 153.171875 0.0664062 C 155.289062 1.722656 157.089844 3.539062 158.597656 5.503906 C 200.859375 4.652344 184.644531 70.71875 209.496094 74.644531 C 184.746094 78.558594 200.910156 144.097656 159.117188 143.796875 C 157.507812 146.023438 155.539062 148.078125 153.171875 149.929688 C 139.890625 142.558594 129.949219 132.453125 122.375 120.398438 Z M 46.125 74.996094 C 46.125 67.710938 40.230469 61.804688 32.957031 61.804688 C 25.6875 61.804688 19.792969 67.710938 19.792969 74.996094 C 19.792969 82.28125 25.6875 88.1875 32.957031 88.1875 C 40.230469 88.1875 46.125 82.28125 46.125 74.996094 Z M 46.125 74.996094 "/>
</g>
</g>
</svg>
