<?xml version="1.0" encoding="UTF-8"?>
<svg xmlns="http://www.w3.org/2000/svg" xmlns:xlink="http://www.w3.org/1999/xlink" width="224.87999pt" height="149.999998pt" viewBox="0 0 224.87999 149.999998" version="1.2">
<defs>
<clipPath id="clip1">
  <path d="M 7.496094 0.0390625 L 209.6875 0.0390625 L 209.6875 149.957031 L 7.496094 149.957031 Z M 7.496094 0.0390625 "/>
</clipPath>
</defs>
<g id="surface1">
<g clip-path="url(#clip1)" clip-rule="nonzero">
<path style=" stroke:none;fill-rule:nonzero;fill:rgb(13.729858%,12.159729%,12.548828%);fill-opacity:1;" d="M 122.488281 120.398438 C 138.453125 123.4375 152.820312 123.695312 165.160156 120.40625 C 165.292969 123.203125 165.222656 125.894531 164.925781 128.480469 C 183.972656 125.820312 182.386719 83.804688 150.878906 83.894531 L 77.015625 84.105469 L 77.015625 112.5625 L 62.113281 112.5625 L 56.992188 84.164062 C 53.300781 93.839844 43.945312 100.710938 32.984375 100.710938 C 18.796875 100.710938 7.296875 89.199219 7.296875 74.996094 C 7.296875 60.796875 18.796875 49.28125 32.984375 49.28125 C 43.890625 49.28125 53.207031 56.085938 56.933594 65.683594 L 62.113281 37.433594 L 77.015625 37.433594 L 77.015625 65.621094 L 150.878906 65.394531 C 182.4375 65.300781 183.976562 23.347656 164.835938 20.800781 C 165.207031 23.597656 165.304688 26.53125 165.160156 29.589844 C 152.820312 26.300781 138.453125 26.554688 122.488281 29.59375 C 130.070312 17.542969 140.019531 7.433594 153.316406 0.0664062 C 155.433594 1.722656 157.234375 3.539062 158.746094 5.503906 C 201.050781 4.652344 184.816406 70.71875 209.695312 74.644531 C 184.921875 78.558594 201.101562 144.097656 159.265625 143.796875 C 157.652344 146.023438 155.683594 148.078125 153.316406 149.929688 C 140.019531 142.558594 130.070312 132.453125 122.488281 120.398438 Z M 46.164062 74.996094 C 46.164062 67.710938 40.261719 61.804688 32.984375 61.804688 C 25.707031 61.804688 19.804688 67.710938 19.804688 74.996094 C 19.804688 82.28125 25.707031 88.1875 32.984375 88.1875 C 40.261719 88.1875 46.164062 82.28125 46.164062 74.996094 Z M 46.164062 74.996094 "/>
</g>
</g>
</svg>
