<?xml version="1.0" encoding="UTF-8"?>
<svg xmlns="http://www.w3.org/2000/svg" xmlns:xlink="http://www.w3.org/1999/xlink" width="224.87999pt" height="149.999998pt" viewBox="0 0 224.87999 149.999998" version="1.2">
<defs>
<clipPath id="clip1">
  <path d="M 7.496094 0.0390625 L 209.886719 0.0390625 L 209.886719 149.957031 L 7.496094 149.957031 Z M 7.496094 0.0390625 "/>
</clipPath>
</defs>
<g id="surface1">
<g clip-path="url(#clip1)" clip-rule="nonzero">
<path style=" stroke:none;fill-rule:nonzero;fill:rgb(13.729858%,12.159729%,12.548828%);fill-opacity:1;" d="M 94.691406 120.398438 C 78.730469 123.4375 64.363281 123.695312 52.023438 120.40625 C 51.890625 123.203125 51.957031 125.894531 52.253906 128.480469 C 33.210938 125.820312 34.796875 83.804688 66.300781 83.894531 L 140.164062 84.105469 L 140.164062 112.5625 L 155.070312 112.5625 L 160.191406 84.164062 C 163.878906 93.839844 173.234375 100.710938 184.199219 100.710938 C 198.382812 100.710938 209.886719 89.199219 209.886719 74.996094 C 209.886719 60.796875 198.382812 49.28125 184.199219 49.28125 C 173.292969 49.28125 163.972656 56.085938 160.246094 65.683594 L 155.070312 37.433594 L 140.164062 37.433594 L 140.164062 65.621094 L 66.300781 65.394531 C 34.742188 65.300781 33.207031 23.347656 52.34375 20.800781 C 51.972656 23.597656 51.875 26.53125 52.023438 29.589844 C 64.363281 26.300781 78.730469 26.554688 94.691406 29.59375 C 87.113281 17.542969 77.160156 7.433594 63.867188 0.0664062 C 61.746094 1.722656 59.945312 3.539062 58.433594 5.503906 C 16.132812 4.652344 32.363281 70.71875 7.488281 74.644531 C 32.261719 78.558594 16.078125 144.097656 57.914062 143.796875 C 59.527344 146.023438 61.5 148.078125 63.867188 149.929688 C 77.160156 142.558594 87.113281 132.453125 94.691406 120.398438 Z M 171.019531 74.996094 C 171.019531 67.710938 176.917969 61.804688 184.199219 61.804688 C 191.476562 61.804688 197.375 67.710938 197.375 74.996094 C 197.375 82.28125 191.476562 88.1875 184.199219 88.1875 C 176.917969 88.1875 171.019531 82.28125 171.019531 74.996094 Z M 171.019531 74.996094 "/>
</g>
</g>
</svg>
