<svg xmlns="http://www.w3.org/2000/svg" viewBox="0 0 438.52 164.33"><path d="M53.88,54.28l-22,62.86a22.81,22.81,0,0,0-1.56,7.32A6,6,0,0,0,32,129a11.64,11.64,0,0,0,4.15,2.54,44.92,44.92,0,0,0,5.32,1.61,23.83,23.83,0,0,1,5.27,1.95v6.64H0V135.1a19.19,19.19,0,0,1,4.25-2A30,30,0,0,0,8.88,131q5.47-3.23,8.2-10.64L47.44,37ZM52.22,24.11l-14-4.29c.39-2.74.65-5.19.78-7.37a35.42,35.42,0,0,1,.78-5.81Q48.22,2.83,67.94.39A44.88,44.88,0,0,1,73.41,0a21.75,21.75,0,0,1,3.51,5.56l45.2,113.83q2.92,7.52,6.78,11.08a15.84,15.84,0,0,0,9.72,4.05v7.22H76.24v-6.15a20.47,20.47,0,0,1,5-2.2c1.72-.48,3.3-1,4.73-1.41,3.12-.91,4.69-2.54,4.69-4.88q0-1.95-1.86-6.74Zm19.24,76.05h-24l3.22-10.35H67.55Z"/><path d="M353.79,54.28l-22,62.86a22.81,22.81,0,0,0-1.56,7.32,6,6,0,0,0,1.66,4.54,11.73,11.73,0,0,0,4.15,2.54,44.92,44.92,0,0,0,5.32,1.61,23.65,23.65,0,0,1,5.27,1.95v6.64H299.9V135.1a19.19,19.19,0,0,1,4.25-2,30.06,30.06,0,0,0,4.64-2.05q5.46-3.23,8.2-10.64L347.34,37Zm-1.66-30.17-14.06-4.29c.39-2.74.65-5.19.78-7.37a35.42,35.42,0,0,1,.78-5.81q8.49-3.81,28.21-6.25A45,45,0,0,1,373.31,0a21.48,21.48,0,0,1,3.51,5.56L422,119.39q2.93,7.52,6.79,11.08a15.82,15.82,0,0,0,9.71,4.05v7.22H376.14v-6.15a20.63,20.63,0,0,1,5-2.2c1.72-.48,3.3-1,4.73-1.41q4.69-1.36,4.69-4.88,0-1.95-1.86-6.74Zm19.23,76.05h-24l3.23-10.35h16.88Z"/><path d="M174.55,79.84V152q0,3.63,2.64,4.92a12.78,12.78,0,0,0,2.72.91,18.07,18.07,0,0,1,3.08,1v4.34H146.84v-4.34a18,18,0,0,1,3.07-1,11.46,11.46,0,0,0,2.67-.91q2.64-1.29,2.64-4.92V91.09q0-3.69-2.64-5a11.46,11.46,0,0,0-2.67-.91,18,18,0,0,1-3.07-1V79.84Zm47.87,75.76q-4.86,8.73-16.17,8.73-10.14,0-14.35-9.55a62.69,62.69,0,0,1-3.34-9.93q-1.41-5.53-2.47-8.53-2.4-6.85-6.32-9.84v-8.61q7-.65,10-3.75,3.51-3.75,3.51-11.84,0-9.19-3.22-12.89-3-3.51-10.25-3.87V79.84h6.91q13.71,0,21,6.27,6.56,5.63,6.56,14.94,0,14.06-14.59,18.69A41.06,41.06,0,0,1,189,121.56v.52q5.44.89,7.91,2.58A24.46,24.46,0,0,1,205.43,136c.7,1.68,1.38,3.4,2,5.16s1.28,3.48,1.91,5.15a37.92,37.92,0,0,0,2,4.52q2.34,4.39,4.8,4.39a2.7,2.7,0,0,0,2.2-1.44,16.82,16.82,0,0,1,1.61-2.1,2,2,0,0,1,1.47-.68,4.47,4.47,0,0,1,1,.06Z"/><path d="M250.31,120.74q0,32.87,14.36,36v7.5q-16.29-.71-26.31-12.71-9.78-11.84-9.78-30,0-18.81,10.25-31.17a35.36,35.36,0,0,1,11.48-9.09A32,32,0,0,1,264.67,78v7.5Q253.12,87.34,251,107A122.7,122.7,0,0,0,250.31,120.74ZM269.88,78A28.28,28.28,0,0,1,278,80.31q3.31,1.57,4.51,2.22a4.5,4.5,0,0,0,2,.65,1.73,1.73,0,0,0,1.44-.94,20.52,20.52,0,0,0,1.32-2.4h5.56v30.23H288.4a35.22,35.22,0,0,1-3.4-6.82q-1.94-4.78-3.19-7.42a28.46,28.46,0,0,0-2.9-4.8,13.43,13.43,0,0,0-9-5.51Zm0,78.75a16.28,16.28,0,0,0,11.84-4.69q5.8-5.73,6.68-19l6.74,2.29q-1.65,19.56-14,26.19a25.56,25.56,0,0,1-11.25,2.69Z"/></svg>