<svg xmlns="http://www.w3.org/2000/svg" viewBox="0 0 413.73 30.98"><path d="M10,30.54H0V29a6.54,6.54,0,0,1,1.1-.34,4.51,4.51,0,0,0,1-.33A1.79,1.79,0,0,0,3,26.54V4.69A1.81,1.81,0,0,0,2.08,2.9a4,4,0,0,0-1-.32A7.71,7.71,0,0,1,0,2.23V.65H10Zm1.87-16.85q5.9,0,5.89-5.55,0-4-3-5.09A5.28,5.28,0,0,0,13,2.67h-.89l-.23,0v-2h3.62q5,0,7.39,1.86A6.3,6.3,0,0,1,25.26,7.8a5.71,5.71,0,0,1-2.19,4.69,10.19,10.19,0,0,1-5.21,2v.09a11,11,0,0,1,6.39,2A6.73,6.73,0,0,1,27,22.19a7.14,7.14,0,0,1-2.82,5.89q-3.09,2.46-8.84,2.46H11.86V28.23a5.81,5.81,0,0,0,1.1.08q6.27,0,6.27-6.12t-7.37-6.12Z" style="fill:#fff"/><path d="M40,.65V30.54H30V29a6,6,0,0,1,1.1-.34,4.16,4.16,0,0,0,1-.33A1.78,1.78,0,0,0,33,26.54V4.69A1.8,1.8,0,0,0,32.1,2.9a3.73,3.73,0,0,0-1-.32A7,7,0,0,1,30,2.23V.65Zm8.4,3.61a5.83,5.83,0,0,0-1.84-1.15A7,7,0,0,0,44,2.67q-1.47,0-2.1.06V.65h4.75A53.09,53.09,0,0,0,53.49.34V10.52H52a4.28,4.28,0,0,1-.89-1.29q-.36-.77-.72-1.65c-.25-.58-.53-1.16-.83-1.74A6.29,6.29,0,0,0,48.38,4.26Zm-6.52,8.49h7v5.38h-7Zm0,15.69c.7,0,1.59.08,2.67.08a8.07,8.07,0,0,0,2.91-.5A6.06,6.06,0,0,0,50.82,25c.31-.65.57-1.28.8-1.91s.45-1.2.68-1.72a2.85,2.85,0,0,1,1-1.23h1.43V30.54H41.86Z" style="fill:#fff"/><path d="M70.15,28.27a5.27,5.27,0,0,0,3.2-1.36,3.71,3.71,0,0,0,1.17-2.78,4.51,4.51,0,0,0-.68-2.63A6.71,6.71,0,0,0,72,19.79a14.73,14.73,0,0,0-2.54-1.32l-2.93-1.2c-1-.41-2-.85-2.92-1.32a11.71,11.71,0,0,1-2.55-1.67,6.89,6.89,0,0,1-2.48-5.45A8.33,8.33,0,0,1,61.1,2.88,9.75,9.75,0,0,1,68.28,0V2.69a4.67,4.67,0,0,0-2.75,1.1,2.92,2.92,0,0,0-1,2.27,3.57,3.57,0,0,0,.68,2.23A6.58,6.58,0,0,0,67,9.85a15.94,15.94,0,0,0,2.55,1.25l2.91,1.15c1,.4,2,.84,2.91,1.33a11.55,11.55,0,0,1,2.55,1.73A7.33,7.33,0,0,1,80.37,21a9.48,9.48,0,0,1-2.52,6.71A10.67,10.67,0,0,1,70.15,31Zm-8.06,1c-.52,0-1,.42-1.3,1.26H58.66v-11h1.41a4.39,4.39,0,0,1,1.46,2.07c.46,1.06.85,1.92,1.18,2.59A9.72,9.72,0,0,0,63.92,26a6.22,6.22,0,0,0,4.36,2.23V31a11.24,11.24,0,0,1-3.39-.68c-1-.37-1.61-.64-2-.79A2.13,2.13,0,0,0,62.09,29.26ZM70.15,0a11,11,0,0,1,4.12,1.68,1.3,1.3,0,0,0,.73.26.87.87,0,0,0,.66-.39q.32-.39.69-.9h1.9v10.2h-1.6a7.9,7.9,0,0,1-1.27-2.11c-.44-1-.81-1.77-1.1-2.36a10.78,10.78,0,0,0-1-1.63,5.17,5.17,0,0,0-3.13-2.06Z" style="fill:#fff"/><path d="M82.91.34c1.81.21,2.82.31,3,.31H90.4V2.78a4.48,4.48,0,0,0-4.2,3.28c-.17.56-.34,1.11-.51,1.64a5.89,5.89,0,0,1-1.47,2.78H82.91Zm16.37,25c0,1.58.35,2.54,1,2.91a3.63,3.63,0,0,0,1.1.31,4.17,4.17,0,0,1,1.3.44v1.56h-14V29c.45-.15.89-.28,1.31-.38a6.2,6.2,0,0,0,1.13-.41,2,2,0,0,0,1.07-1.92V.65h7ZM105.63.65c.2,0,1.2-.1,3-.31V10.48h-1.31a4.39,4.39,0,0,1-1.27-2.13q-.45-1.45-.72-2.28a6.25,6.25,0,0,0-.76-1.53,4.46,4.46,0,0,0-3.43-1.76V.65Z" style="fill:#fff"/><path d="M113.83,5.72a4.61,4.61,0,0,0-.32-2.2,1.78,1.78,0,0,0-.61-.6,5,5,0,0,0-.62-.21l-.71-.16a2.77,2.77,0,0,1-.74-.32V.65h12.93V2.23a2.85,2.85,0,0,1-.73.32l-.7.16a4.34,4.34,0,0,0-.61.21,1.27,1.27,0,0,0-.48.45,4.34,4.34,0,0,0-.44,2.35V25.49a4.63,4.63,0,0,0,.32,2.22,1.61,1.61,0,0,0,.61.6,3,3,0,0,0,.62.21,4.75,4.75,0,0,1,1.41.46v1.56H110.83V29a6.27,6.27,0,0,1,1.1-.34,4.16,4.16,0,0,0,1-.33,1.78,1.78,0,0,0,.94-1.77Z" style="fill:#fff"/><path d="M136.19,11.69l-4.73,13.55a5.06,5.06,0,0,0-.34,1.58,1.31,1.31,0,0,0,.36,1,2.51,2.51,0,0,0,.9.54,8.49,8.49,0,0,0,1.14.35,5.15,5.15,0,0,1,1.14.42v1.43H124.58V29.11a4.11,4.11,0,0,1,.92-.44,6.63,6.63,0,0,0,1-.44,4.26,4.26,0,0,0,1.76-2.3L134.8,8Zm-.35-6.49-3-.93c.08-.59.14-1.12.17-1.59a7.32,7.32,0,0,1,.16-1.25A23.48,23.48,0,0,1,139.22.08,10.94,10.94,0,0,1,140.4,0a4.84,4.84,0,0,1,.76,1.2l9.74,24.52a6.28,6.28,0,0,0,1.46,2.39,3.39,3.39,0,0,0,2.09.87v1.56H141V29.22a4.7,4.7,0,0,1,1.08-.48l1-.3c.68-.2,1-.55,1-1.05a4.79,4.79,0,0,0-.4-1.46ZM140,21.58H134.8l.7-2.23h3.64Z" style="fill:#fff"/><path d="M165.2.65V26.54a1.77,1.77,0,0,0,1,1.77,4.61,4.61,0,0,0,1,.33,6.37,6.37,0,0,1,1.11.34v1.56h-13V29a6.54,6.54,0,0,1,1.1-.34,4.16,4.16,0,0,0,1-.33,1.79,1.79,0,0,0,.95-1.77V4.69a1.81,1.81,0,0,0-.95-1.79,3.73,3.73,0,0,0-1-.32,7.71,7.71,0,0,1-1.1-.35V.65Zm17.18,27.2a6.11,6.11,0,0,1-5.8,3.13,5.26,5.26,0,0,1-5.16-3.43A22.48,22.48,0,0,1,170.23,24c-.34-1.33-.64-2.35-.89-3.06a7.29,7.29,0,0,0-2.27-3.53V14.3A5.57,5.57,0,0,0,170.65,13a6.08,6.08,0,0,0,1.26-4.25c0-2.2-.39-3.75-1.16-4.63a5,5,0,0,0-3.68-1.39v-2h2.48q4.92,0,7.53,2.25a6.74,6.74,0,0,1,2.36,5.37q0,5-5.24,6.71a14.92,14.92,0,0,1-3.83.65v.19a7.27,7.27,0,0,1,2.84.92,8.79,8.79,0,0,1,3.07,4.06c.26.61.5,1.22.73,1.85l.68,1.85a12.42,12.42,0,0,0,.72,1.62c.56,1.06,1.13,1.58,1.72,1.58a1,1,0,0,0,.79-.51,5.76,5.76,0,0,1,.58-.76.7.7,0,0,1,.52-.24,1.35,1.35,0,0,1,.36,0Z" style="fill:#fff"/><path d="M188,5.72a4.57,4.57,0,0,0-.33-2.2,1.78,1.78,0,0,0-.61-.6,5,5,0,0,0-.62-.21l-.71-.16a2.77,2.77,0,0,1-.74-.32V.65h12.93V2.23a2.71,2.71,0,0,1-.73.32l-.7.16a4.84,4.84,0,0,0-.61.21,1.27,1.27,0,0,0-.48.45,4.43,4.43,0,0,0-.44,2.35V25.49a4.76,4.76,0,0,0,.32,2.22,1.68,1.68,0,0,0,.61.6,2.91,2.91,0,0,0,.63.21,4.77,4.77,0,0,1,1.4.46v1.56H185V29a6.27,6.27,0,0,1,1.1-.34,4.16,4.16,0,0,0,1-.33,1.79,1.79,0,0,0,1-1.77Z" style="fill:#fff"/><path d="M214.27,31a12.61,12.61,0,0,1-9.74-4.84,16.15,16.15,0,0,1-3.45-10.53,16.82,16.82,0,0,1,3.39-10.65A12.38,12.38,0,0,1,214.06,0V2.69q-4.23.68-5,8.37a45,45,0,0,0-.21,4.54,43.75,43.75,0,0,0,.22,4.5,17.07,17.07,0,0,0,.81,3.92q1.32,3.78,4.35,4.25Zm6.81-15.37q0-12.16-5.15-12.9V0a12.38,12.38,0,0,1,9.59,4.94,16.88,16.88,0,0,1,3.39,10.65,16.71,16.71,0,0,1-3.32,10.53A12.22,12.22,0,0,1,216.14,31V28.27q4.06-.56,4.76-8.16C221,18.65,221.08,17.14,221.08,15.59Z" style="fill:#fff"/><path d="M249.16,5.72c-.23-.59-.45-1.11-.65-1.55l-1.12-.26-1.15-.25a16.34,16.34,0,0,1-1.89-.59V.65h10.14l9.1,23.85-1.51,6h-3.62Zm2,10.67v9.5a2.34,2.34,0,0,0,1.16,2.3,4.51,4.51,0,0,0,1.06.42,3.84,3.84,0,0,1,1.11.46v1.47h-9.34V29.07a3.07,3.07,0,0,1,1-.47,6.43,6.43,0,0,0,1-.41,2.34,2.34,0,0,0,1.15-2.3v-17ZM263,17.77,267.3.65h11.1V2.23a7.6,7.6,0,0,1-1.09.35,3.79,3.79,0,0,0-.95.32,1.81,1.81,0,0,0-.92,1.79V26.54a1.78,1.78,0,0,0,.92,1.77,4.24,4.24,0,0,0,.95.33,6.45,6.45,0,0,1,1.09.34v1.56H265.59V29a6.37,6.37,0,0,1,1.11-.34,4.24,4.24,0,0,0,.95-.33,1.79,1.79,0,0,0,1-1.77V5.17h-.11l-4.06,16.31Z" style="fill:#fff"/><path d="M290.54,11.69l-4.73,13.55a4.79,4.79,0,0,0-.34,1.58,1.31,1.31,0,0,0,.36,1,2.39,2.39,0,0,0,.89.54,9.12,9.12,0,0,0,1.15.35,5.26,5.26,0,0,1,1.13.42v1.43H278.93V29.11a4,4,0,0,1,.91-.44,6.63,6.63,0,0,0,1-.44,4.23,4.23,0,0,0,1.77-2.3l6.54-18Zm-.36-6.49-3-.93c.09-.59.14-1.12.17-1.59a7.27,7.27,0,0,1,.17-1.25A23.37,23.37,0,0,1,293.57.08,10.93,10.93,0,0,1,294.74,0a4.31,4.31,0,0,1,.76,1.2l9.74,24.52a6.4,6.4,0,0,0,1.46,2.39,3.42,3.42,0,0,0,2.1.87v1.56H295.35V29.22a4.77,4.77,0,0,1,1.09-.48l1-.3c.67-.2,1-.55,1-1.05a5.11,5.11,0,0,0-.4-1.46Zm4.14,16.38h-5.17l.69-2.23h3.64Z" style="fill:#fff"/><path d="M319.54.65V26.54a1.79,1.79,0,0,0,.95,1.77,4.51,4.51,0,0,0,1,.33,6.27,6.27,0,0,1,1.1.34v1.56h-13V29a6.37,6.37,0,0,1,1.11-.34,4.33,4.33,0,0,0,1-.33,1.78,1.78,0,0,0,.94-1.77V4.69a1.8,1.8,0,0,0-.94-1.79,3.87,3.87,0,0,0-1-.32,7.44,7.44,0,0,1-1.11-.35V.65Zm17.19,27.2A6.12,6.12,0,0,1,330.92,31a5.25,5.25,0,0,1-5.15-3.43,23.52,23.52,0,0,1-1.2-3.56c-.34-1.33-.63-2.35-.88-3.06a7.43,7.43,0,0,0-2.27-3.53V14.3A5.54,5.54,0,0,0,325,13a6.08,6.08,0,0,0,1.26-4.25c0-2.2-.38-3.75-1.15-4.63a5,5,0,0,0-3.68-1.39v-2h2.48q4.92,0,7.53,2.25a6.73,6.73,0,0,1,2.35,5.37q0,5-5.23,6.71a15,15,0,0,1-3.83.65v.19a7.33,7.33,0,0,1,2.84.92,8.86,8.86,0,0,1,3.07,4.06c.25.61.49,1.22.72,1.85s.46,1.25.69,1.85a12.45,12.45,0,0,0,.71,1.62c.56,1.06,1.14,1.58,1.73,1.58a1,1,0,0,0,.79-.51,5.88,5.88,0,0,1,.57-.76.72.72,0,0,1,.53-.24,1.35,1.35,0,0,1,.36,0Z" style="fill:#fff"/><path d="M342.3,5.72a4.75,4.75,0,0,0-.32-2.2,1.79,1.79,0,0,0-.62-.6,4.08,4.08,0,0,0-.62-.21l-.7-.16a2.82,2.82,0,0,1-.75-.32V.65h12.94V2.23a2.77,2.77,0,0,1-.74.32l-.69.16a3.94,3.94,0,0,0-.61.21,1.37,1.37,0,0,0-.49.45,4.43,4.43,0,0,0-.44,2.35V25.49a4.59,4.59,0,0,0,.33,2.22,1.61,1.61,0,0,0,.61.6,3,3,0,0,0,.62.21,5,5,0,0,1,1.41.46v1.56H339.29V29a6.37,6.37,0,0,1,1.11-.34,4.07,4.07,0,0,0,1-.33,1.77,1.77,0,0,0,.95-1.77Z" style="fill:#fff"/><path d="M361.13,10.22V26c0,1.3.77,2.17,2.31,2.59a7.26,7.26,0,0,1,1.16.42v1.51H355V29a6.69,6.69,0,0,1,1.11-.42,4.62,4.62,0,0,0,1.06-.47A2.25,2.25,0,0,0,358.31,26V6ZM359.21,4l-1.79-.34q-1.76-.29-2.25-.42V.65H365L380.73,24v6.54h-3.64Zm18.7,12.45V4.69a1.8,1.8,0,0,0-1-1.79,5.61,5.61,0,0,0-1.05-.37,8.71,8.71,0,0,1-1.2-.38V.65H384v1.5a7.59,7.59,0,0,1-1.17.38,5.76,5.76,0,0,0-1,.37,1.8,1.8,0,0,0-1,1.79v16Z" style="fill:#fff"/><path d="M399.09,31a12.61,12.61,0,0,1-9.74-4.84,16.15,16.15,0,0,1-3.45-10.53,16.82,16.82,0,0,1,3.39-10.65A12.38,12.38,0,0,1,398.88,0V2.69q-4.23.68-5,8.37c-.14,1.48-.21,3-.21,4.54a43.75,43.75,0,0,0,.22,4.5,18.2,18.2,0,0,0,.81,3.92q1.32,3.78,4.35,4.25Zm6.82-15.37q0-12.16-5.16-12.9V0a12.38,12.38,0,0,1,9.59,4.94,16.88,16.88,0,0,1,3.39,10.65,16.71,16.71,0,0,1-3.32,10.53A12.21,12.21,0,0,1,401,31V28.27q4.07-.56,4.76-8.16C405.84,18.65,405.91,17.14,405.91,15.59Z" style="fill:#fff"/></svg>