<svg xmlns="http://www.w3.org/2000/svg" viewBox="0 0 106.29 477.1"><path d="M39,18.83H36L44,0h3Z"/><path d="M51,9.25c0,4.75,1,7.36,3.11,7.81v1.63a7.51,7.51,0,0,1-5.7-2.76,9.87,9.87,0,0,1-2.12-6.5A10.22,10.22,0,0,1,48.5,2.68,7.66,7.66,0,0,1,51,.71,7,7,0,0,1,54.1,0V1.62c-1.67.27-2.65,1.82-3,4.65A27.08,27.08,0,0,0,51,9.25ZM55.23,0A6.12,6.12,0,0,1,57,.5c.48.22.8.38,1,.48a1,1,0,0,0,.43.14.36.36,0,0,0,.31-.21A3.88,3.88,0,0,0,59,.39h1.21V6.94h-1a7.57,7.57,0,0,1-.73-1.47c-.28-.69-.51-1.23-.7-1.61a6.21,6.21,0,0,0-.62-1,3,3,0,0,0-2-1.2Zm0,17.06a3.48,3.48,0,0,0,2.56-1,6.2,6.2,0,0,0,1.45-4.12l1.46.5q-.36,4.25-3,5.67a5.59,5.59,0,0,1-2.44.59Z"/><path d="M63.44,18.83h-3L68.36,0h3Z"/><path d="M7,38.26,4.15,46.43a3.16,3.16,0,0,0-.2,1,.8.8,0,0,0,.21.59,1.63,1.63,0,0,0,.54.33,6.41,6.41,0,0,0,.7.21,3.06,3.06,0,0,1,.68.25v.86H0v-.86a2.56,2.56,0,0,1,.55-.27,3.49,3.49,0,0,0,.61-.26,2.57,2.57,0,0,0,1.06-1.39L6.17,36Zm-.22-3.92L5,33.78c0-.36.09-.68.11-1a4.12,4.12,0,0,1,.1-.76,13.91,13.91,0,0,1,3.67-.81,6.54,6.54,0,0,1,.71-.05,2.8,2.8,0,0,1,.45.72l5.88,14.81a4,4,0,0,0,.88,1.44,2.05,2.05,0,0,0,1.27.52v.94H9.92v-.8a2.66,2.66,0,0,1,.65-.28l.61-.19c.41-.11.61-.33.61-.63a3,3,0,0,0-.24-.88Zm2.5,9.89H6.17l.42-1.35h2.2Z"/><path d="M24.63,49.63h-6v-.94a4.68,4.68,0,0,1,.67-.21,2.39,2.39,0,0,0,.57-.19,1.08,1.08,0,0,0,.57-1.07V34A1.09,1.09,0,0,0,19.84,33a2.39,2.39,0,0,0-.57-.19,4.68,4.68,0,0,1-.67-.21v-1h7.93v1a5.72,5.72,0,0,1-.72.21,2.35,2.35,0,0,0-.6.19A1.08,1.08,0,0,0,24.63,34Zm1.14-1.23.17,0h.17A3.86,3.86,0,0,0,30,46.26c.17-.39.33-.78.46-1.15s.26-.73.39-1a1.85,1.85,0,0,1,.53-.75h.86v6.32H25.77Z"/><path d="M39,38.26l-2.86,8.17a3.16,3.16,0,0,0-.2,1,.77.77,0,0,0,.22.59,1.45,1.45,0,0,0,.54.33,5.63,5.63,0,0,0,.69.21,3.06,3.06,0,0,1,.68.25v.86H31.94v-.86a2.56,2.56,0,0,1,.55-.27,3.49,3.49,0,0,0,.61-.26,2.52,2.52,0,0,0,1.06-1.39l4-10.84Zm-.22-3.92-1.82-.56c.05-.36.08-.68.1-1a4.12,4.12,0,0,1,.1-.76,13.91,13.91,0,0,1,3.67-.81,6.72,6.72,0,0,1,.71-.05,3.18,3.18,0,0,1,.46.72l5.87,14.81a3.87,3.87,0,0,0,.89,1.44,2,2,0,0,0,1.26.52v.94H41.86v-.8a2.84,2.84,0,0,1,.65-.28l.62-.19c.4-.11.61-.33.61-.63a2.79,2.79,0,0,0-.25-.88Zm2.5,9.89H38.11l.42-1.35h2.2Z"/><path d="M53.43,34.65c-.14-.35-.27-.67-.39-.94l-.68-.15-.69-.15a9.92,9.92,0,0,1-1.14-.36V31.59h6.12L62.14,46l-.91,3.64H59.05Zm1.22,6.44v5.74a1.41,1.41,0,0,0,.7,1.38,2.77,2.77,0,0,0,.64.26,2.07,2.07,0,0,1,.67.28v.88H51v-.88a1.86,1.86,0,0,1,.6-.29,3,3,0,0,0,.63-.25,1.39,1.39,0,0,0,.7-1.38V36.56Zm7.14.84,2.59-10.34h6.7v1a5,5,0,0,1-.66.21,2.39,2.39,0,0,0-.57.19A1.1,1.1,0,0,0,69.29,34V47.22a1.09,1.09,0,0,0,.56,1.07,2.39,2.39,0,0,0,.57.19,5,5,0,0,1,.66.21v.94H63.35v-.94a4.68,4.68,0,0,1,.67-.21,2.39,2.39,0,0,0,.57-.19,1.08,1.08,0,0,0,.58-1.07V34.32H65.1l-2.45,9.84Z"/><path d="M78.41,38.26l-2.86,8.17a2.88,2.88,0,0,0-.2,1,.8.8,0,0,0,.21.59,1.63,1.63,0,0,0,.54.33,7,7,0,0,0,.69.21,3,3,0,0,1,.69.25v.86H71.4v-.86A2.56,2.56,0,0,1,72,48.5a3.11,3.11,0,0,0,.6-.26,2.54,2.54,0,0,0,1.07-1.39L77.57,36Zm-.22-3.92-1.83-.56c0-.36.09-.68.1-1a4.08,4.08,0,0,1,.11-.76,13.81,13.81,0,0,1,3.66-.81A6.71,6.71,0,0,1,81,31.2a2.8,2.8,0,0,1,.45.72l5.88,14.81a3.87,3.87,0,0,0,.88,1.44,2.05,2.05,0,0,0,1.27.52v.94H81.31v-.8a2.91,2.91,0,0,1,.66-.28l.61-.19c.41-.11.61-.33.61-.63a3,3,0,0,0-.24-.88Zm2.5,9.89H77.57L78,42.88h2.19Z"/><path d="M95.91,31.59V47.22a1.08,1.08,0,0,0,.57,1.07,2.72,2.72,0,0,0,.59.19,4.68,4.68,0,0,1,.67.21v.94H89.91v-.94a5,5,0,0,1,.66-.21,2.32,2.32,0,0,0,.58-.19,1.08,1.08,0,0,0,.57-1.07V34A1.09,1.09,0,0,0,91.15,33a2.32,2.32,0,0,0-.58-.19,5,5,0,0,1-.66-.21v-1ZM106.29,48a3.7,3.7,0,0,1-3.51,1.89,3.18,3.18,0,0,1-3.11-2.07A13.2,13.2,0,0,1,99,45.68c-.21-.8-.38-1.42-.54-1.85A4.36,4.36,0,0,0,97,41.7V39.83A3.33,3.33,0,0,0,99.2,39a3.64,3.64,0,0,0,.76-2.56,4.29,4.29,0,0,0-.7-2.8A3,3,0,0,0,97,32.83V31.59h1.5A6.81,6.81,0,0,1,103.09,33a4.07,4.07,0,0,1,1.42,3.24,4,4,0,0,1-3.16,4.05,8.84,8.84,0,0,1-2.31.39v.12a4.2,4.2,0,0,1,1.71.56,5.23,5.23,0,0,1,1.85,2.45c.16.36.3.73.44,1.11l.41,1.12a8.2,8.2,0,0,0,.44,1c.33.63.68,1,1,1a.58.58,0,0,0,.47-.31,4.06,4.06,0,0,1,.35-.46.41.41,0,0,1,.32-.14h.22Z"/><path d="M39,102.23H36L44,83.4h3Z"/><path d="M51,92.65c0,4.75,1,7.36,3.11,7.81v1.63a7.51,7.51,0,0,1-5.7-2.76,9.87,9.87,0,0,1-2.12-6.5,10.22,10.22,0,0,1,2.22-6.75,7.53,7.53,0,0,1,2.49-2,7,7,0,0,1,3.11-.71V85c-1.67.27-2.65,1.82-3,4.65A27.08,27.08,0,0,0,51,92.65Zm4.24-9.25a6.12,6.12,0,0,1,1.76.5c.48.22.8.38,1,.48a1,1,0,0,0,.43.14.36.36,0,0,0,.31-.21,3.88,3.88,0,0,0,.29-.52h1.21v6.55h-1a7.57,7.57,0,0,1-.73-1.47c-.28-.69-.51-1.23-.7-1.61a6.21,6.21,0,0,0-.62-1,3,3,0,0,0-2-1.2Zm0,17.06a3.48,3.48,0,0,0,2.56-1,6.2,6.2,0,0,0,1.45-4.12l1.46.5q-.36,4.24-3,5.67a5.59,5.59,0,0,1-2.44.59Z"/><path d="M63.44,102.23h-3L68.36,83.4h3Z"/><path d="M35.71,121.66l-2.86,8.17a3.16,3.16,0,0,0-.2,1,.77.77,0,0,0,.22.59,1.45,1.45,0,0,0,.54.33,5.63,5.63,0,0,0,.69.21,3.06,3.06,0,0,1,.68.25V133H28.7v-.86a2.81,2.81,0,0,1,.55-.27,3.19,3.19,0,0,0,.61-.26,2.52,2.52,0,0,0,1.06-1.39l3.95-10.84Zm-.21-3.92-1.83-.56c0-.36.08-.68.1-1a5.2,5.2,0,0,1,.1-.76,14,14,0,0,1,3.67-.81,6.72,6.72,0,0,1,.71-.05,3.18,3.18,0,0,1,.46.72l5.87,14.81a3.87,3.87,0,0,0,.89,1.44,2,2,0,0,0,1.26.52V133H38.62v-.8a2.84,2.84,0,0,1,.65-.28l.62-.19c.4-.11.61-.33.61-.63a3,3,0,0,0-.24-.88Zm2.5,9.89H34.87l.42-1.35h2.2Z"/><path d="M53.33,133h-6v-.94a4.68,4.68,0,0,1,.67-.21,2.47,2.47,0,0,0,.58-.19,1.08,1.08,0,0,0,.57-1.07V117.43a1.09,1.09,0,0,0-.57-1.08,2.47,2.47,0,0,0-.58-.19,4.68,4.68,0,0,1-.67-.21v-1h7.94v1a6.38,6.38,0,0,1-.73.21,2.15,2.15,0,0,0-.59.19,1.09,1.09,0,0,0-.59,1.08Zm1.14-1.23h.35a3.85,3.85,0,0,0,3.87-2.15c.18-.39.33-.78.46-1.15s.27-.73.4-1a1.83,1.83,0,0,1,.52-.75h.87V133H54.47Z"/><path d="M67.65,121.66l-2.85,8.17a2.93,2.93,0,0,0-.21,1,.81.81,0,0,0,.22.59,1.45,1.45,0,0,0,.54.33,5.63,5.63,0,0,0,.69.21,3.15,3.15,0,0,1,.69.25V133H60.64v-.86a2.63,2.63,0,0,1,.56-.27,3.11,3.11,0,0,0,.6-.26,2.58,2.58,0,0,0,1.07-1.39l3.94-10.84Zm-.21-3.92-1.83-.56c0-.36.08-.68.1-1a5.2,5.2,0,0,1,.1-.76,14,14,0,0,1,3.67-.81,6.72,6.72,0,0,1,.71-.05,2.86,2.86,0,0,1,.46.72l5.88,14.81a3.74,3.74,0,0,0,.88,1.44,2,2,0,0,0,1.26.52V133H70.56v-.8a2.84,2.84,0,0,1,.65-.28l.62-.19c.41-.11.61-.33.61-.63a3,3,0,0,0-.24-.88Zm2.5,9.89H66.81l.42-1.35h2.2Z"/><path d="M28.94,149.25c-.15-.35-.28-.67-.4-.94l-.67-.15-.7-.15a9.92,9.92,0,0,1-1.14-.36v-1.46h6.12l5.5,14.4-.92,3.64H34.55Zm1.22,6.44v5.74a1.4,1.4,0,0,0,.7,1.38,2.45,2.45,0,0,0,.64.26,2.36,2.36,0,0,1,.66.27v.89H26.53v-.89a2,2,0,0,1,.6-.28,3.45,3.45,0,0,0,.63-.25,1.42,1.42,0,0,0,.7-1.38V151.16Zm7.13.84,2.59-10.34h6.7v1a3.32,3.32,0,0,1-.66.2,2.93,2.93,0,0,0-.57.2,1.1,1.1,0,0,0-.56,1.08v13.19a1.09,1.09,0,0,0,.56,1.07,2.39,2.39,0,0,0,.57.19,4.2,4.2,0,0,1,.66.21v.94H38.85v-.94a4.68,4.68,0,0,1,.67-.21,2.32,2.32,0,0,0,.58-.19,1.08,1.08,0,0,0,.57-1.07v-12.9h-.06l-2.45,9.84Z"/><path d="M53.91,152.86,51.05,161a3.16,3.16,0,0,0-.2,1,.77.77,0,0,0,.22.59,1.45,1.45,0,0,0,.54.33,5.63,5.63,0,0,0,.69.21,3.06,3.06,0,0,1,.68.25v.86H46.9v-.86a2.81,2.81,0,0,1,.55-.27,3.49,3.49,0,0,0,.61-.26,2.52,2.52,0,0,0,1.06-1.39l4-10.84Zm-.22-3.92-1.82-.56c.05-.36.08-.68.1-1a4,4,0,0,1,.1-.76,14,14,0,0,1,3.67-.81,6.72,6.72,0,0,1,.71,0,3,3,0,0,1,.46.72l5.87,14.81a3.87,3.87,0,0,0,.89,1.44,2,2,0,0,0,1.26.52v.94H56.82v-.8a2.84,2.84,0,0,1,.65-.28l.62-.19c.4-.11.61-.33.61-.63a3,3,0,0,0-.24-.88Zm2.51,9.89H53.07l.42-1.35h2.2Z"/><path d="M71.42,146.19v15.63a1.08,1.08,0,0,0,.57,1.07,2.55,2.55,0,0,0,.59.19,5.11,5.11,0,0,1,.67.21v.94H65.41v-.94a4.68,4.68,0,0,1,.67-.21,2.47,2.47,0,0,0,.58-.19,1.08,1.08,0,0,0,.57-1.07V148.63a1.09,1.09,0,0,0-.57-1.08,3,3,0,0,0-.58-.2,3.62,3.62,0,0,1-.67-.2v-1Zm10.37,16.42a3.69,3.69,0,0,1-3.5,1.89,3.18,3.18,0,0,1-3.12-2.07,14.23,14.23,0,0,1-.72-2.15c-.2-.8-.38-1.42-.53-1.85a4.5,4.5,0,0,0-1.37-2.13v-1.87a3.37,3.37,0,0,0,2.16-.81,3.69,3.69,0,0,0,.76-2.56,4.35,4.35,0,0,0-.7-2.8,3,3,0,0,0-2.22-.84v-1.23H74a6.79,6.79,0,0,1,4.55,1.36A4,4,0,0,1,80,150.79a4,4,0,0,1-3.16,4.05,8.84,8.84,0,0,1-2.31.39v.12a4.09,4.09,0,0,1,1.71.56,5.24,5.24,0,0,1,1.86,2.45c.15.36.3.73.43,1.11s.28.76.42,1.12a8.22,8.22,0,0,0,.43,1c.34.63.69,1,1,1a.58.58,0,0,0,.48-.31,3.14,3.14,0,0,1,.35-.46.41.41,0,0,1,.31-.14h.22Z"/><path d="M23,205.06l-2.86,8.17a3.16,3.16,0,0,0-.2,1,.8.8,0,0,0,.21.59,1.63,1.63,0,0,0,.54.33,6.41,6.41,0,0,0,.7.21,3.06,3.06,0,0,1,.68.25v.86H16v-.86a2.56,2.56,0,0,1,.55-.27,3.49,3.49,0,0,0,.61-.26,2.52,2.52,0,0,0,1.06-1.39l3.95-10.84Zm-.22-3.92-1.83-.56c.06-.36.09-.68.11-1a4,4,0,0,1,.1-.76,13.91,13.91,0,0,1,3.67-.81,6.54,6.54,0,0,1,.71-.05,2.8,2.8,0,0,1,.45.72l5.88,14.81a3.87,3.87,0,0,0,.89,1.44,2,2,0,0,0,1.26.52v.94H25.89v-.8a2.84,2.84,0,0,1,.65-.28l.62-.19c.4-.11.6-.33.6-.63a3,3,0,0,0-.24-.88Zm2.5,9.89H22.14l.42-1.35h2.2Z"/><path d="M37.46,201.45c-.14-.35-.27-.67-.39-.94l-.68-.15-.69-.15a9.92,9.92,0,0,1-1.14-.36v-1.46h6.12l5.49,14.4-.91,3.64H43.08Zm1.22,6.44v5.74a1.42,1.42,0,0,0,.7,1.38,2.77,2.77,0,0,0,.64.26,2.42,2.42,0,0,1,.67.27v.89H35.05v-.89a2.06,2.06,0,0,1,.6-.28,3,3,0,0,0,.63-.25,1.4,1.4,0,0,0,.7-1.38V203.36Zm7.14.84,2.59-10.34h6.7v1a5,5,0,0,1-.66.21,2.39,2.39,0,0,0-.57.19,1.1,1.1,0,0,0-.56,1.08V214a1.09,1.09,0,0,0,.56,1.07,2.39,2.39,0,0,0,.57.19,5,5,0,0,1,.66.21v.94H47.38v-.94a5,5,0,0,1,.66-.21,2.32,2.32,0,0,0,.58-.19,1.08,1.08,0,0,0,.57-1.07v-12.9h-.06L46.68,211Z"/><path d="M62.44,205.06l-2.86,8.17a2.88,2.88,0,0,0-.2,1,.8.8,0,0,0,.21.59,1.63,1.63,0,0,0,.54.33,7,7,0,0,0,.69.21,3,3,0,0,1,.69.25v.86H55.43v-.86a2.56,2.56,0,0,1,.55-.27,3.11,3.11,0,0,0,.6-.26,2.54,2.54,0,0,0,1.07-1.39l4-10.84Zm-.22-3.92-1.83-.56c0-.36.09-.68.1-1a5,5,0,0,1,.1-.76,14,14,0,0,1,3.67-.81A6.72,6.72,0,0,1,65,198a2.6,2.6,0,0,1,.46.72l5.88,14.81a3.87,3.87,0,0,0,.88,1.44,2.05,2.05,0,0,0,1.27.52v.94H65.34v-.8a2.73,2.73,0,0,1,.66-.28l.61-.19c.41-.11.61-.33.61-.63a3,3,0,0,0-.24-.88Zm2.5,9.89H61.6l.42-1.35h2.19Z"/><path d="M79.94,198.39V214a1.08,1.08,0,0,0,.57,1.07,2.72,2.72,0,0,0,.59.19,4.68,4.68,0,0,1,.67.21v.94H73.94v-.94a5,5,0,0,1,.66-.21,2.32,2.32,0,0,0,.58-.19,1.08,1.08,0,0,0,.57-1.07V200.83a1.09,1.09,0,0,0-.57-1.08,2.32,2.32,0,0,0-.58-.19,5,5,0,0,1-.66-.21v-1Zm10.37,16.42a3.69,3.69,0,0,1-3.5,1.89,3.18,3.18,0,0,1-3.11-2.07,13.2,13.2,0,0,1-.72-2.15c-.21-.8-.38-1.42-.54-1.85a4.36,4.36,0,0,0-1.37-2.13v-1.87a3.33,3.33,0,0,0,2.16-.81,3.64,3.64,0,0,0,.76-2.56,4.29,4.29,0,0,0-.7-2.8,3,3,0,0,0-2.22-.84v-1.23h1.5a6.81,6.81,0,0,1,4.55,1.36A4.07,4.07,0,0,1,88.54,203a4,4,0,0,1-3.16,4,8.84,8.84,0,0,1-2.31.39v.12a4.2,4.2,0,0,1,1.71.56,5.23,5.23,0,0,1,1.85,2.45c.16.36.3.73.44,1.11l.41,1.12a8.2,8.2,0,0,0,.44,1c.33.63.68.95,1,.95a.58.58,0,0,0,.47-.31,4.06,4.06,0,0,1,.35-.46.41.41,0,0,1,.32-.14h.21Z"/><path d="M26.5,238.46c0,4.74,1,7.35,3.11,7.8v1.63a7.47,7.47,0,0,1-5.7-2.76,9.81,9.81,0,0,1-2.12-6.5A10.22,10.22,0,0,1,24,231.88a7.66,7.66,0,0,1,2.49-2,6.93,6.93,0,0,1,3.11-.71v1.63q-2.5.39-3,4.64A27.14,27.14,0,0,0,26.5,238.46Zm4.24-9.26a6,6,0,0,1,1.75.5c.48.22.81.38,1,.48a1,1,0,0,0,.44.14.37.37,0,0,0,.31-.21,4.43,4.43,0,0,0,.29-.52h1.2v6.55h-1a7.48,7.48,0,0,1-.74-1.47c-.28-.69-.51-1.23-.69-1.61a5.64,5.64,0,0,0-.63-1,2.89,2.89,0,0,0-1.95-1.19Zm0,17.06a3.5,3.5,0,0,0,2.56-1,6.25,6.25,0,0,0,1.45-4.12l1.46.5q-.36,4.25-3,5.67a5.58,5.58,0,0,1-2.43.59Z"/><path d="M43.85,236.26,41,244.43a3.16,3.16,0,0,0-.2,1A.77.77,0,0,0,41,246a1.45,1.45,0,0,0,.54.33,5.63,5.63,0,0,0,.69.21,3.06,3.06,0,0,1,.68.25v.86H36.84v-.86a2.81,2.81,0,0,1,.55-.27,3.49,3.49,0,0,0,.61-.26,2.52,2.52,0,0,0,1.06-1.39L43,234Zm-.22-3.92-1.82-.56c0-.36.08-.68.1-1a4.12,4.12,0,0,1,.1-.76,14,14,0,0,1,3.67-.81,6.72,6.72,0,0,1,.71-.05,3.18,3.18,0,0,1,.46.72l5.87,14.81a3.87,3.87,0,0,0,.89,1.44,2,2,0,0,0,1.26.52v.94H46.76v-.8a2.84,2.84,0,0,1,.65-.28l.62-.19c.4-.11.61-.33.61-.63a2.79,2.79,0,0,0-.25-.88Zm2.5,9.89H43l.42-1.35h2.2Z"/><path d="M61.47,247.63h-6v-.94a4.68,4.68,0,0,1,.67-.21,2.24,2.24,0,0,0,.57-.19,1.07,1.07,0,0,0,.58-1.07V232a1.08,1.08,0,0,0-.58-1.08,2.24,2.24,0,0,0-.57-.19,4.68,4.68,0,0,1-.67-.21v-1h7.94v1a6.38,6.38,0,0,1-.73.21,2.35,2.35,0,0,0-.6.19,1.1,1.1,0,0,0-.58,1.08Zm1.14-1.23.17,0H63a3.85,3.85,0,0,0,3.87-2.16c.18-.39.33-.78.46-1.15s.26-.73.4-1.05a1.83,1.83,0,0,1,.52-.75h.87v6.32H62.61Z"/><path d="M75.79,236.26l-2.86,8.17a3.16,3.16,0,0,0-.2,1A.77.77,0,0,0,73,246a1.45,1.45,0,0,0,.54.33,5.63,5.63,0,0,0,.69.21,3.06,3.06,0,0,1,.68.25v.86H68.78v-.86a2.81,2.81,0,0,1,.55-.27,3.19,3.19,0,0,0,.61-.26A2.52,2.52,0,0,0,71,244.85L75,234Zm-.21-3.92-1.83-.56c0-.36.08-.68.1-1a5.2,5.2,0,0,1,.1-.76,14,14,0,0,1,3.67-.81,6.72,6.72,0,0,1,.71-.05,3.18,3.18,0,0,1,.46.72l5.88,14.81a3.74,3.74,0,0,0,.88,1.44,2,2,0,0,0,1.26.52v.94H78.7v-.8a2.84,2.84,0,0,1,.65-.28l.62-.19c.4-.11.61-.33.61-.63a3,3,0,0,0-.24-.88Zm2.5,9.89H75l.42-1.35h2.2Z"/><path d="M26.5,290.65c0,4.75,1,7.35,3.11,7.81v1.63a7.47,7.47,0,0,1-5.7-2.76,9.81,9.81,0,0,1-2.12-6.5A10.22,10.22,0,0,1,24,284.08a7.53,7.53,0,0,1,2.49-2,6.93,6.93,0,0,1,3.11-.71V283q-2.5.41-3,4.65A27.08,27.08,0,0,0,26.5,290.65Zm4.24-9.25a6.29,6.29,0,0,1,1.75.49c.48.23.81.39,1,.49a1,1,0,0,0,.44.14.37.37,0,0,0,.31-.21,5.45,5.45,0,0,0,.29-.52h1.2v6.55h-1a7.78,7.78,0,0,1-.74-1.47c-.28-.7-.51-1.23-.69-1.61a5.64,5.64,0,0,0-.63-1,3,3,0,0,0-1.95-1.2Zm0,17.06a3.5,3.5,0,0,0,2.56-1,6.25,6.25,0,0,0,1.45-4.12l1.46.5q-.36,4.25-3,5.67a5.58,5.58,0,0,1-2.43.59Z"/><path d="M43.85,288.46,41,296.63a3.1,3.1,0,0,0-.2,1,.77.77,0,0,0,.22.59,1.45,1.45,0,0,0,.54.33,5.63,5.63,0,0,0,.69.21,3.06,3.06,0,0,1,.68.25v.86H36.84V299a2.81,2.81,0,0,1,.55-.27,3.49,3.49,0,0,0,.61-.26,2.52,2.52,0,0,0,1.06-1.39L43,286.21Zm-.22-3.92L41.81,284c0-.36.08-.68.1-1a4,4,0,0,1,.1-.76,14,14,0,0,1,3.67-.81,6.72,6.72,0,0,1,.71-.05,3,3,0,0,1,.46.72l5.87,14.81a3.87,3.87,0,0,0,.89,1.44,2,2,0,0,0,1.26.52v.94H46.76V299a2.84,2.84,0,0,1,.65-.28l.62-.19c.4-.11.61-.33.61-.63a2.79,2.79,0,0,0-.25-.88Zm2.5,9.88H43l.42-1.34h2.2Z"/><path d="M61.47,299.83h-6v-.94a4.68,4.68,0,0,1,.67-.21,2.24,2.24,0,0,0,.57-.19,1.07,1.07,0,0,0,.58-1.07V284.23a1.08,1.08,0,0,0-.58-1.08,2.24,2.24,0,0,0-.57-.19,4.68,4.68,0,0,1-.67-.21v-1h7.94v1a6.38,6.38,0,0,1-.73.21,2.35,2.35,0,0,0-.6.19,1.1,1.1,0,0,0-.58,1.08Zm1.14-1.23H63a3.85,3.85,0,0,0,3.87-2.15c.18-.39.33-.78.46-1.15s.26-.73.4-1.05a1.83,1.83,0,0,1,.52-.75h.87v6.32H62.61Z"/><path d="M75.79,288.46l-2.86,8.17a3.1,3.1,0,0,0-.2,1,.77.77,0,0,0,.22.59,1.45,1.45,0,0,0,.54.33,5.63,5.63,0,0,0,.69.21,3.06,3.06,0,0,1,.68.25v.86H68.78V299a2.81,2.81,0,0,1,.55-.27,3.19,3.19,0,0,0,.61-.26A2.52,2.52,0,0,0,71,297.05l4-10.84Zm-.21-3.92L73.75,284c0-.36.08-.68.1-1a5,5,0,0,1,.1-.76,14,14,0,0,1,3.67-.81,6.72,6.72,0,0,1,.71-.05,3,3,0,0,1,.46.72l5.88,14.81a3.74,3.74,0,0,0,.88,1.44,2,2,0,0,0,1.26.52v.94H78.7V299a2.84,2.84,0,0,1,.65-.28l.62-.19c.4-.11.61-.33.61-.63a3,3,0,0,0-.24-.88Zm2.5,9.88H75l.42-1.34h2.2Z"/><path d="M23,319.66l-2.86,8.17a3.1,3.1,0,0,0-.2,1,.8.8,0,0,0,.21.59,1.63,1.63,0,0,0,.54.33,6.41,6.41,0,0,0,.7.21,3.06,3.06,0,0,1,.68.25V331H16v-.86a2.56,2.56,0,0,1,.55-.27,3.49,3.49,0,0,0,.61-.26,2.52,2.52,0,0,0,1.06-1.39l3.95-10.84Zm-.22-3.92-1.83-.56c.06-.36.09-.68.11-1a4,4,0,0,1,.1-.76,13.91,13.91,0,0,1,3.67-.81,6.54,6.54,0,0,1,.71,0,2.64,2.64,0,0,1,.45.72l5.88,14.81a3.87,3.87,0,0,0,.89,1.44,2,2,0,0,0,1.26.52V331H25.89v-.8a2.84,2.84,0,0,1,.65-.28l.62-.19c.4-.11.6-.33.6-.63a3,3,0,0,0-.24-.88Zm2.5,9.88H22.14l.42-1.34h2.2Z"/><path d="M37.46,316.05c-.14-.35-.27-.67-.39-.94l-.68-.15-.69-.15a9.92,9.92,0,0,1-1.14-.36V313h6.12l5.49,14.4L45.26,331H43.08Zm1.22,6.44v5.74a1.42,1.42,0,0,0,.7,1.38,2.77,2.77,0,0,0,.64.26,2.42,2.42,0,0,1,.67.27V331H35.05v-.89a2.06,2.06,0,0,1,.6-.28,3.6,3.6,0,0,0,.63-.25,1.4,1.4,0,0,0,.7-1.38V318Zm7.14.84L48.41,313h6.7v1a3.77,3.77,0,0,1-.66.2,2.93,2.93,0,0,0-.57.2,1.1,1.1,0,0,0-.56,1.08v13.19a1.09,1.09,0,0,0,.56,1.07,2.39,2.39,0,0,0,.57.19,5,5,0,0,1,.66.21V331H47.38v-.94a5,5,0,0,1,.66-.21,2.32,2.32,0,0,0,.58-.19,1.08,1.08,0,0,0,.57-1.07v-12.9h-.06l-2.45,9.84Z"/><path d="M62.44,319.66l-2.86,8.17a2.83,2.83,0,0,0-.2,1,.8.8,0,0,0,.21.59,1.63,1.63,0,0,0,.54.33,7,7,0,0,0,.69.21,3,3,0,0,1,.69.25V331H55.43v-.86a2.56,2.56,0,0,1,.55-.27,3.11,3.11,0,0,0,.6-.26,2.54,2.54,0,0,0,1.07-1.39l4-10.84Zm-.22-3.92-1.83-.56c0-.36.09-.68.1-1a5,5,0,0,1,.1-.76,14,14,0,0,1,3.67-.81,6.72,6.72,0,0,1,.71,0,2.47,2.47,0,0,1,.46.72l5.88,14.81a3.87,3.87,0,0,0,.88,1.44,2.05,2.05,0,0,0,1.27.52V331H65.34v-.8A2.73,2.73,0,0,1,66,330l.61-.19c.41-.11.61-.33.61-.63a3,3,0,0,0-.24-.88Zm2.5,9.88H61.6l.42-1.34h2.19Z"/><path d="M79.94,313v15.63a1.08,1.08,0,0,0,.57,1.07,2.72,2.72,0,0,0,.59.19,4.68,4.68,0,0,1,.67.21V331H73.94v-.94a5,5,0,0,1,.66-.21,2.32,2.32,0,0,0,.58-.19,1.08,1.08,0,0,0,.57-1.07V315.43a1.09,1.09,0,0,0-.57-1.08,2.81,2.81,0,0,0-.58-.2,3.77,3.77,0,0,1-.66-.2v-1Zm10.37,16.42a3.69,3.69,0,0,1-3.5,1.89,3.18,3.18,0,0,1-3.11-2.07,13.2,13.2,0,0,1-.72-2.15c-.21-.8-.38-1.42-.54-1.85a4.36,4.36,0,0,0-1.37-2.13v-1.87a3.33,3.33,0,0,0,2.16-.81,3.64,3.64,0,0,0,.76-2.56,4.29,4.29,0,0,0-.7-2.8,3,3,0,0,0-2.22-.84V313h1.5a6.81,6.81,0,0,1,4.55,1.36,4.07,4.07,0,0,1,1.42,3.24,4,4,0,0,1-3.16,4.05,8.84,8.84,0,0,1-2.31.39v.12a4.2,4.2,0,0,1,1.71.56,5.18,5.18,0,0,1,1.85,2.45c.16.36.3.73.44,1.11l.41,1.12a8.2,8.2,0,0,0,.44,1c.33.63.68.95,1,.95a.58.58,0,0,0,.47-.31,4.06,4.06,0,0,1,.35-.46.41.41,0,0,1,.32-.14h.21Z"/><path d="M39,383.63H36L44,364.8h3Z"/><path d="M51,374.05c0,4.75,1,7.36,3.11,7.81v1.63a7.51,7.51,0,0,1-5.7-2.76,9.87,9.87,0,0,1-2.12-6.5,10.22,10.22,0,0,1,2.22-6.75,7.53,7.53,0,0,1,2.49-2,7,7,0,0,1,3.11-.71v1.62c-1.67.27-2.65,1.82-3,4.65A27.08,27.08,0,0,0,51,374.05Zm4.24-9.25a6.47,6.47,0,0,1,1.76.49l1,.49a1,1,0,0,0,.43.14.36.36,0,0,0,.31-.21,3.34,3.34,0,0,0,.29-.52h1.21v6.55h-1a7.43,7.43,0,0,1-.73-1.48c-.28-.68-.51-1.22-.7-1.6a6.21,6.21,0,0,0-.62-1,3,3,0,0,0-2-1.2Zm0,17.06a3.48,3.48,0,0,0,2.56-1,6.2,6.2,0,0,0,1.45-4.12l1.46.5q-.36,4.25-3,5.67a5.59,5.59,0,0,1-2.44.59Z"/><path d="M63.44,383.63h-3l7.94-18.83h3Z"/><path d="M51.68,403.06l-2.85,8.17a2.93,2.93,0,0,0-.21,1,.77.77,0,0,0,.22.59,1.45,1.45,0,0,0,.54.33,5.63,5.63,0,0,0,.69.21,3.06,3.06,0,0,1,.68.25v.86H44.67v-.86a2.63,2.63,0,0,1,.56-.27,3.41,3.41,0,0,0,.6-.26,2.58,2.58,0,0,0,1.07-1.39l3.94-10.84Zm-.21-3.92-1.83-.56c0-.36.08-.68.1-1a5,5,0,0,1,.1-.76,14,14,0,0,1,3.67-.81,6.72,6.72,0,0,1,.71-.05,3.18,3.18,0,0,1,.46.72l5.88,14.81a3.74,3.74,0,0,0,.88,1.44,2,2,0,0,0,1.26.52v.94H54.59v-.8a2.84,2.84,0,0,1,.65-.28c.23-.06.43-.13.62-.19.4-.11.61-.33.61-.63a3,3,0,0,0-.24-.88ZM54,409H50.84l.42-1.35h2.2Z"/><path d="M44.81,445.63h-6v-.94a3.77,3.77,0,0,1,.66-.2,2.81,2.81,0,0,0,.58-.2,1.08,1.08,0,0,0,.57-1.07V430A1.09,1.09,0,0,0,40,429a2.81,2.81,0,0,0-.58-.2,3.77,3.77,0,0,1-.66-.2v-1h7.93v1a4.35,4.35,0,0,1-.72.2,2.81,2.81,0,0,0-.6.2,1.08,1.08,0,0,0-.58,1.08ZM46,444.4l.17,0h.17a3.86,3.86,0,0,0,3.88-2.16c.17-.39.33-.78.46-1.15s.26-.73.39-1.05a1.85,1.85,0,0,1,.53-.75h.86v6.32H46Z"/><path d="M59.13,434.26l-2.86,8.17a3.16,3.16,0,0,0-.2,1,.8.8,0,0,0,.21.59,1.63,1.63,0,0,0,.54.33,6.41,6.41,0,0,0,.7.21,3.06,3.06,0,0,1,.68.25v.86H52.12v-.86a2.56,2.56,0,0,1,.55-.27,3.49,3.49,0,0,0,.61-.26,2.57,2.57,0,0,0,1.06-1.39L58.29,432Zm-.22-3.92-1.83-.56c.05-.36.09-.68.11-1a4.12,4.12,0,0,1,.1-.76,13.91,13.91,0,0,1,3.67-.81,6.54,6.54,0,0,1,.71-.05,2.8,2.8,0,0,1,.45.72L68,442.73a4,4,0,0,0,.88,1.44,2.05,2.05,0,0,0,1.27.52v.94H62v-.8a2.66,2.66,0,0,1,.65-.28l.61-.19c.41-.11.61-.33.61-.63a3,3,0,0,0-.24-.88Zm2.5,9.89H58.29l.42-1.35h2.2Z"/><path d="M28.94,461.85c-.15-.35-.28-.67-.4-.94l-.67-.15-.7-.15a9.92,9.92,0,0,1-1.14-.36v-1.46h6.12l5.5,14.4-.92,3.64H34.55Zm1.22,6.44V474a1.4,1.4,0,0,0,.7,1.38,2.45,2.45,0,0,0,.64.26,2.38,2.38,0,0,1,.66.28v.88H26.53V476a1.76,1.76,0,0,1,.6-.29,3.45,3.45,0,0,0,.63-.25,1.42,1.42,0,0,0,.7-1.38V463.76Zm7.13.84,2.59-10.34h6.7v1a4.2,4.2,0,0,1-.66.21,2.39,2.39,0,0,0-.57.19,1.1,1.1,0,0,0-.56,1.08v13.19a1.09,1.09,0,0,0,.56,1.07,2.93,2.93,0,0,0,.57.2,3.32,3.32,0,0,1,.66.2v.94H38.85v-.94a3.62,3.62,0,0,1,.67-.2,2.81,2.81,0,0,0,.58-.2,1.08,1.08,0,0,0,.57-1.07v-12.9h-.06l-2.45,9.84Z"/><path d="M53.91,465.46l-2.86,8.17a3.16,3.16,0,0,0-.2,1,.77.77,0,0,0,.22.59,1.45,1.45,0,0,0,.54.33,5.63,5.63,0,0,0,.69.21A3.06,3.06,0,0,1,53,476v.86H46.9V476a2.81,2.81,0,0,1,.55-.27,3.49,3.49,0,0,0,.61-.26,2.52,2.52,0,0,0,1.06-1.39l4-10.84Zm-.22-3.92L51.87,461c.05-.36.08-.68.1-1a4.12,4.12,0,0,1,.1-.76,14,14,0,0,1,3.67-.81,6.72,6.72,0,0,1,.71-.05,3.18,3.18,0,0,1,.46.72l5.87,14.81a3.87,3.87,0,0,0,.89,1.44,2,2,0,0,0,1.26.52v.94H56.82V476a2.84,2.84,0,0,1,.65-.28c.23-.06.43-.13.62-.19.4-.11.61-.33.61-.63a3,3,0,0,0-.24-.88Zm2.51,9.89H53.07l.42-1.35h2.2Z"/><path d="M71.42,458.79v15.63a1.08,1.08,0,0,0,.57,1.07,3.14,3.14,0,0,0,.59.2,3.87,3.87,0,0,1,.67.2v.94H65.41v-.94a3.62,3.62,0,0,1,.67-.2,3,3,0,0,0,.58-.2,1.08,1.08,0,0,0,.57-1.07V461.23a1.09,1.09,0,0,0-.57-1.08,2.47,2.47,0,0,0-.58-.19,4.68,4.68,0,0,1-.67-.21v-1Zm10.37,16.42a3.69,3.69,0,0,1-3.5,1.89A3.18,3.18,0,0,1,75.17,475a14.23,14.23,0,0,1-.72-2.15c-.2-.8-.38-1.42-.53-1.85a4.5,4.5,0,0,0-1.37-2.13V467a3.37,3.37,0,0,0,2.16-.81,3.69,3.69,0,0,0,.76-2.56,4.35,4.35,0,0,0-.7-2.8,3,3,0,0,0-2.22-.83v-1.24H74a6.79,6.79,0,0,1,4.55,1.36A4,4,0,0,1,80,463.39a4,4,0,0,1-3.16,4.05,8.84,8.84,0,0,1-2.31.39V468a4.09,4.09,0,0,1,1.71.56A5.24,5.24,0,0,1,78.11,471c.15.36.3.73.43,1.11s.28.76.42,1.12a8.22,8.22,0,0,0,.43,1c.34.63.69.95,1,.95a.58.58,0,0,0,.48-.31,3.14,3.14,0,0,1,.35-.46.41.41,0,0,1,.31-.14h.22Z"/></svg>