<svg xmlns="http://www.w3.org/2000/svg" viewBox="0 0 426.65 43.13"><path d="M10,21.46q0,15,6.57,16.5V41.4a15.91,15.91,0,0,1-12-5.83Q0,30.16,0,21.83,0,13.22,4.7,7.56A16,16,0,0,1,10,3.4a14.48,14.48,0,0,1,6.57-1.51V5.33q-5.28.82-6.25,9.82A55.25,55.25,0,0,0,10,21.46Zm9-19.57a13.38,13.38,0,0,1,3.72,1.05c1,.48,1.7.82,2.06,1a2.07,2.07,0,0,0,.93.3.82.82,0,0,0,.66-.43c.18-.29.38-.66.6-1.1h2.55V16.57h-2a15.75,15.75,0,0,1-1.56-3.12c-.59-1.46-1.08-2.59-1.46-3.4a12.61,12.61,0,0,0-1.33-2.2,6.16,6.16,0,0,0-4.13-2.52Zm0,36.07a7.41,7.41,0,0,0,5.42-2.15Q27,33.19,27.4,27.12l3.09,1.05q-.76,9-6.42,12a11.88,11.88,0,0,1-5.15,1.24Z"/><path d="M46.64,16.81l-6,17.29a6.38,6.38,0,0,0-.43,2,1.68,1.68,0,0,0,.46,1.25,3.24,3.24,0,0,0,1.14.7,13.94,13.94,0,0,0,1.46.44,5.85,5.85,0,0,1,1.45.54v1.82H31.83V39A4.88,4.88,0,0,1,33,38.47a8.65,8.65,0,0,0,1.27-.56A5.4,5.4,0,0,0,36.52,35l8.35-22.92Zm-.46-8.29L42.32,7.34c.11-.75.18-1.42.22-2a8.89,8.89,0,0,1,.21-1.6A29.62,29.62,0,0,1,50.51,2,12.6,12.6,0,0,1,52,1.89a5.77,5.77,0,0,1,1,1.53L65.4,34.71a8.23,8.23,0,0,0,1.86,3,4.37,4.37,0,0,0,2.67,1.11v2H52.79V39.17a5.26,5.26,0,0,1,1.38-.6l1.3-.39q1.29-.37,1.29-1.35A6.24,6.24,0,0,0,56.25,35Zm5.29,20.91h-6.6l.89-2.85H50.4Z"/><path d="M78.17,14.94V35.09c0,1.66,1,2.76,3,3.3a8.66,8.66,0,0,1,1.48.54v1.93H70.34V38.93a7.92,7.92,0,0,1,1.41-.54,5.47,5.47,0,0,0,1.35-.59,2.86,2.86,0,0,0,1.48-2.71V9.6ZM75.73,7.05l-2.28-.43C72,6.37,71,6.19,70.58,6.08V2.73H83.06l20.12,29.78v8.35H98.54ZM99.59,22.93v-15A2.28,2.28,0,0,0,98.27,5.6a5.55,5.55,0,0,0-1.34-.47,9.73,9.73,0,0,1-1.53-.5V2.73h11.92v1.9a9,9,0,0,1-1.49.5,5.63,5.63,0,0,0-1.33.47,2.28,2.28,0,0,0-1.32,2.28V28.25Z"/><path d="M232.61,2.73v33A2.27,2.27,0,0,0,233.82,38a5.74,5.74,0,0,0,1.25.42,9.83,9.83,0,0,1,1.41.44v2H219.92v-2a9.11,9.11,0,0,1,1.41-.44,5.3,5.3,0,0,0,1.22-.42,2.27,2.27,0,0,0,1.21-2.25V7.88a2.29,2.29,0,0,0-1.21-2.28,5.3,5.3,0,0,0-1.22-.42,8.14,8.14,0,0,1-1.41-.44v-2Zm21.93,34.69q-2.23,4-7.41,4a6.7,6.7,0,0,1-6.57-4.37A29.18,29.18,0,0,1,239,32.5c-.43-1.69-.81-3-1.13-3.9a9.32,9.32,0,0,0-2.9-4.51V20.14a7,7,0,0,0,4.56-1.72c1.08-1.14,1.61-3,1.61-5.42q0-4.2-1.47-5.9T235,5.33V2.73h3.17q6.27,0,9.61,2.87a8.56,8.56,0,0,1,3,6.84q0,6.44-6.68,8.56a18.61,18.61,0,0,1-4.89.83v.24a9.34,9.34,0,0,1,3.63,1.18,11.17,11.17,0,0,1,3.91,5.18q.5,1.16.93,2.37c.3.8.59,1.59.87,2.36a16,16,0,0,0,.92,2.06c.71,1.35,1.44,2,2.2,2a1.23,1.23,0,0,0,1-.66,8.1,8.1,0,0,1,.74-1,.93.93,0,0,1,.67-.31,2,2,0,0,1,.46,0Z"/><path d="M270.59,2.73V40.86h-12.7v-2a9.83,9.83,0,0,1,1.41-.44,5.14,5.14,0,0,0,1.22-.42,2.25,2.25,0,0,0,1.21-2.25V7.88a2.28,2.28,0,0,0-1.21-2.28,5.14,5.14,0,0,0-1.22-.42,8.71,8.71,0,0,1-1.41-.44v-2Zm10.7,4.6A7.12,7.12,0,0,0,279,5.87a8.75,8.75,0,0,0-3.29-.57c-1.25,0-2.15,0-2.69.08V2.73H279a66.66,66.66,0,0,0,8.77-.41v13h-1.87a5.13,5.13,0,0,1-1.13-1.64c-.31-.66-.61-1.36-.93-2.1s-.66-1.49-1.06-2.23A7.76,7.76,0,0,0,281.29,7.33ZM273,18.16h8.94V25H273Zm0,20c.9.07,2,.1,3.41.1a10.15,10.15,0,0,0,3.72-.64,7.64,7.64,0,0,0,4.31-3.89q.58-1.23,1-2.43c.28-.8.57-1.53.87-2.2a3.67,3.67,0,0,1,1.22-1.57h1.82V40.86H273Z"/><path d="M406.26,43.12a17.61,17.61,0,0,1-13.57-6.73,22.56,22.56,0,0,1-4.8-14.68,23.41,23.41,0,0,1,4.72-14.83A17.25,17.25,0,0,1,406,0V3.75q-5.89.95-6.92,11.66c-.19,2.05-.29,4.16-.29,6.31a60.66,60.66,0,0,0,.31,6.27,25.17,25.17,0,0,0,1.12,5.47c1.23,3.51,3.26,5.49,6.07,5.92Zm9.49-21.41q0-16.94-7.18-18V0a17.24,17.24,0,0,1,13.36,6.88,23.49,23.49,0,0,1,4.72,14.83A23.24,23.24,0,0,1,422,36.39a17,17,0,0,1-13.15,6.73V39.38q5.65-.77,6.62-11.37Q415.75,25,415.75,21.71Z"/></svg>