<svg xmlns="http://www.w3.org/2000/svg" viewBox="0 0 99.97 115.06"><path d="M47.05,10Q29,14.07,29,58.11t18,46.94v10H45.41A38.27,38.27,0,0,1,27,110.56,44.22,44.22,0,0,1,12.66,98.33Q0,81.85,0,57.92,0,34.16,13,17.66A45.12,45.12,0,0,1,33.77,2.5,43.09,43.09,0,0,1,47.05,0Zm7,95.05c4.22-.41,7.2-2,9-4.8a19.13,19.13,0,0,0,2.62-10.36q0-6.18-.2-10.16a22.79,22.79,0,0,0-1.44-7.19q-2.82-7-11.73-7V59.4H100c-.15.79-.31,1.53-.47,2.23s-.31,1.42-.47,2.15-.31,1.41-.46,2c-2.82,1.25-4.69,2.86-5.63,4.81a16.42,16.42,0,0,0-1.41,7.15v9.46q0,23.37-23.14,26.58-6.8.93-14.38,1.25ZM54,0A43.24,43.24,0,0,1,73.63,7a5.62,5.62,0,0,0,2.81,1.1q1.8,0,4.23-5.71h7V43.07H81.92q-1.8-2.12-4.15-8.68t-4-10.32a28.65,28.65,0,0,0-4.26-6.8A20.36,20.36,0,0,0,54,10Z"/></svg>