<?xml version="1.0" encoding="UTF-8"?>
<svg xmlns="http://www.w3.org/2000/svg" xmlns:xlink="http://www.w3.org/1999/xlink" width="375pt" height="615.000004pt" viewBox="0 0 375 615.000004" version="1.2">
<defs>
<clipPath id="clip1">
  <path d="M 339 477.21875 L 368.707031 477.21875 L 368.707031 511 L 339 511 Z M 339 477.21875 "/>
</clipPath>
</defs>
<g id="surface1">
<g clip-path="url(#clip1)" clip-rule="nonzero">
<path style=" stroke:none;fill-rule:nonzero;fill:rgb(0%,0%,0%);fill-opacity:1;" d="M 353.269531 510.660156 C 352.277344 510.644531 351.300781 510.519531 350.335938 510.285156 C 349.371094 510.050781 348.445312 509.710938 347.554688 509.273438 C 346.667969 508.832031 345.839844 508.296875 345.066406 507.671875 C 344.296875 507.046875 343.605469 506.34375 342.992188 505.5625 C 341.75 503.980469 340.816406 502.234375 340.191406 500.324219 C 339.566406 498.414062 339.289062 496.453125 339.359375 494.445312 C 339.296875 492.425781 339.574219 490.453125 340.183594 488.527344 C 340.796875 486.605469 341.710938 484.835938 342.925781 483.222656 C 343.515625 482.433594 344.1875 481.722656 344.941406 481.085938 C 345.695312 480.449219 346.507812 479.90625 347.386719 479.453125 C 348.261719 479.003906 349.179688 478.65625 350.132812 478.410156 C 351.089844 478.167969 352.058594 478.035156 353.042969 478.011719 L 353.042969 480.847656 C 350.070312 481.328125 348.324219 484.269531 347.808594 489.671875 C 347.660156 491.230469 347.59375 492.820312 347.59375 494.453125 C 347.585938 496.042969 347.664062 497.625 347.820312 499.203125 C 347.953125 500.613281 348.238281 501.988281 348.671875 503.335938 C 349.601562 506.003906 351.136719 507.492188 353.269531 507.824219 Z M 344.878906 474.195312 C 344.597656 473.9375 344.378906 473.640625 344.21875 473.296875 C 344.046875 472.9375 343.960938 472.558594 343.96875 472.160156 C 343.957031 471.761719 344.042969 471.382812 344.21875 471.023438 C 344.382812 470.683594 344.601562 470.386719 344.878906 470.128906 C 345.40625 469.605469 346.042969 469.335938 346.785156 469.308594 C 347.324219 469.292969 347.851562 469.367188 348.363281 469.539062 C 348.734375 469.671875 349.066406 469.871094 349.363281 470.128906 C 349.953125 470.542969 350.269531 471.113281 350.316406 471.832031 C 350.335938 472.316406 350.25 472.78125 350.058594 473.230469 C 349.886719 473.574219 349.65625 473.875 349.363281 474.125 C 348.832031 474.640625 348.195312 474.914062 347.457031 474.945312 C 346.921875 474.960938 346.398438 474.890625 345.890625 474.726562 C 345.519531 474.609375 345.183594 474.429688 344.878906 474.195312 Z M 360.449219 494.445312 C 360.449219 485.902344 358.640625 481.359375 355.019531 480.816406 L 355.019531 477.976562 C 356.003906 478 356.976562 478.136719 357.929688 478.378906 C 358.886719 478.625 359.800781 478.972656 360.675781 479.421875 C 361.554688 479.875 362.367188 480.417969 363.121094 481.054688 C 363.875 481.6875 364.546875 482.402344 365.140625 483.1875 C 366.351562 484.804688 367.265625 486.570312 367.875 488.496094 C 368.488281 490.421875 368.765625 492.390625 368.707031 494.410156 C 368.769531 496.40625 368.5 498.359375 367.898438 500.269531 C 367.296875 502.175781 366.394531 503.929688 365.195312 505.527344 C 364.609375 506.300781 363.949219 506.996094 363.207031 507.621094 C 362.464844 508.242188 361.660156 508.773438 360.796875 509.214844 C 359.9375 509.65625 359.035156 509.996094 358.097656 510.234375 C 357.15625 510.472656 356.203125 510.605469 355.234375 510.628906 L 355.234375 507.789062 C 358.097656 507.402344 359.769531 504.53125 360.253906 499.179688 C 360.390625 497.679688 360.449219 496.089844 360.449219 494.445312 Z M 358.699219 474.195312 C 358.417969 473.941406 358.199219 473.640625 358.042969 473.296875 C 357.867188 472.9375 357.785156 472.558594 357.792969 472.160156 C 357.78125 471.761719 357.863281 471.382812 358.042969 471.023438 C 358.199219 470.683594 358.421875 470.382812 358.699219 470.128906 C 359.230469 469.605469 359.863281 469.335938 360.609375 469.308594 C 361.148438 469.292969 361.671875 469.367188 362.1875 469.539062 C 362.5625 469.675781 362.902344 469.871094 363.207031 470.128906 C 363.777344 470.554688 364.085938 471.125 364.140625 471.832031 C 364.15625 472.316406 364.070312 472.78125 363.878906 473.230469 C 363.710938 473.570312 363.488281 473.867188 363.207031 474.125 C 362.667969 474.640625 362.023438 474.914062 361.277344 474.945312 C 360.742188 474.964844 360.21875 474.890625 359.710938 474.726562 C 359.34375 474.609375 359.003906 474.429688 358.699219 474.195312 Z M 358.699219 474.195312 "/>
</g>
</g>
</svg>
