<?xml version="1.0" encoding="UTF-8"?>
<svg xmlns="http://www.w3.org/2000/svg" xmlns:xlink="http://www.w3.org/1999/xlink" width="224.87999pt" height="225pt" viewBox="0 0 224.87999 225" version="1.2">
<defs>
<clipPath id="clip1">
  <path d="M 2.011719 0.8125 L 223.144531 0.8125 L 223.144531 224.195312 L 2.011719 224.195312 Z M 2.011719 0.8125 "/>
</clipPath>
</defs>
<g id="surface1">
<g clip-path="url(#clip1)" clip-rule="nonzero">
<path style=" stroke:none;fill-rule:nonzero;fill:rgb(13.729858%,12.159729%,12.548828%);fill-opacity:1;" d="M 135.992188 104.605469 C 135.726562 104.605469 135.46875 104.660156 135.214844 104.683594 C 134.785156 103.34375 134.242188 102.066406 133.597656 100.839844 C 133.800781 100.675781 134.027344 100.53125 134.222656 100.335938 L 150.886719 83.707031 C 155.320312 89.765625 158.382812 96.878906 159.59375 104.605469 Z M 150.886719 140.558594 L 134.222656 123.929688 C 134.027344 123.734375 133.808594 123.589844 133.597656 123.421875 C 134.242188 122.195312 134.785156 120.914062 135.214844 119.578125 C 135.46875 119.605469 135.726562 119.652344 135.992188 119.652344 L 159.59375 119.652344 C 158.382812 127.375 155.320312 134.5 150.886719 140.558594 Z M 119.265625 159.890625 L 119.265625 136.347656 C 119.265625 136.074219 119.21875 135.828125 119.1875 135.570312 C 120.527344 135.140625 121.8125 134.589844 123.046875 133.953125 C 123.210938 134.160156 123.355469 134.378906 123.550781 134.570312 L 140.21875 151.203125 C 134.148438 155.625 127.007812 158.675781 119.265625 159.890625 Z M 119.265625 87.921875 L 119.265625 64.375 C 127.007812 65.585938 134.144531 68.640625 140.21875 73.058594 L 123.550781 89.6875 C 123.355469 89.882812 123.210938 90.097656 123.046875 90.308594 C 121.808594 89.671875 120.527344 89.125 119.1875 88.703125 C 119.21875 88.441406 119.265625 88.183594 119.265625 87.921875 Z M 100.40625 90.308594 C 100.238281 90.101562 100.09375 89.882812 99.898438 89.6875 L 83.226562 73.058594 C 89.300781 68.636719 96.441406 65.585938 104.183594 64.375 L 104.183594 87.921875 C 104.183594 88.183594 104.238281 88.441406 104.265625 88.703125 C 102.921875 89.125 101.640625 89.671875 100.40625 90.308594 Z M 104.183594 136.347656 L 104.183594 159.890625 C 96.441406 158.683594 89.300781 155.628906 83.226562 151.207031 L 99.898438 134.570312 C 100.09375 134.378906 100.234375 134.160156 100.40625 133.953125 C 101.640625 134.589844 102.921875 135.140625 104.265625 135.566406 C 104.238281 135.820312 104.183594 136.074219 104.183594 136.347656 Z M 72.554688 140.5625 C 68.121094 134.5 65.0625 127.382812 63.847656 119.652344 L 87.457031 119.652344 C 87.722656 119.652344 87.976562 119.605469 88.238281 119.578125 C 88.664062 120.914062 89.207031 122.195312 89.855469 123.421875 C 89.644531 123.589844 89.414062 123.734375 89.226562 123.929688 Z M 72.554688 83.703125 L 89.230469 100.332031 C 89.421875 100.523438 89.644531 100.667969 89.855469 100.839844 C 89.214844 102.066406 88.667969 103.34375 88.238281 104.683594 C 87.976562 104.660156 87.722656 104.605469 87.457031 104.605469 L 63.847656 104.605469 C 65.0625 96.878906 68.125 89.761719 72.554688 83.703125 Z M 209.421875 101.914062 C 217.121094 101.914062 223.378906 95.683594 223.378906 87.996094 C 223.378906 80.304688 217.121094 74.074219 209.421875 74.074219 C 203.503906 74.074219 198.460938 77.742188 196.429688 82.921875 L 179.15625 86.933594 C 174.65625 74.992188 167.0625 64.550781 157.347656 56.585938 L 167.316406 40.617188 C 173.621094 39.28125 178.363281 33.691406 178.363281 26.996094 C 178.363281 19.308594 172.113281 13.074219 164.40625 13.074219 C 156.699219 13.074219 150.453125 19.308594 150.453125 26.996094 C 150.453125 28.519531 150.699219 29.980469 151.148438 31.351562 L 141.539062 46.757812 C 132.445312 42.613281 122.351562 40.289062 111.726562 40.289062 C 109.324219 40.289062 106.945312 40.414062 104.609375 40.648438 L 100.425781 22.703125 C 101.992188 20.449219 102.921875 17.71875 102.921875 14.761719 C 102.921875 7.074219 96.667969 0.839844 88.960938 0.839844 C 81.253906 0.839844 75 7.074219 75 14.761719 C 75 20.046875 77.949219 24.636719 82.292969 26.996094 L 86.464844 44.859375 C 74.359375 49.398438 63.800781 57.097656 55.789062 66.949219 L 43.832031 59.527344 C 43.5 52.128906 37.40625 46.222656 29.90625 46.222656 C 22.195312 46.222656 15.941406 52.457031 15.941406 60.144531 C 15.941406 67.839844 22.195312 74.074219 29.90625 74.074219 C 30.542969 74.074219 31.164062 74.015625 31.78125 73.929688 L 46.019531 82.769531 C 41.972656 91.742188 39.703125 101.675781 39.703125 112.132812 C 39.703125 114.527344 39.828125 116.894531 40.054688 119.234375 L 23.425781 123.09375 C 21.269531 121.71875 18.699219 120.914062 15.941406 120.914062 C 8.242188 120.914062 1.992188 127.148438 1.992188 134.835938 C 1.992188 142.527344 8.242188 148.761719 15.941406 148.761719 C 21.433594 148.761719 26.164062 145.597656 28.445312 141.011719 L 44.292969 137.332031 C 48.789062 149.277344 56.382812 159.714844 66.101562 167.675781 L 56.136719 183.644531 C 49.824219 184.988281 45.085938 190.570312 45.085938 197.269531 C 45.085938 204.960938 51.332031 211.1875 59.039062 211.1875 C 66.753906 211.1875 72.992188 204.960938 72.992188 197.269531 C 72.992188 195.746094 72.746094 194.289062 72.292969 192.914062 L 81.910156 177.503906 C 91.003906 181.648438 101.089844 183.972656 111.726562 183.972656 C 114.128906 183.972656 116.496094 183.851562 118.84375 183.621094 L 123.160156 202.140625 C 121.515625 204.429688 120.53125 207.222656 120.53125 210.261719 C 120.53125 217.949219 126.777344 224.183594 134.488281 224.183594 C 142.191406 224.183594 148.4375 217.949219 148.4375 210.261719 C 148.4375 205.0625 145.582031 200.542969 141.355469 198.148438 L 136.980469 179.402344 C 148.824219 174.960938 159.191406 167.503906 167.136719 157.964844 L 183.394531 168.058594 C 184.683594 174.40625 190.316406 179.183594 197.0625 179.183594 C 204.773438 179.183594 211.023438 172.945312 211.023438 165.257812 C 211.023438 157.570312 204.773438 151.335938 197.0625 151.335938 C 195.570312 151.335938 194.136719 151.578125 192.789062 152.007812 L 177.082031 142.25 C 181.34375 133.085938 183.742188 122.886719 183.742188 112.132812 C 183.742188 109.738281 183.613281 107.371094 183.386719 105.03125 L 203.175781 100.4375 C 205.058594 101.375 207.175781 101.914062 209.421875 101.914062 "/>
</g>
</g>
</svg>
