<?xml version="1.0" encoding="UTF-8"?>
<svg xmlns="http://www.w3.org/2000/svg" xmlns:xlink="http://www.w3.org/1999/xlink" width="224.87999pt" height="149.999998pt" viewBox="0 0 224.87999 149.999998" version="1.2">
<defs>
<clipPath id="clip1">
  <path d="M 81 0.0390625 L 110 0.0390625 L 110 24 L 81 24 Z M 81 0.0390625 "/>
</clipPath>
<clipPath id="clip2">
  <path d="M 81 0.0390625 L 111 0.0390625 L 111 24 L 81 24 Z M 81 0.0390625 "/>
</clipPath>
<clipPath id="clip3">
  <path d="M 81 126 L 110 126 L 110 149.957031 L 81 149.957031 Z M 81 126 "/>
</clipPath>
<clipPath id="clip4">
  <path d="M 81 126 L 111 126 L 111 149.957031 L 81 149.957031 Z M 81 126 "/>
</clipPath>
</defs>
<g id="surface1">
<path style=" stroke:none;fill-rule:nonzero;fill:rgb(13.729858%,12.159729%,12.548828%);fill-opacity:1;" d="M 23.628906 80.980469 L 23.628906 69.796875 L 187.261719 69.796875 L 187.261719 80.980469 L 23.628906 80.980469 "/>
<path style=" stroke:none;fill-rule:nonzero;fill:rgb(13.729858%,12.159729%,12.548828%);fill-opacity:1;" d="M 23.628906 80.980469 L 23.941406 80.980469 L 23.941406 70.105469 L 186.953125 70.105469 L 186.953125 80.671875 L 23.628906 80.671875 L 23.628906 80.980469 L 23.941406 80.980469 L 23.628906 80.980469 L 23.628906 81.292969 L 187.570312 81.292969 L 187.570312 69.488281 L 23.320312 69.488281 L 23.320312 81.292969 L 23.628906 81.292969 L 23.628906 80.980469 "/>
<path style=" stroke:none;fill-rule:nonzero;fill:rgb(13.729858%,12.159729%,12.548828%);fill-opacity:1;" d="M 23.628906 75.390625 L 23.628906 69.796875 L 187.261719 69.796875 L 187.261719 75.390625 L 23.628906 75.390625 "/>
<path style=" stroke:none;fill-rule:nonzero;fill:rgb(13.729858%,12.159729%,12.548828%);fill-opacity:1;" d="M 23.628906 75.390625 L 23.941406 75.390625 L 23.941406 70.105469 L 186.953125 70.105469 L 186.953125 75.078125 L 23.628906 75.078125 L 23.628906 75.390625 L 23.941406 75.390625 L 23.628906 75.390625 L 23.628906 75.699219 L 187.570312 75.699219 L 187.570312 69.488281 L 23.320312 69.488281 L 23.320312 75.699219 L 23.628906 75.699219 L 23.628906 75.390625 "/>
<path style=" stroke:none;fill-rule:nonzero;fill:rgb(13.729858%,12.159729%,12.548828%);fill-opacity:1;" d="M 74.625 75.015625 C 67.71875 73.308594 40.34375 65.980469 42.636719 57.480469 C 46.601562 42.804688 54.785156 23.535156 73.429688 17.417969 C 86.628906 13.085938 93.277344 12.007812 93.277344 12.007812 L 93.277344 7.28125 C 93.277344 7.28125 82.898438 7.863281 67.335938 12.25 C 33.472656 21.785156 7.875 70.480469 5.554688 75.015625 L 74.625 75.015625 "/>
<path style=" stroke:none;fill-rule:nonzero;fill:rgb(13.729858%,12.159729%,12.548828%);fill-opacity:1;" d="M 74.625 75.015625 L 74.699219 74.714844 C 71.394531 73.898438 63.371094 71.785156 56.195312 68.878906 C 52.605469 67.425781 49.230469 65.773438 46.769531 63.996094 C 45.539062 63.109375 44.542969 62.191406 43.859375 61.269531 C 43.175781 60.339844 42.8125 59.417969 42.8125 58.496094 C 42.8125 58.183594 42.851562 57.875 42.9375 57.558594 C 44.914062 50.242188 47.941406 41.785156 52.789062 34.410156 C 57.632812 27.035156 64.285156 20.746094 73.527344 17.710938 C 80.117188 15.550781 85.074219 14.199219 88.378906 13.390625 C 90.03125 12.984375 91.269531 12.714844 92.097656 12.546875 C 92.507812 12.464844 92.816406 12.40625 93.023438 12.367188 C 93.230469 12.328125 93.328125 12.3125 93.328125 12.3125 L 93.589844 12.269531 L 93.589844 6.957031 L 93.261719 6.976562 C 93.246094 6.976562 82.839844 7.558594 67.25 11.949219 C 50.207031 16.757812 35.316406 31.363281 24.375 45.316406 C 13.433594 59.273438 6.445312 72.59375 5.28125 74.875 L 5.050781 75.324219 L 77.164062 75.324219 L 74.699219 74.714844 L 74.625 75.015625 L 74.625 74.703125 L 5.554688 74.703125 L 5.554688 75.015625 L 5.832031 75.15625 C 6.984375 72.898438 13.957031 59.605469 24.863281 45.695312 C 35.761719 31.789062 50.597656 17.277344 67.417969 12.546875 C 75.183594 10.355469 81.660156 9.117188 86.1875 8.425781 C 88.453125 8.082031 90.234375 7.871094 91.445312 7.75 C 92.050781 7.6875 92.515625 7.648438 92.828125 7.625 C 93.140625 7.601562 93.296875 7.589844 93.296875 7.589844 L 93.277344 7.28125 L 92.96875 7.28125 L 92.96875 12.007812 L 93.277344 12.007812 L 93.230469 11.703125 C 93.214844 11.703125 86.550781 12.789062 73.332031 17.125 C 63.929688 20.207031 57.167969 26.613281 52.269531 34.070312 C 47.375 41.527344 44.328125 50.042969 42.339844 57.398438 C 42.242188 57.765625 42.191406 58.128906 42.191406 58.496094 C 42.191406 59.585938 42.625 60.636719 43.363281 61.636719 C 44.652344 63.382812 46.882812 64.992188 49.589844 66.480469 C 57.707031 70.933594 70.1875 74.234375 74.550781 75.3125 L 74.625 75.015625 L 74.625 74.703125 L 74.625 75.015625 "/>
<g clip-path="url(#clip1)" clip-rule="nonzero">
<path style=" stroke:none;fill-rule:nonzero;fill:rgb(13.729858%,12.159729%,12.548828%);fill-opacity:1;" d="M 85.507812 23.160156 L 87.183594 11.25 L 81.742188 0.519531 L 109.730469 7.492188 L 85.507812 23.160156 "/>
</g>
<g clip-path="url(#clip2)" clip-rule="nonzero">
<path style=" stroke:none;fill-rule:nonzero;fill:rgb(13.729858%,12.159729%,12.548828%);fill-opacity:1;" d="M 85.507812 23.160156 L 85.8125 23.203125 L 87.503906 11.195312 L 82.324219 0.984375 L 108.960938 7.621094 L 85.335938 22.898438 L 85.507812 23.160156 L 85.8125 23.203125 L 85.507812 23.160156 L 85.671875 23.417969 L 110.496094 7.363281 L 81.160156 0.0546875 L 86.867188 11.300781 L 85.105469 23.789062 L 85.671875 23.417969 L 85.507812 23.160156 "/>
</g>
<path style=" stroke:none;fill-rule:nonzero;fill:rgb(13.729858%,12.159729%,12.548828%);fill-opacity:1;" d="M 87.800781 20.390625 L 89.132812 10.925781 L 107.046875 7.941406 Z M 87.800781 20.390625 "/>
<path style=" stroke:none;fill-rule:nonzero;fill:rgb(13.729858%,12.159729%,12.548828%);fill-opacity:1;" d="M 87.800781 20.390625 L 88.105469 20.433594 L 89.40625 11.191406 L 105.628906 8.492188 L 87.632812 20.128906 L 87.800781 20.390625 L 88.105469 20.433594 L 87.800781 20.390625 L 87.964844 20.648438 L 108.472656 7.390625 L 88.859375 10.65625 L 87.398438 21.015625 L 87.964844 20.648438 L 87.800781 20.390625 "/>
<path style=" stroke:none;fill-rule:nonzero;fill:rgb(13.729858%,12.159729%,12.548828%);fill-opacity:1;" d="M 74.625 75.015625 C 67.71875 76.71875 40.34375 84.050781 42.636719 92.550781 C 46.601562 107.226562 54.785156 126.496094 73.429688 132.613281 C 86.628906 136.945312 93.277344 138.023438 93.277344 138.023438 L 93.277344 142.746094 C 93.277344 142.746094 82.898438 142.164062 67.335938 137.785156 C 33.472656 128.242188 7.875 79.546875 5.554688 75.015625 L 74.625 75.015625 "/>
<path style=" stroke:none;fill-rule:nonzero;fill:rgb(13.729858%,12.159729%,12.548828%);fill-opacity:1;" d="M 74.625 75.015625 L 74.550781 74.714844 C 71.230469 75.535156 63.191406 77.648438 55.960938 80.574219 C 52.347656 82.039062 48.9375 83.707031 46.410156 85.527344 C 45.144531 86.441406 44.101562 87.394531 43.363281 88.390625 C 42.625 89.386719 42.191406 90.441406 42.191406 91.53125 C 42.191406 91.898438 42.242188 92.261719 42.339844 92.625 C 44.328125 99.988281 47.375 108.503906 52.269531 115.960938 C 57.167969 123.417969 63.929688 129.820312 73.332031 132.90625 C 86.550781 137.242188 93.214844 138.324219 93.230469 138.328125 L 93.277344 138.023438 L 92.96875 138.023438 L 92.96875 142.746094 L 93.277344 142.746094 L 93.296875 142.4375 C 93.296875 142.4375 93.140625 142.425781 92.828125 142.402344 C 90.640625 142.234375 81.011719 141.3125 67.417969 137.488281 C 50.597656 132.753906 35.761719 118.242188 24.863281 104.328125 C 13.957031 90.421875 6.984375 77.128906 5.832031 74.875 L 5.554688 75.015625 L 5.554688 75.324219 L 74.625 75.324219 L 74.625 75.015625 L 74.550781 74.714844 L 74.625 75.015625 L 74.625 74.703125 L 5.050781 74.703125 L 5.28125 75.15625 C 6.445312 77.433594 13.433594 90.753906 24.375 104.710938 C 35.316406 118.667969 50.207031 133.273438 67.25 138.082031 C 82.839844 142.46875 93.246094 143.054688 93.261719 143.054688 L 93.589844 143.074219 L 93.589844 137.761719 L 93.328125 137.71875 C 93.328125 137.71875 93.230469 137.703125 93.023438 137.667969 C 91.585938 137.402344 85.0625 136.105469 73.527344 132.316406 C 64.285156 129.285156 57.632812 122.996094 52.789062 115.621094 C 47.941406 108.246094 44.914062 99.789062 42.9375 92.46875 C 42.851562 92.152344 42.8125 91.839844 42.8125 91.53125 C 42.8125 90.609375 43.175781 89.683594 43.859375 88.757812 C 45.050781 87.140625 47.21875 85.550781 49.886719 84.089844 C 57.890625 79.695312 70.363281 76.382812 74.699219 75.3125 L 77.164062 74.703125 L 74.625 74.703125 L 74.625 75.015625 "/>
<g clip-path="url(#clip3)" clip-rule="nonzero">
<path style=" stroke:none;fill-rule:nonzero;fill:rgb(13.729858%,12.159729%,12.548828%);fill-opacity:1;" d="M 85.507812 126.871094 L 87.183594 138.777344 L 81.742188 149.507812 L 109.730469 142.535156 L 85.507812 126.871094 "/>
</g>
<g clip-path="url(#clip4)" clip-rule="nonzero">
<path style=" stroke:none;fill-rule:nonzero;fill:rgb(13.729858%,12.159729%,12.548828%);fill-opacity:1;" d="M 85.507812 126.871094 L 85.199219 126.914062 L 86.867188 138.726562 L 81.160156 149.972656 L 110.496094 142.664062 L 85.105469 126.242188 L 85.199219 126.914062 L 85.507812 126.871094 L 85.335938 127.128906 L 108.960938 142.410156 L 82.324219 149.046875 L 87.503906 138.832031 L 85.8125 126.828125 L 85.507812 126.871094 L 85.335938 127.128906 L 85.507812 126.871094 "/>
</g>
<path style=" stroke:none;fill-rule:nonzero;fill:rgb(13.729858%,12.159729%,12.548828%);fill-opacity:1;" d="M 87.074219 129.957031 L 88.265625 138.417969 L 105.449219 141.585938 Z M 87.074219 129.957031 "/>
<path style=" stroke:none;fill-rule:nonzero;fill:rgb(13.729858%,12.159729%,12.548828%);fill-opacity:1;" d="M 87.074219 129.957031 L 86.769531 130.003906 L 87.992188 138.679688 L 106.964844 142.179688 L 86.675781 129.339844 L 86.769531 130.003906 L 87.074219 129.957031 L 86.910156 130.21875 L 103.929688 140.992188 L 88.542969 138.152344 L 87.378906 129.914062 L 87.074219 129.957031 L 86.910156 130.21875 L 87.074219 129.957031 "/>
<path style=" stroke:none;fill-rule:nonzero;fill:rgb(13.729858%,12.159729%,12.548828%);fill-opacity:1;" d="M 166.203125 95.535156 C 163.421875 95.535156 161.171875 93.867188 161.171875 91.804688 L 161.171875 58.976562 C 161.171875 56.914062 163.421875 55.246094 166.203125 55.246094 C 168.980469 55.246094 171.234375 56.914062 171.234375 58.976562 L 171.234375 91.804688 C 171.234375 93.867188 168.980469 95.535156 166.203125 95.535156 "/>
<path style=" stroke:none;fill-rule:nonzero;fill:rgb(13.729858%,12.159729%,12.548828%);fill-opacity:1;" d="M 166.203125 95.535156 L 166.203125 95.226562 C 164.875 95.226562 163.679688 94.824219 162.828125 94.195312 C 161.976562 93.558594 161.480469 92.714844 161.480469 91.804688 L 161.480469 58.976562 C 161.480469 58.0625 161.976562 57.21875 162.828125 56.585938 C 163.679688 55.953125 164.875 55.554688 166.203125 55.554688 C 167.53125 55.554688 168.726562 55.953125 169.574219 56.585938 C 170.429688 57.21875 170.925781 58.0625 170.925781 58.976562 L 170.925781 91.804688 C 170.925781 92.714844 170.429688 93.5625 169.574219 94.195312 C 168.726562 94.824219 167.53125 95.226562 166.203125 95.226562 L 166.203125 95.847656 C 167.652344 95.84375 168.972656 95.410156 169.945312 94.691406 C 170.914062 93.976562 171.542969 92.953125 171.542969 91.804688 L 171.542969 58.976562 C 171.542969 57.828125 170.914062 56.804688 169.941406 56.085938 C 168.972656 55.371094 167.652344 54.9375 166.203125 54.9375 C 164.75 54.9375 163.429688 55.371094 162.460938 56.085938 C 161.492188 56.804688 160.859375 57.828125 160.859375 58.976562 L 160.859375 91.804688 C 160.859375 92.953125 161.492188 93.976562 162.460938 94.691406 C 163.429688 95.410156 164.75 95.84375 166.203125 95.847656 L 166.203125 95.535156 "/>
<path style=" stroke:none;fill-rule:nonzero;fill:rgb(13.729858%,12.159729%,12.548828%);fill-opacity:1;" d="M 166.738281 94.472656 C 168.621094 94.28125 170.09375 92.792969 170.09375 90.96875 L 170.09375 59.808594 C 170.09375 57.984375 168.621094 56.5 166.738281 56.308594 L 166.738281 94.472656 "/>
<path style=" stroke:none;fill-rule:nonzero;fill:rgb(13.729858%,12.159729%,12.548828%);fill-opacity:1;" d="M 166.738281 94.472656 L 166.769531 94.78125 C 168.796875 94.574219 170.398438 92.96875 170.402344 90.96875 L 170.402344 59.808594 C 170.398438 57.8125 168.796875 56.203125 166.769531 56 L 166.429688 55.964844 L 166.429688 94.816406 L 166.769531 94.78125 L 166.738281 94.472656 L 167.046875 94.472656 L 167.046875 56.308594 L 166.738281 56.308594 L 166.707031 56.617188 C 168.449219 56.796875 169.785156 58.160156 169.785156 59.808594 L 169.785156 90.96875 C 169.785156 92.621094 168.449219 93.984375 166.707031 94.167969 L 166.738281 94.472656 L 167.046875 94.472656 L 166.738281 94.472656 "/>
<path style=" stroke:none;fill-rule:nonzero;fill:rgb(13.729858%,12.159729%,12.548828%);fill-opacity:1;" d="M 194.257812 75.390625 C 194.257812 71.21875 197.632812 67.839844 201.800781 67.839844 C 205.960938 67.839844 209.339844 71.21875 209.339844 75.390625 C 209.339844 79.558594 205.960938 82.9375 201.800781 82.9375 C 197.632812 82.9375 194.257812 79.558594 194.257812 75.390625 Z M 219.691406 75.390625 C 219.691406 65.5 211.679688 57.480469 201.800781 57.480469 C 191.917969 57.480469 183.90625 65.5 183.90625 75.390625 C 183.90625 85.277344 191.917969 93.296875 201.800781 93.296875 C 211.679688 93.296875 219.691406 85.277344 219.691406 75.390625 "/>
<path style=" stroke:none;fill-rule:nonzero;fill:rgb(13.729858%,12.159729%,12.548828%);fill-opacity:1;" d="M 194.257812 75.390625 L 194.566406 75.390625 C 194.566406 73.386719 195.375 71.582031 196.683594 70.269531 C 197.996094 68.960938 199.800781 68.148438 201.800781 68.148438 C 203.796875 68.148438 205.601562 68.960938 206.914062 70.269531 C 208.222656 71.582031 209.03125 73.386719 209.03125 75.390625 C 209.03125 77.386719 208.222656 79.195312 206.914062 80.507812 C 205.601562 81.816406 203.796875 82.628906 201.800781 82.628906 C 199.800781 82.628906 197.996094 81.816406 196.683594 80.507812 C 195.375 79.195312 194.566406 77.386719 194.566406 75.390625 L 193.949219 75.390625 C 193.949219 79.726562 197.460938 83.246094 201.800781 83.246094 C 206.132812 83.246094 209.648438 79.726562 209.648438 75.390625 C 209.648438 71.050781 206.132812 67.53125 201.800781 67.53125 C 197.464844 67.53125 193.949219 71.050781 193.949219 75.390625 Z M 219.691406 75.390625 L 220 75.390625 C 220 65.328125 211.851562 57.171875 201.800781 57.171875 C 191.746094 57.171875 183.597656 65.328125 183.597656 75.390625 C 183.597656 85.449219 191.746094 93.605469 201.800781 93.605469 C 211.851562 93.605469 220 85.449219 220 75.390625 L 219.382812 75.390625 C 219.382812 80.25 217.414062 84.644531 214.230469 87.832031 C 211.050781 91.015625 206.65625 92.988281 201.800781 92.988281 C 196.945312 92.988281 192.550781 91.015625 189.367188 87.832031 C 186.183594 84.644531 184.21875 80.25 184.21875 75.390625 C 184.21875 70.527344 186.183594 66.128906 189.367188 62.945312 C 192.550781 59.757812 196.945312 57.789062 201.800781 57.789062 C 206.65625 57.789062 211.050781 59.757812 214.230469 62.945312 C 217.414062 66.128906 219.382812 70.527344 219.382812 75.390625 L 219.691406 75.390625 "/>
</g>
</svg>
