<?xml version="1.0" encoding="UTF-8"?>
<svg xmlns="http://www.w3.org/2000/svg" xmlns:xlink="http://www.w3.org/1999/xlink" width="224.87999pt" height="225pt" viewBox="0 0 224.87999 225" version="1.2">
<defs>
<clipPath id="clip1">
  <path d="M 0 0.0585938 L 224.761719 0.0585938 L 224.761719 224.9375 L 0 224.9375 Z M 0 0.0585938 "/>
</clipPath>
</defs>
<g id="surface1">
<g clip-path="url(#clip1)" clip-rule="nonzero">
<path style=" stroke:none;fill-rule:nonzero;fill:rgb(81.959534%,81.959534%,81.959534%);fill-opacity:1;" d="M 112.441406 -0.0546875 C 50.285156 -0.0546875 -0.113281 50.34375 -0.113281 112.5 C -0.113281 174.65625 50.285156 225.0625 112.441406 225.0625 C 174.597656 225.0625 225.003906 174.65625 225.003906 112.5 C 225.003906 50.34375 174.597656 -0.0546875 112.441406 -0.0546875 Z M 135.871094 174.390625 C 130.078125 176.675781 125.464844 178.410156 122.007812 179.613281 C 118.558594 180.8125 114.546875 181.414062 109.980469 181.414062 C 102.96875 181.414062 97.507812 179.695312 93.621094 176.277344 C 89.734375 172.855469 87.796875 168.519531 87.796875 163.25 C 87.796875 161.203125 87.941406 159.105469 88.226562 156.972656 C 88.523438 154.835938 88.988281 152.433594 89.628906 149.738281 L 96.878906 124.125 C 97.519531 121.667969 98.070312 119.332031 98.507812 117.160156 C 98.945312 114.96875 99.15625 112.957031 99.15625 111.128906 C 99.15625 107.867188 98.480469 105.582031 97.136719 104.296875 C 95.773438 103.007812 93.210938 102.378906 89.390625 102.378906 C 87.523438 102.378906 85.597656 102.65625 83.625 103.238281 C 81.671875 103.839844 79.976562 104.382812 78.585938 104.914062 L 80.5 97.023438 C 85.246094 95.089844 89.789062 93.433594 94.125 92.0625 C 98.460938 90.667969 102.558594 89.984375 106.417969 89.984375 C 113.382812 89.984375 118.757812 91.679688 122.539062 95.035156 C 126.304688 98.398438 128.199219 102.769531 128.199219 108.144531 C 128.199219 109.261719 128.066406 111.222656 127.808594 114.023438 C 127.550781 116.835938 127.066406 119.398438 126.363281 121.753906 L 119.148438 147.289062 C 118.558594 149.339844 118.035156 151.683594 117.558594 154.304688 C 117.089844 156.921875 116.863281 158.925781 116.863281 160.269531 C 116.863281 163.660156 117.613281 165.976562 119.140625 167.203125 C 120.644531 168.433594 123.285156 169.054688 127.019531 169.054688 C 128.78125 169.054688 130.753906 168.738281 132.984375 168.128906 C 135.195312 167.519531 136.796875 166.976562 137.804688 166.507812 Z M 134.59375 70.734375 C 131.230469 73.859375 127.179688 75.421875 122.445312 75.421875 C 117.71875 75.421875 113.640625 73.859375 110.25 70.734375 C 106.875 67.609375 105.167969 63.808594 105.167969 59.367188 C 105.167969 54.9375 106.882812 51.125 110.25 47.972656 C 113.640625 44.808594 117.71875 43.234375 122.445312 43.234375 C 127.179688 43.234375 131.242188 44.808594 134.59375 47.972656 C 137.957031 51.125 139.644531 54.9375 139.644531 59.367188 C 139.644531 63.816406 137.957031 67.609375 134.59375 70.734375 Z M 134.59375 70.734375 "/>
</g>
</g>
</svg>
