<?xml version="1.0" encoding="UTF-8"?>
<svg xmlns="http://www.w3.org/2000/svg" xmlns:xlink="http://www.w3.org/1999/xlink" width="224.87999pt" height="149.999998pt" viewBox="0 0 224.87999 149.999998" version="1.2">
<defs>
<clipPath id="clip1">
  <path d="M 131 7 L 219.914062 7 L 219.914062 76 L 131 76 Z M 131 7 "/>
</clipPath>
<clipPath id="clip2">
  <path d="M 131 6 L 219.914062 6 L 219.914062 76 L 131 76 Z M 131 6 "/>
</clipPath>
<clipPath id="clip3">
  <path d="M 115 0.0390625 L 144 0.0390625 L 144 24 L 115 24 Z M 115 0.0390625 "/>
</clipPath>
<clipPath id="clip4">
  <path d="M 114 0.0390625 L 144 0.0390625 L 144 24 L 114 24 Z M 114 0.0390625 "/>
</clipPath>
<clipPath id="clip5">
  <path d="M 131 75 L 219.914062 75 L 219.914062 143 L 131 143 Z M 131 75 "/>
</clipPath>
<clipPath id="clip6">
  <path d="M 131 74 L 219.914062 74 L 219.914062 144 L 131 144 Z M 131 74 "/>
</clipPath>
<clipPath id="clip7">
  <path d="M 115 126 L 144 126 L 144 149.957031 L 115 149.957031 Z M 115 126 "/>
</clipPath>
<clipPath id="clip8">
  <path d="M 114 126 L 144 126 L 144 149.957031 L 114 149.957031 Z M 114 126 "/>
</clipPath>
<clipPath id="clip9">
  <path d="M 4.964844 57 L 42 57 L 42 94 L 4.964844 94 Z M 4.964844 57 "/>
</clipPath>
</defs>
<g id="surface1">
<path style=" stroke:none;fill-rule:nonzero;fill:rgb(81.959534%,81.959534%,81.959534%);fill-opacity:1;" d="M 201.25 80.980469 L 201.25 69.796875 L 37.617188 69.796875 L 37.617188 80.980469 L 201.25 80.980469 "/>
<path style=" stroke:none;fill-rule:nonzero;fill:rgb(81.959534%,81.959534%,81.959534%);fill-opacity:1;" d="M 201.25 80.980469 L 200.941406 80.980469 L 200.941406 70.105469 L 37.925781 70.105469 L 37.925781 80.671875 L 201.25 80.671875 L 201.25 80.980469 L 200.941406 80.980469 L 201.25 80.980469 L 201.25 81.292969 L 37.308594 81.292969 L 37.308594 69.488281 L 201.558594 69.488281 L 201.558594 81.292969 L 201.25 81.292969 L 201.25 80.980469 "/>
<path style=" stroke:none;fill-rule:nonzero;fill:rgb(81.959534%,81.959534%,81.959534%);fill-opacity:1;" d="M 201.25 75.390625 L 201.25 69.796875 L 37.617188 69.796875 L 37.617188 75.390625 L 201.25 75.390625 "/>
<path style=" stroke:none;fill-rule:nonzero;fill:rgb(81.959534%,81.959534%,81.959534%);fill-opacity:1;" d="M 201.25 75.390625 L 200.941406 75.390625 L 200.941406 70.105469 L 37.925781 70.105469 L 37.925781 75.078125 L 201.25 75.078125 L 201.25 75.390625 L 200.941406 75.390625 L 201.25 75.390625 L 201.25 75.699219 L 37.308594 75.699219 L 37.308594 69.488281 L 201.558594 69.488281 L 201.558594 75.699219 L 201.25 75.699219 L 201.25 75.390625 "/>
<g clip-path="url(#clip1)" clip-rule="nonzero">
<path style=" stroke:none;fill-rule:nonzero;fill:rgb(81.959534%,81.959534%,81.959534%);fill-opacity:1;" d="M 150.253906 75.015625 C 157.160156 73.308594 184.535156 65.980469 182.242188 57.480469 C 178.277344 42.804688 170.09375 23.535156 151.449219 17.417969 C 138.25 13.085938 131.601562 12.007812 131.601562 12.007812 L 131.601562 7.28125 C 131.601562 7.28125 141.980469 7.863281 157.546875 12.25 C 191.40625 21.785156 217.003906 70.480469 219.324219 75.015625 L 150.253906 75.015625 "/>
</g>
<g clip-path="url(#clip2)" clip-rule="nonzero">
<path style=" stroke:none;fill-rule:nonzero;fill:rgb(81.959534%,81.959534%,81.959534%);fill-opacity:1;" d="M 150.253906 75.015625 L 150.179688 74.714844 C 153.488281 73.898438 161.507812 71.785156 168.683594 68.878906 C 172.273438 67.425781 175.648438 65.773438 178.109375 63.996094 C 179.339844 63.109375 180.335938 62.191406 181.019531 61.269531 C 181.703125 60.339844 182.070312 59.417969 182.070312 58.496094 C 182.070312 58.183594 182.027344 57.875 181.941406 57.558594 C 179.964844 50.242188 176.9375 41.785156 172.09375 34.410156 C 167.246094 27.03125 160.597656 20.746094 151.355469 17.710938 C 144.761719 15.550781 139.804688 14.199219 136.503906 13.390625 C 134.847656 12.984375 133.609375 12.714844 132.785156 12.546875 C 132.371094 12.464844 132.0625 12.40625 131.855469 12.367188 C 131.652344 12.328125 131.550781 12.3125 131.550781 12.3125 L 131.292969 12.269531 L 131.292969 6.957031 L 131.617188 6.976562 C 131.632812 6.976562 142.039062 7.558594 157.628906 11.949219 C 174.671875 16.757812 189.5625 31.363281 200.503906 45.316406 C 211.449219 59.273438 218.433594 72.59375 219.601562 74.875 L 219.828125 75.324219 L 147.714844 75.324219 L 150.179688 74.714844 L 150.253906 75.015625 L 150.253906 74.703125 L 219.324219 74.703125 L 219.324219 75.015625 L 219.050781 75.15625 C 217.894531 72.898438 210.921875 59.605469 200.019531 45.695312 C 189.121094 31.789062 174.28125 17.277344 157.460938 12.546875 C 149.695312 10.355469 143.222656 9.117188 138.691406 8.425781 C 136.425781 8.082031 134.644531 7.871094 133.4375 7.75 C 132.828125 7.6875 132.363281 7.648438 132.050781 7.625 C 131.742188 7.601562 131.582031 7.589844 131.582031 7.589844 L 131.601562 7.28125 L 131.910156 7.28125 L 131.910156 12.007812 L 131.601562 12.007812 L 131.648438 11.703125 C 131.664062 11.703125 138.332031 12.789062 151.546875 17.125 C 160.949219 20.207031 167.710938 26.613281 172.609375 34.070312 C 177.507812 41.527344 180.550781 50.042969 182.539062 57.398438 C 182.636719 57.765625 182.6875 58.128906 182.6875 58.496094 C 182.6875 59.585938 182.253906 60.636719 181.519531 61.636719 C 180.226562 63.382812 177.996094 64.992188 175.289062 66.480469 C 167.171875 70.933594 154.691406 74.234375 150.332031 75.3125 L 150.253906 75.015625 L 150.253906 74.703125 L 150.253906 75.015625 "/>
</g>
<g clip-path="url(#clip3)" clip-rule="nonzero">
<path style=" stroke:none;fill-rule:nonzero;fill:rgb(81.959534%,81.959534%,81.959534%);fill-opacity:1;" d="M 139.375 23.160156 L 137.695312 11.25 L 143.136719 0.519531 L 115.152344 7.492188 L 139.375 23.160156 "/>
</g>
<g clip-path="url(#clip4)" clip-rule="nonzero">
<path style=" stroke:none;fill-rule:nonzero;fill:rgb(81.959534%,81.959534%,81.959534%);fill-opacity:1;" d="M 139.375 23.160156 L 139.066406 23.203125 L 137.378906 11.195312 L 142.554688 0.984375 L 115.917969 7.621094 L 139.542969 22.898438 L 139.375 23.160156 L 139.066406 23.203125 L 139.375 23.160156 L 139.207031 23.417969 L 114.382812 7.363281 L 143.71875 0.0546875 L 138.015625 11.300781 L 139.773438 23.789062 L 139.207031 23.417969 L 139.375 23.160156 "/>
</g>
<path style=" stroke:none;fill-rule:nonzero;fill:rgb(81.959534%,81.959534%,81.959534%);fill-opacity:1;" d="M 137.078125 20.390625 L 135.746094 10.925781 L 117.832031 7.941406 Z M 137.078125 20.390625 "/>
<path style=" stroke:none;fill-rule:nonzero;fill:rgb(81.959534%,81.959534%,81.959534%);fill-opacity:1;" d="M 137.078125 20.390625 L 136.773438 20.433594 L 135.472656 11.191406 L 119.25 8.492188 L 137.25 20.128906 L 137.078125 20.390625 L 136.773438 20.433594 L 137.078125 20.390625 L 136.914062 20.648438 L 116.410156 7.390625 L 136.023438 10.65625 L 137.480469 21.015625 L 136.914062 20.648438 L 137.078125 20.390625 "/>
<g clip-path="url(#clip5)" clip-rule="nonzero">
<path style=" stroke:none;fill-rule:nonzero;fill:rgb(81.959534%,81.959534%,81.959534%);fill-opacity:1;" d="M 150.253906 75.015625 C 157.160156 76.71875 184.535156 84.046875 182.242188 92.550781 C 178.277344 107.226562 170.09375 126.496094 151.449219 132.613281 C 138.25 136.945312 131.601562 138.023438 131.601562 138.023438 L 131.601562 142.746094 C 131.601562 142.746094 141.980469 142.164062 157.546875 137.785156 C 191.40625 128.242188 217.003906 79.546875 219.324219 75.015625 L 150.253906 75.015625 "/>
</g>
<g clip-path="url(#clip6)" clip-rule="nonzero">
<path style=" stroke:none;fill-rule:nonzero;fill:rgb(81.959534%,81.959534%,81.959534%);fill-opacity:1;" d="M 150.253906 75.015625 L 150.332031 74.714844 C 153.652344 75.535156 161.691406 77.648438 168.917969 80.574219 C 172.53125 82.039062 175.941406 83.707031 178.46875 85.527344 C 179.734375 86.441406 180.777344 87.394531 181.519531 88.390625 C 182.253906 89.386719 182.6875 90.441406 182.6875 91.53125 C 182.6875 91.898438 182.636719 92.261719 182.539062 92.625 C 180.550781 99.988281 177.507812 108.503906 172.609375 115.960938 C 167.710938 123.417969 160.949219 129.820312 151.546875 132.90625 C 138.332031 137.242188 131.664062 138.324219 131.648438 138.328125 L 131.601562 138.023438 L 131.910156 138.023438 L 131.910156 142.746094 L 131.601562 142.746094 L 131.582031 142.4375 C 131.582031 142.4375 131.742188 142.425781 132.050781 142.402344 C 134.238281 142.234375 143.867188 141.3125 157.460938 137.488281 C 174.28125 132.753906 189.121094 118.242188 200.019531 104.328125 C 210.921875 90.421875 217.894531 77.128906 219.050781 74.875 L 219.324219 75.015625 L 219.324219 75.324219 L 150.253906 75.324219 L 150.253906 75.015625 L 150.332031 74.714844 L 150.253906 75.015625 L 150.253906 74.703125 L 219.828125 74.703125 L 219.601562 75.15625 C 218.433594 77.433594 211.449219 90.753906 200.503906 104.710938 C 189.5625 118.667969 174.671875 133.273438 157.628906 138.082031 C 142.039062 142.46875 131.632812 143.054688 131.617188 143.054688 L 131.292969 143.074219 L 131.292969 137.761719 L 131.550781 137.71875 C 131.550781 137.71875 131.652344 137.703125 131.855469 137.667969 C 133.296875 137.402344 139.816406 136.105469 151.355469 132.316406 C 160.59375 129.285156 167.246094 122.996094 172.09375 115.621094 C 176.9375 108.246094 179.964844 99.789062 181.941406 92.46875 C 182.027344 92.152344 182.070312 91.839844 182.070312 91.53125 C 182.070312 90.609375 181.703125 89.683594 181.019531 88.757812 C 179.828125 87.140625 177.660156 85.550781 174.992188 84.089844 C 166.988281 79.695312 154.515625 76.382812 150.179688 75.3125 L 147.714844 74.703125 L 150.253906 74.703125 L 150.253906 75.015625 "/>
</g>
<g clip-path="url(#clip7)" clip-rule="nonzero">
<path style=" stroke:none;fill-rule:nonzero;fill:rgb(81.959534%,81.959534%,81.959534%);fill-opacity:1;" d="M 139.375 126.871094 L 137.695312 138.777344 L 143.136719 149.507812 L 115.152344 142.535156 L 139.375 126.871094 "/>
</g>
<g clip-path="url(#clip8)" clip-rule="nonzero">
<path style=" stroke:none;fill-rule:nonzero;fill:rgb(81.959534%,81.959534%,81.959534%);fill-opacity:1;" d="M 139.375 126.871094 L 139.679688 126.914062 L 138.015625 138.726562 L 143.71875 149.972656 L 114.382812 142.664062 L 139.773438 126.242188 L 139.679688 126.914062 L 139.375 126.871094 L 139.542969 127.128906 L 115.917969 142.410156 L 142.554688 149.046875 L 137.378906 138.832031 L 139.066406 126.828125 L 139.375 126.871094 L 139.542969 127.128906 L 139.375 126.871094 "/>
</g>
<path style=" stroke:none;fill-rule:nonzero;fill:rgb(81.959534%,81.959534%,81.959534%);fill-opacity:1;" d="M 137.808594 129.957031 L 136.613281 138.417969 L 119.433594 141.585938 Z M 137.808594 129.957031 "/>
<path style=" stroke:none;fill-rule:nonzero;fill:rgb(81.959534%,81.959534%,81.959534%);fill-opacity:1;" d="M 137.808594 129.957031 L 138.109375 130.003906 L 136.886719 138.679688 L 117.914062 142.179688 L 138.207031 129.339844 L 138.109375 130.003906 L 137.808594 129.957031 L 137.972656 130.21875 L 120.953125 140.992188 L 136.339844 138.152344 L 137.5 129.914062 L 137.808594 129.957031 L 137.972656 130.21875 L 137.808594 129.957031 "/>
<path style=" stroke:none;fill-rule:nonzero;fill:rgb(81.959534%,81.959534%,81.959534%);fill-opacity:1;" d="M 58.675781 95.535156 C 61.457031 95.535156 63.710938 93.867188 63.710938 91.804688 L 63.710938 58.976562 C 63.710938 56.914062 61.457031 55.246094 58.675781 55.246094 C 55.898438 55.246094 53.644531 56.914062 53.644531 58.976562 L 53.644531 91.804688 C 53.644531 93.867188 55.898438 95.535156 58.675781 95.535156 "/>
<path style=" stroke:none;fill-rule:nonzero;fill:rgb(81.959534%,81.959534%,81.959534%);fill-opacity:1;" d="M 58.675781 95.535156 L 58.675781 95.226562 C 60.003906 95.226562 61.199219 94.824219 62.050781 94.195312 C 62.902344 93.558594 63.402344 92.714844 63.402344 91.804688 L 63.402344 58.976562 C 63.402344 58.0625 62.902344 57.21875 62.050781 56.585938 C 61.199219 55.953125 60.003906 55.554688 58.675781 55.554688 C 57.347656 55.554688 56.152344 55.953125 55.304688 56.585938 C 54.453125 57.21875 53.953125 58.0625 53.953125 58.976562 L 53.953125 91.804688 C 53.953125 92.714844 54.453125 93.5625 55.304688 94.195312 C 56.152344 94.824219 57.347656 95.226562 58.675781 95.226562 L 58.675781 95.847656 C 57.226562 95.84375 55.90625 95.410156 54.933594 94.691406 C 53.964844 93.976562 53.335938 92.953125 53.335938 91.804688 L 53.335938 58.976562 C 53.335938 57.828125 53.964844 56.804688 54.9375 56.085938 C 55.90625 55.371094 57.226562 54.9375 58.675781 54.9375 C 60.128906 54.9375 61.449219 55.371094 62.421875 56.085938 C 63.390625 56.804688 64.019531 57.828125 64.019531 58.976562 L 64.019531 91.804688 C 64.019531 92.953125 63.390625 93.976562 62.421875 94.691406 C 61.449219 95.410156 60.128906 95.84375 58.675781 95.847656 L 58.675781 95.535156 "/>
<path style=" stroke:none;fill-rule:nonzero;fill:rgb(81.959534%,81.959534%,81.959534%);fill-opacity:1;" d="M 58.140625 94.472656 C 56.257812 94.28125 54.789062 92.792969 54.789062 90.96875 L 54.789062 59.808594 C 54.789062 57.984375 56.257812 56.5 58.140625 56.308594 L 58.140625 94.472656 "/>
<path style=" stroke:none;fill-rule:nonzero;fill:rgb(81.959534%,81.959534%,81.959534%);fill-opacity:1;" d="M 58.140625 94.472656 L 58.109375 94.78125 C 56.082031 94.574219 54.480469 92.96875 54.476562 90.96875 L 54.476562 59.808594 C 54.480469 57.808594 56.082031 56.203125 58.109375 56 L 58.449219 55.964844 L 58.449219 94.816406 L 58.109375 94.78125 L 58.140625 94.472656 L 57.832031 94.472656 L 57.832031 56.308594 L 58.140625 56.308594 L 58.171875 56.617188 C 56.429688 56.796875 55.09375 58.160156 55.097656 59.808594 L 55.097656 90.96875 C 55.09375 92.621094 56.433594 93.984375 58.171875 94.167969 L 58.140625 94.472656 L 57.832031 94.472656 L 58.140625 94.472656 "/>
<path style=" stroke:none;fill-rule:nonzero;fill:rgb(81.959534%,81.959534%,81.959534%);fill-opacity:1;" d="M 30.621094 75.390625 C 30.621094 71.21875 27.246094 67.839844 23.082031 67.839844 C 18.917969 67.839844 15.539062 71.21875 15.539062 75.390625 C 15.539062 79.558594 18.917969 82.9375 23.082031 82.9375 C 27.246094 82.9375 30.621094 79.558594 30.621094 75.390625 Z M 5.1875 75.390625 C 5.1875 65.5 13.199219 57.480469 23.082031 57.480469 C 32.960938 57.480469 40.972656 65.5 40.972656 75.390625 C 40.972656 85.277344 32.960938 93.296875 23.082031 93.296875 C 13.199219 93.296875 5.1875 85.277344 5.1875 75.390625 "/>
<g clip-path="url(#clip9)" clip-rule="nonzero">
<path style=" stroke:none;fill-rule:nonzero;fill:rgb(81.959534%,81.959534%,81.959534%);fill-opacity:1;" d="M 30.621094 75.390625 L 30.3125 75.390625 C 30.3125 73.386719 29.503906 71.582031 28.195312 70.269531 C 26.882812 68.960938 25.078125 68.148438 23.082031 68.148438 C 21.082031 68.148438 19.277344 68.960938 17.964844 70.269531 C 16.65625 71.582031 15.847656 73.386719 15.847656 75.390625 C 15.847656 77.386719 16.65625 79.195312 17.964844 80.507812 C 19.277344 81.816406 21.082031 82.628906 23.082031 82.628906 C 25.078125 82.628906 26.882812 81.816406 28.195312 80.507812 C 29.503906 79.195312 30.3125 77.386719 30.3125 75.390625 L 30.929688 75.390625 C 30.929688 79.726562 27.417969 83.246094 23.082031 83.246094 C 18.746094 83.246094 15.230469 79.726562 15.230469 75.390625 C 15.230469 71.050781 18.746094 67.53125 23.082031 67.53125 C 27.414062 67.53125 30.929688 71.050781 30.929688 75.390625 Z M 5.1875 75.390625 L 4.878906 75.390625 C 4.878906 65.328125 13.027344 57.171875 23.082031 57.171875 C 33.132812 57.171875 41.28125 65.328125 41.28125 75.390625 C 41.28125 85.449219 33.132812 93.605469 23.082031 93.605469 C 13.027344 93.605469 4.878906 85.449219 4.878906 75.390625 L 5.496094 75.390625 C 5.496094 80.25 7.464844 84.644531 10.648438 87.832031 C 13.828125 91.015625 18.222656 92.988281 23.082031 92.988281 C 27.9375 92.988281 32.328125 91.015625 35.511719 87.832031 C 38.695312 84.644531 40.664062 80.25 40.664062 75.390625 C 40.664062 70.527344 38.695312 66.128906 35.511719 62.945312 C 32.328125 59.757812 27.9375 57.789062 23.082031 57.789062 C 18.222656 57.789062 13.828125 59.757812 10.648438 62.945312 C 7.464844 66.128906 5.496094 70.527344 5.496094 75.390625 L 5.1875 75.390625 "/>
</g>
</g>
</svg>
