<svg xmlns="http://www.w3.org/2000/svg" viewBox="0 0 101.91 140.67"><path d="M34.26,140.67q-14.83-1.66-24.11-10Q0,121.73,0,107.48T10.93,88.54a18.12,18.12,0,0,1,7.23-1.47,20.86,20.86,0,0,1,6.78,1,15.46,15.46,0,0,1,5.22,3q4.79,4.2,4.79,11.71,0,8.79-9.47,14.94a27.87,27.87,0,0,1-5,2.53q.59,2.55,4.15,4.93a20.63,20.63,0,0,0,9.61,3ZM43,128.17q12.11-2.43,12.11-15.91V18.74q0-6.24-4.59-8.3A26,26,0,0,0,45.54,9a51.09,51.09,0,0,1-6.1-1.66V0h62.47V7.32A39.49,39.49,0,0,1,96.45,9a24.1,24.1,0,0,0-4.59,1.46q-4.39,2.06-4.4,8.3v82.88q0,29.38-25.67,36.51A81.52,81.52,0,0,1,43,140.67Z"/></svg>