<svg xmlns="http://www.w3.org/2000/svg" viewBox="0 0 27.78 30.91"><path d="M13.17,30.91a12.68,12.68,0,0,1-9.73-4.83A16.19,16.19,0,0,1,0,15.56,16.81,16.81,0,0,1,3.38,4.93,12.38,12.38,0,0,1,13,0V2.69Q8.74,3.37,8,11q-.21,2.21-.21,4.53A43.56,43.56,0,0,0,8,20.06,18.2,18.2,0,0,0,8.82,24q1.32,3.78,4.35,4.24ZM20,15.56Q20,3.43,14.82,2.69V0A12.35,12.35,0,0,1,24.4,4.93a16.89,16.89,0,0,1,3.38,10.63,16.7,16.7,0,0,1-3.32,10.52A12.2,12.2,0,0,1,15,30.91V28.22q4.05-.55,4.75-8.15C19.9,18.62,20,17.11,20,15.56Z"/></svg>