<svg xmlns="http://www.w3.org/2000/svg" viewBox="0 0 303.57 85.47"><path d="M113,1.8V73.21q0,3.6,2.61,4.88a12.23,12.23,0,0,0,2.7.9,18.64,18.64,0,0,1,3.05,1v4.3H85.57v-4.3a18.64,18.64,0,0,1,3.05-1,11.07,11.07,0,0,0,2.64-.9q2.61-1.28,2.61-4.88V12.94q0-3.66-2.61-4.93a11.07,11.07,0,0,0-2.64-.9,18.71,18.71,0,0,1-3.05-1V1.8Zm47.4,75q-4.82,8.66-16,8.65-10,0-14.21-9.46a62.79,62.79,0,0,1-3.31-9.83q-1.39-5.49-2.44-8.44-2.37-6.79-6.26-9.75V39.45q6.9-.64,9.86-3.71Q131.52,32,131.52,24q0-9.1-3.19-12.77-3-3.48-10.15-3.82V1.8H125Q138.6,1.8,145.79,8q6.5,5.57,6.5,14.79,0,13.92-14.45,18.51a40.65,40.65,0,0,1-10.55,1.79v.53q5.38.87,7.83,2.55a24.24,24.24,0,0,1,8.47,11.2q1,2.49,2,5.1t1.88,5.11a36.86,36.86,0,0,0,2,4.46c1.54,2.91,3.13,4.36,4.75,4.36A2.68,2.68,0,0,0,156.38,75,17.34,17.34,0,0,1,158,72.9a2,2,0,0,1,1.46-.67,4.35,4.35,0,0,1,1,.06Z"/><path d="M178.88,42.29q0,32.55,14.21,35.68V85.4Q177,84.7,167,72.81q-9.69-11.72-9.68-29.71,0-18.62,10.15-30.86a35,35,0,0,1,11.37-9A31.51,31.51,0,0,1,193.09,0V7.43q-11.43,1.79-13.51,21.23A120.38,120.38,0,0,0,178.88,42.29ZM198.26,0a28.08,28.08,0,0,1,8,2.26C208.48,3.31,210,4,210.76,4.47a4.49,4.49,0,0,0,2,.63,1.7,1.7,0,0,0,1.42-.92,21,21,0,0,0,1.31-2.38H221V31.73h-4.41A35,35,0,0,1,213.22,25c-1.27-3.16-2.33-5.6-3.16-7.34a27.58,27.58,0,0,0-2.87-4.76,13.24,13.24,0,0,0-8.93-5.45Zm0,78A16.09,16.09,0,0,0,210,73.33q5.73-5.68,6.61-18.8l6.67,2.27q-1.62,19.36-13.86,25.93a25.59,25.59,0,0,1-11.14,2.67Z"/><path d="M253.21,32.26,240.16,69.62a13.5,13.5,0,0,0-.93,4.35,3.59,3.59,0,0,0,1,2.7,7,7,0,0,0,2.46,1.51,29.37,29.37,0,0,0,3.16.95A13.82,13.82,0,0,1,249,80.29v3.95H221.19V80.29a11.3,11.3,0,0,1,2.52-1.22,17.31,17.31,0,0,0,2.76-1.21,11.69,11.69,0,0,0,4.87-6.33l18-49.54Zm-1-17.93-8.36-2.55c.23-1.63.39-3.09.47-4.38a20.6,20.6,0,0,1,.46-3.46q5-2.25,16.77-3.71A27.43,27.43,0,0,1,264.82,0a12.78,12.78,0,0,1,2.08,3.31L293.76,71a17.53,17.53,0,0,0,4,6.59,9.34,9.34,0,0,0,5.77,2.4v4.3H266.5V80.58a12.11,12.11,0,0,1,3-1.3c1-.29,2-.57,2.81-.84,1.86-.54,2.78-1.51,2.78-2.9a13.17,13.17,0,0,0-1.1-4Zm11.42,45.19H249.38l1.92-6.15h10Z"/><path d="M67.41,13.63Q57.56.86,41,0H35.79Q19.32.81,9.34,13.63,0,25.65,0,43T9.51,72.05Q19.6,84.65,36.38,85.4v0a35.55,35.55,0,0,0,5.16,0v0q16.37-.87,26.05-13.35Q76.76,60.22,76.75,43T67.41,13.63Z"/></svg>