<svg xmlns="http://www.w3.org/2000/svg" viewBox="0 0 89.08 537.1"><path d="M32.14,72.13q-1.23,3.63,1,4.92a9,9,0,0,0,2.59.91,19.42,19.42,0,0,1,3.21,1L37.5,83.26H0l1.47-4.33a28.72,28.72,0,0,1,3.7-1,16.4,16.4,0,0,0,3.15-.91,7.63,7.63,0,0,0,4.37-4.92L33.38,11.25c.84-2.46.5-4.12-1-5a9.18,9.18,0,0,0-2.54-.91,17,17,0,0,1-3-1L28.3,0H56.66ZM48.29,40a18.92,18.92,0,0,0,10.77-4.45q4.59-4,7.47-12.48Q71,9.78,64.46,6.85a13.64,13.64,0,0,0-4.56-1l2-5.8h5.57Q81.62,0,86.59,6.39q4.5,5.75.87,16.4-6.1,18-25.1,21.8a74.35,74.35,0,0,1-14.13,1.23H46.3Z"/><path d="M45.76,122.85,26.91,178.3H8.45l1-2.89a16.29,16.29,0,0,1,2.26-.64,9.55,9.55,0,0,0,2-.6,5.1,5.1,0,0,0,2.87-3.28l13.78-40.55c.56-1.64.35-2.74-.63-3.32a5.53,5.53,0,0,0-1.57-.6,9.5,9.5,0,0,1-1.83-.64l1-2.93Zm-14,51.55c1.27.1,2.9.16,4.9.16a17.61,17.61,0,0,0,5.73-.94,18.18,18.18,0,0,0,4.72-2.4A18.9,18.9,0,0,0,50.52,168c1-1.2,1.88-2.37,2.69-3.53s1.59-2.22,2.35-3.2A8.78,8.78,0,0,1,58.11,159h2.66L54.19,178.3H30.38Zm9.89-29.11h13l-3.4,10h-13Zm17.45-15.75a6.49,6.49,0,0,0-2.69-2.12,10.68,10.68,0,0,0-4.5-.82c-1.82,0-3.14,0-3.94.11l1.31-3.86h8.82a102.93,102.93,0,0,0,13-.59l-6.42,18.89H61.86a5.06,5.06,0,0,1-.83-2.38c-.12-1-.22-2-.31-3.06a30,30,0,0,0-.44-3.24A7.27,7.27,0,0,0,59.05,129.54Z"/><path d="M52.25,210.11h8.61l-1,3.11L25.15,251.74H17.07l1.49-4.39Zm-21.93,38.5,3.34-.18q7.08-.37,10.87-4.48,1.17-1.29,3-3.68a24.45,24.45,0,0,1,3.05-3.41h2.08l-5.06,14.88H27.5ZM33,209.67a53.41,53.41,0,0,0,7.27.44h9.69l-2.53,2.81h-.76q-6.78,0-10.68,3.75a26.85,26.85,0,0,0-3.27,3.83c-1,1.39-1.78,2.45-2.39,3.18H28.22Z"/><path d="M35.12,330.34l-10.4,15.1a7.63,7.63,0,0,0-1,1.75,1.23,1.23,0,0,0,0,1.09,1.76,1.76,0,0,0,.79.61,8.15,8.15,0,0,0,1.15.39,4.26,4.26,0,0,1,1.11.47l-.55,1.59H15.05l.54-1.59a6.48,6.48,0,0,1,1.19-.49,12.26,12.26,0,0,0,1.28-.49,7.71,7.71,0,0,0,2.83-2.56l14.09-20Zm.48,11H29.83l1.62-2.49H35.5Zm1.58-18.26-3-1c.32-.66.58-1.25.79-1.77a12.27,12.27,0,0,1,.66-1.4,33.09,33.09,0,0,1,7.28-1.5,12.15,12.15,0,0,1,1.35-.09,3.67,3.67,0,0,1,.39,1.34L46.19,346a4.85,4.85,0,0,0,.73,2.66,2.62,2.62,0,0,0,2,1l-.59,1.73h-15l.5-1.47a7,7,0,0,1,1.39-.53l1.25-.34A2,2,0,0,0,38,347.83a5,5,0,0,0,.1-1.62Z"/><path d="M28.36,405.58h-9.3l.5-1.45a8.55,8.55,0,0,1,1.13-.32,5.48,5.48,0,0,0,1-.3,2.6,2.6,0,0,0,1.42-1.65L30,381.53c.28-.82.18-1.38-.3-1.66a3.34,3.34,0,0,0-.81-.31,4.71,4.71,0,0,1-.91-.32l.5-1.47h9.29Zm7.07-15.67a7,7,0,0,0,7.24-5.17c.83-2.47.44-4-1.19-4.74a4.08,4.08,0,0,0-1.53-.35h-.82l-.22,0,.64-1.9h3.37q4.65,0,6.29,1.74t.55,4.92a8.2,8.2,0,0,1-3.52,4.36,13.08,13.08,0,0,1-5.48,1.84l0,.08c2.42.08,4.19.69,5.33,1.84s1.49,3,.73,5.26a10.22,10.22,0,0,1-4.48,5.48,16.62,16.62,0,0,1-9,2.29H30.1l.73-2.15a4.66,4.66,0,0,0,1,.08q5.82,0,7.76-5.7t-4.91-5.69Z"/><path d="M35.62,423.15a3.7,3.7,0,0,0,.33-1.74.89.89,0,0,0-.32-.48,2.52,2.52,0,0,0-.44-.16l-.51-.14a1.22,1.22,0,0,1-.51-.25l.43-1.24H44.83l-.42,1.24a2.31,2.31,0,0,1-.67.25l-.59.14a3.46,3.46,0,0,0-.54.16,1.57,1.57,0,0,0-.5.35,4.85,4.85,0,0,0-1,1.87l-5.31,15.64a3.68,3.68,0,0,0-.34,1.75.84.84,0,0,0,.32.48,2.24,2.24,0,0,0,.44.17,2.79,2.79,0,0,1,1,.36l-.42,1.23H26.56l.42-1.23a7.18,7.18,0,0,1,1-.27,4.33,4.33,0,0,0,.84-.26,2.17,2.17,0,0,0,1.23-1.4Z"/><path d="M27.19,477.71c-.34,0-.72.27-1.13.82H24.67l2.44-7.17H28a1.9,1.9,0,0,1,.49,1.35c.07.69.13,1.25.2,1.68a4.44,4.44,0,0,0,.37,1.22,2.71,2.71,0,0,0,2.35,1.45l-.6,1.76a6.17,6.17,0,0,1-2.05-.45c-.54-.24-.91-.41-1.1-.51A1.15,1.15,0,0,0,27.19,477.71Zm5.47-.65a4.86,4.86,0,0,0,2.39-.88,3.76,3.76,0,0,0,1.38-1.82,2.71,2.71,0,0,0,.14-1.71,2.68,2.68,0,0,0-.8-1.11,6.63,6.63,0,0,0-1.36-.87l-1.65-.78c-.55-.26-1.09-.55-1.61-.86a4.61,4.61,0,0,1-1.29-1.09,3.5,3.5,0,0,1-.41-3.55,8.26,8.26,0,0,1,2.94-3.88,8.76,8.76,0,0,1,5.31-1.88l-.6,1.76a4.26,4.26,0,0,0-2,.71,2.94,2.94,0,0,0-1.18,1.48,2.06,2.06,0,0,0,0,1.46,2.64,2.64,0,0,0,.83,1,7.39,7.39,0,0,0,1.38.81l1.64.75a16.43,16.43,0,0,1,1.61.86,4.81,4.81,0,0,1,1.27,1.13,3.77,3.77,0,0,1,.37,3.69,9.33,9.33,0,0,1-3.13,4.38,9.77,9.77,0,0,1-5.75,2.14Zm6.26-18.43a5.11,5.11,0,0,1,2.32,1.1.6.6,0,0,0,.41.17.85.85,0,0,0,.52-.26l.65-.58h1.24l-2.26,6.65h-1a3.71,3.71,0,0,1-.35-1.38c-.07-.64-.14-1.16-.2-1.54a4.61,4.61,0,0,0-.29-1.06,2.14,2.14,0,0,0-1.58-1.34Z"/><path d="M33.3,498.64l-4.78,6.95a3.23,3.23,0,0,0-.45.8.59.59,0,0,0,0,.51.87.87,0,0,0,.36.28,5.52,5.52,0,0,0,.53.17,2,2,0,0,1,.51.22l-.25.73H24.07l.25-.73a3.25,3.25,0,0,1,.54-.23,5.37,5.37,0,0,0,.59-.22,3.51,3.51,0,0,0,1.3-1.18l6.49-9.21Zm.22,5.07H30.87l.74-1.14h1.87Zm.73-8.4-1.39-.47c.14-.31.26-.58.36-.82a5.47,5.47,0,0,1,.31-.64,14.67,14.67,0,0,1,3.35-.69,4.88,4.88,0,0,1,.61,0,1.51,1.51,0,0,1,.18.61l.72,12.57a2.26,2.26,0,0,0,.34,1.23,1.18,1.18,0,0,0,.92.44l-.27.8H32.49l.23-.68a3.51,3.51,0,0,1,.63-.24l.58-.16a.92.92,0,0,0,.7-.53,2.2,2.2,0,0,0,0-.75Z"/><path d="M31.5,537.1H27.77l.2-.58a3.14,3.14,0,0,1,.45-.13,2.09,2.09,0,0,0,.4-.12,1,1,0,0,0,.58-.66l2.77-8.16c.11-.33.07-.55-.13-.66a.88.88,0,0,0-.31-.13,1.82,1.82,0,0,1-.37-.13l.2-.59h4.91l-.2.59a4,4,0,0,1-.49.13,1.52,1.52,0,0,0-.41.13,1,1,0,0,0-.59.66Zm1-.76h.21A3.46,3.46,0,0,0,35.52,535c.19-.24.37-.47.53-.71l.46-.65a1.92,1.92,0,0,1,.49-.46h.53L36.2,537.1h-4Z"/></svg>