<?xml version="1.0" encoding="utf-8"?>
<!-- Generator: Adobe Illustrator 24.2.3, SVG Export Plug-In . SVG Version: 6.00 Build 0)  -->
<svg version="1.1" id="Capa_1" xmlns="http://www.w3.org/2000/svg" xmlns:xlink="http://www.w3.org/1999/xlink" x="0px" y="0px"
	 viewBox="0 0 60.1 32.2" style="enable-background:new 0 0 60.1 32.2;" xml:space="preserve">
<style type="text/css">
	.st0{fill:#FFFFFF;}
</style>
<g>
	<g>
		<path d="M10.4,31.8H0v-1.6c0.4-0.2,0.8-0.3,1.1-0.4c0.4-0.1,0.7-0.2,1-0.3c0.6-0.3,1-0.9,1-1.8V4.9c0-0.9-0.3-1.5-1-1.9
			c-0.3-0.1-0.6-0.3-1-0.3C0.8,2.6,0.4,2.5,0,2.3V0.7h10.4V31.8z M12.3,14.2c4.1,0,6.1-1.9,6.1-5.8c0-2.8-1-4.5-3.1-5.3
			c-0.7-0.3-1.3-0.4-1.8-0.4h-0.9c-0.1,0-0.2,0-0.2,0V0.7h3.8c3.5,0,6,0.6,7.7,1.9c1.7,1.3,2.5,3.1,2.5,5.5c0,2-0.8,3.7-2.3,4.9
			c-1.3,1.1-3.2,1.8-5.4,2.1v0.1c2.7,0.1,4.9,0.8,6.7,2.1c1.9,1.4,2.8,3.4,2.8,5.9c0,2.5-1,4.6-2.9,6.1c-2.1,1.7-5.2,2.6-9.2,2.6
			h-3.6v-2.4c0.2,0.1,0.6,0.1,1.1,0.1c4.3,0,6.5-2.1,6.5-6.4c0-4.2-2.6-6.4-7.7-6.4V14.2z"/>
		<path d="M44.9,32.2c-4.2-0.2-7.6-1.9-10.1-5c-2.4-2.9-3.6-6.6-3.6-11c0-4.4,1.2-8.1,3.5-11.1c2.5-3.2,5.8-4.9,10-5.1v2.8
			c-2.9,0.5-4.7,3.4-5.2,8.7c-0.1,1.5-0.2,3.1-0.2,4.7c0,1.6,0.1,3.2,0.2,4.7c0.2,1.5,0.4,2.9,0.8,4.1c0.9,2.6,2.4,4.1,4.5,4.4V32.2
			z M52,16.2c0-8.4-1.8-12.9-5.4-13.4V0c4.2,0.2,7.5,1.9,10,5.1c2.3,3,3.5,6.7,3.5,11.1c0,4.3-1.2,8-3.5,11c-2.4,3.1-5.7,4.8-9.8,5
			v-2.8c2.8-0.4,4.5-3.2,4.9-8.5C51.9,19.4,52,17.8,52,16.2z"/>
	</g>
</g>
</svg>
