<?xml version="1.0" encoding="UTF-8"?>
<svg xmlns="http://www.w3.org/2000/svg" xmlns:xlink="http://www.w3.org/1999/xlink" width="375pt" height="449.999984pt" viewBox="0 0 375 449.999984" version="1.2">
<defs>
<clipPath id="clip1">
  <path d="M 23.742188 85 L 180 85 L 180 450 L 23.742188 450 Z M 23.742188 85 "/>
</clipPath>
<clipPath id="clip2">
  <path d="M 198 85 L 351.492188 85 L 351.492188 450 L 198 450 Z M 198 85 "/>
</clipPath>
</defs>
<g id="surface1">
<g clip-path="url(#clip1)" clip-rule="nonzero">
<path style=" stroke:none;fill-rule:nonzero;fill:rgb(0%,0%,0%);fill-opacity:1;" d="M 179.136719 449.816406 C 131.386719 447.6875 93.101562 428.640625 64.425781 392.8125 C 37.347656 359.519531 23.742188 318.230469 23.742188 268.816406 C 23.742188 219.40625 37.082031 177.71875 63.625 143.492188 C 92.035156 107.128906 129.785156 87.683594 176.738281 85.421875 L 176.738281 117.121094 C 143.523438 122.445312 124.050781 155.210938 118.179688 215.675781 C 116.578125 232.992188 115.644531 250.839844 115.644531 269.085938 C 115.644531 287.332031 116.578125 305.042969 118.3125 322.09375 C 120.046875 339.140625 123.25 354.589844 127.917969 368.308594 C 138.320312 398.007812 155.394531 414.65625 179.269531 418.253906 L 179.269531 449.816406 Z M 179.136719 449.816406 "/>
</g>
<g clip-path="url(#clip2)" clip-rule="nonzero">
<path style=" stroke:none;fill-rule:nonzero;fill:rgb(0%,0%,0%);fill-opacity:1;" d="M 259.570312 268.816406 C 259.570312 173.457031 239.292969 122.847656 198.878906 117.121094 L 198.878906 85.421875 C 246.097656 87.953125 283.84375 107.265625 311.988281 143.625 C 338.535156 177.984375 351.871094 219.671875 351.871094 268.953125 C 351.871094 317.964844 338.800781 359.25 312.65625 392.945312 C 285.046875 428.375 247.964844 447.421875 201.28125 449.949219 L 201.28125 418.253906 C 233.160156 413.992188 251.832031 381.894531 257.300781 322.226562 C 258.769531 304.910156 259.570312 287.199219 259.570312 268.816406 Z M 259.570312 268.816406 "/>
</g>
<path style=" stroke:none;fill-rule:nonzero;fill:rgb(0%,0%,0%);fill-opacity:1;" d="M 178.070312 34.945312 C 178.070312 36.082031 178.015625 37.21875 177.902344 38.351562 C 177.789062 39.484375 177.625 40.609375 177.402344 41.726562 C 177.179688 42.84375 176.902344 43.945312 176.570312 45.035156 C 176.238281 46.125 175.855469 47.195312 175.421875 48.246094 C 174.984375 49.296875 174.496094 50.328125 173.960938 51.332031 C 173.421875 52.335938 172.835938 53.308594 172.203125 54.257812 C 171.570312 55.203125 170.890625 56.117188 170.167969 56.996094 C 169.445312 57.875 168.679688 58.71875 167.875 59.523438 C 167.066406 60.328125 166.222656 61.09375 165.34375 61.816406 C 164.460938 62.535156 163.546875 63.214844 162.597656 63.847656 C 161.648438 64.480469 160.671875 65.0625 159.667969 65.601562 C 158.660156 66.136719 157.632812 66.625 156.578125 67.058594 C 155.527344 67.496094 154.453125 67.878906 153.363281 68.207031 C 152.269531 68.539062 151.167969 68.816406 150.046875 69.039062 C 148.929688 69.257812 147.804688 69.425781 146.667969 69.539062 C 145.535156 69.648438 144.398438 69.707031 143.257812 69.707031 C 142.117188 69.707031 140.980469 69.648438 139.84375 69.539062 C 138.710938 69.425781 137.582031 69.257812 136.464844 69.039062 C 135.347656 68.816406 134.242188 68.539062 133.152344 68.207031 C 132.058594 67.878906 130.988281 67.496094 129.933594 67.058594 C 128.878906 66.625 127.851562 66.136719 126.84375 65.601562 C 125.839844 65.0625 124.863281 64.480469 123.914062 63.847656 C 122.96875 63.214844 122.050781 62.535156 121.171875 61.816406 C 120.289062 61.09375 119.445312 60.328125 118.640625 59.523438 C 117.832031 58.71875 117.070312 57.875 116.34375 56.996094 C 115.621094 56.117188 114.941406 55.203125 114.308594 54.257812 C 113.675781 53.308594 113.089844 52.335938 112.554688 51.332031 C 112.015625 50.328125 111.527344 49.296875 111.09375 48.246094 C 110.65625 47.195312 110.273438 46.125 109.941406 45.035156 C 109.609375 43.945312 109.335938 42.84375 109.113281 41.726562 C 108.890625 40.609375 108.722656 39.484375 108.609375 38.351562 C 108.5 37.21875 108.441406 36.082031 108.441406 34.945312 C 108.441406 33.804688 108.5 32.667969 108.609375 31.535156 C 108.722656 30.402344 108.890625 29.277344 109.113281 28.164062 C 109.335938 27.046875 109.609375 25.941406 109.941406 24.851562 C 110.273438 23.761719 110.65625 22.691406 111.09375 21.640625 C 111.527344 20.589844 112.015625 19.5625 112.554688 18.558594 C 113.089844 17.554688 113.675781 16.578125 114.308594 15.632812 C 114.941406 14.683594 115.621094 13.769531 116.34375 12.890625 C 117.070312 12.011719 117.832031 11.167969 118.640625 10.363281 C 119.445312 9.558594 120.289062 8.796875 121.171875 8.074219 C 122.050781 7.351562 122.96875 6.671875 123.914062 6.039062 C 124.863281 5.410156 125.839844 4.824219 126.84375 4.285156 C 127.851562 3.75 128.878906 3.265625 129.933594 2.828125 C 130.988281 2.394531 132.058594 2.007812 133.152344 1.679688 C 134.242188 1.347656 135.347656 1.074219 136.464844 0.851562 C 137.582031 0.628906 138.710938 0.460938 139.84375 0.351562 C 140.980469 0.238281 142.117188 0.183594 143.257812 0.183594 C 144.398438 0.183594 145.535156 0.238281 146.667969 0.351562 C 147.804688 0.460938 148.929688 0.628906 150.046875 0.851562 C 151.167969 1.074219 152.269531 1.347656 153.363281 1.679688 C 154.453125 2.007812 155.527344 2.394531 156.578125 2.828125 C 157.632812 3.265625 158.660156 3.75 159.667969 4.285156 C 160.671875 4.824219 161.648438 5.410156 162.597656 6.039062 C 163.546875 6.671875 164.460938 7.351562 165.34375 8.074219 C 166.222656 8.796875 167.066406 9.558594 167.875 10.363281 C 168.679688 11.167969 169.445312 12.011719 170.167969 12.890625 C 170.890625 13.769531 171.570312 14.683594 172.203125 15.632812 C 172.835938 16.578125 173.421875 17.554688 173.960938 18.558594 C 174.496094 19.5625 174.984375 20.589844 175.421875 21.640625 C 175.855469 22.691406 176.238281 23.761719 176.570312 24.851562 C 176.902344 25.941406 177.179688 27.046875 177.402344 28.164062 C 177.625 29.277344 177.789062 30.402344 177.902344 31.535156 C 178.015625 32.667969 178.070312 33.804688 178.070312 34.945312 Z M 178.070312 34.945312 "/>
<path style=" stroke:none;fill-rule:nonzero;fill:rgb(0%,0%,0%);fill-opacity:1;" d="M 267.039062 34.945312 C 267.039062 36.082031 266.984375 37.21875 266.871094 38.351562 C 266.757812 39.484375 266.59375 40.609375 266.371094 41.726562 C 266.148438 42.84375 265.871094 43.945312 265.539062 45.035156 C 265.207031 46.125 264.824219 47.195312 264.386719 48.246094 C 263.953125 49.296875 263.464844 50.328125 262.929688 51.332031 C 262.390625 52.335938 261.804688 53.308594 261.171875 54.257812 C 260.539062 55.203125 259.859375 56.117188 259.136719 56.996094 C 258.414062 57.875 257.648438 58.71875 256.84375 59.523438 C 256.035156 60.328125 255.191406 61.09375 254.308594 61.816406 C 253.429688 62.535156 252.515625 63.214844 251.566406 63.847656 C 250.617188 64.480469 249.640625 65.0625 248.636719 65.601562 C 247.628906 66.136719 246.601562 66.625 245.546875 67.058594 C 244.496094 67.496094 243.421875 67.878906 242.332031 68.207031 C 241.238281 68.539062 240.136719 68.816406 239.015625 69.039062 C 237.898438 69.257812 236.773438 69.425781 235.636719 69.539062 C 234.503906 69.648438 233.363281 69.707031 232.226562 69.707031 C 231.085938 69.707031 229.949219 69.648438 228.8125 69.539062 C 227.679688 69.425781 226.550781 69.257812 225.433594 69.039062 C 224.316406 68.816406 223.210938 68.539062 222.117188 68.207031 C 221.027344 67.878906 219.957031 67.496094 218.902344 67.058594 C 217.847656 66.625 216.820312 66.136719 215.8125 65.601562 C 214.808594 65.0625 213.832031 64.480469 212.882812 63.847656 C 211.933594 63.214844 211.019531 62.535156 210.140625 61.816406 C 209.257812 61.09375 208.414062 60.328125 207.609375 59.523438 C 206.800781 58.71875 206.035156 57.875 205.3125 56.996094 C 204.589844 56.117188 203.910156 55.203125 203.277344 54.257812 C 202.644531 53.308594 202.058594 52.335938 201.523438 51.332031 C 200.984375 50.328125 200.496094 49.296875 200.0625 48.246094 C 199.625 47.195312 199.242188 46.125 198.910156 45.035156 C 198.578125 43.945312 198.300781 42.84375 198.082031 41.726562 C 197.859375 40.609375 197.691406 39.484375 197.578125 38.351562 C 197.46875 37.21875 197.410156 36.082031 197.410156 34.945312 C 197.410156 33.804688 197.46875 32.667969 197.578125 31.535156 C 197.691406 30.402344 197.859375 29.277344 198.082031 28.164062 C 198.300781 27.046875 198.578125 25.941406 198.910156 24.851562 C 199.242188 23.761719 199.625 22.691406 200.0625 21.640625 C 200.496094 20.589844 200.984375 19.5625 201.523438 18.558594 C 202.058594 17.554688 202.644531 16.578125 203.277344 15.632812 C 203.910156 14.683594 204.589844 13.769531 205.3125 12.890625 C 206.035156 12.011719 206.800781 11.167969 207.609375 10.363281 C 208.414062 9.558594 209.257812 8.796875 210.140625 8.074219 C 211.019531 7.351562 211.933594 6.671875 212.882812 6.039062 C 213.832031 5.410156 214.808594 4.824219 215.8125 4.285156 C 216.820312 3.75 217.847656 3.265625 218.902344 2.828125 C 219.957031 2.394531 221.027344 2.007812 222.117188 1.679688 C 223.210938 1.347656 224.316406 1.074219 225.433594 0.851562 C 226.550781 0.628906 227.679688 0.460938 228.8125 0.351562 C 229.949219 0.238281 231.085938 0.183594 232.226562 0.183594 C 233.363281 0.183594 234.503906 0.238281 235.636719 0.351562 C 236.773438 0.460938 237.898438 0.628906 239.015625 0.851562 C 240.136719 1.074219 241.238281 1.347656 242.332031 1.679688 C 243.421875 2.007812 244.496094 2.394531 245.546875 2.828125 C 246.601562 3.265625 247.628906 3.75 248.636719 4.285156 C 249.640625 4.824219 250.617188 5.410156 251.566406 6.039062 C 252.515625 6.671875 253.429688 7.351562 254.308594 8.074219 C 255.191406 8.796875 256.035156 9.558594 256.84375 10.363281 C 257.648438 11.167969 258.414062 12.011719 259.136719 12.890625 C 259.859375 13.769531 260.539062 14.683594 261.171875 15.632812 C 261.804688 16.578125 262.390625 17.554688 262.929688 18.558594 C 263.464844 19.5625 263.953125 20.589844 264.386719 21.640625 C 264.824219 22.691406 265.207031 23.761719 265.539062 24.851562 C 265.871094 25.941406 266.148438 27.046875 266.371094 28.164062 C 266.59375 29.277344 266.757812 30.402344 266.871094 31.535156 C 266.984375 32.667969 267.039062 33.804688 267.039062 34.945312 Z M 267.039062 34.945312 "/>
</g>
</svg>
