<?xml version="1.0" encoding="utf-8"?>
<!-- Generator: Adobe Illustrator 24.2.3, SVG Export Plug-In . SVG Version: 6.00 Build 0)  -->
<svg version="1.1" id="Capa_1" xmlns="http://www.w3.org/2000/svg" xmlns:xlink="http://www.w3.org/1999/xlink" x="0px" y="0px"
	 viewBox="0 0 54.8 32.2" style="enable-background:new 0 0 54.8 32.2;" xml:space="preserve">
<style type="text/css">
	.st0{fill:#FFFFFF;}
</style>
<g>
	<g>
		<path d="M13.2,2.8C9.8,3.6,8.1,8.1,8.1,16.3c0,8.2,1.7,12.6,5.1,13.1v2.8h-0.5c-1.9,0-3.6-0.4-5.2-1.3c-1.6-0.8-2.9-2-4-3.4
			C1.2,24.5,0,20.7,0,16.2C0,11.8,1.2,8,3.6,4.9c1.6-2,3.5-3.4,5.8-4.2C10.6,0.3,11.9,0,13.2,0V2.8z M15.1,29.4
			c1.2-0.1,2-0.6,2.5-1.3c0.5-0.8,0.7-1.7,0.7-2.9c0-1.2,0-2.1-0.1-2.8c0-0.7-0.2-1.4-0.4-2c-0.5-1.3-1.6-2-3.3-2v-1.7H28
			c0,0.2-0.1,0.4-0.1,0.6c0,0.2-0.1,0.4-0.1,0.6c0,0.2-0.1,0.4-0.1,0.6c-0.8,0.3-1.3,0.8-1.6,1.3c-0.3,0.5-0.4,1.2-0.4,2v2.6
			c0,4.4-2.2,6.8-6.5,7.4c-1.3,0.2-2.6,0.3-4,0.3V29.4z M15.1,0c1.9,0.2,3.8,0.8,5.5,2c0.3,0.2,0.6,0.3,0.8,0.3
			c0.3,0,0.7-0.5,1.2-1.6h2v11.4h-1.6c-0.3-0.4-0.7-1.2-1.2-2.4c-0.4-1.2-0.8-2.2-1.1-2.9c-0.3-0.7-0.7-1.3-1.2-1.9
			c-1.1-1.3-2.6-2-4.3-2V0z"/>
		<path d="M41.7,31.8H31.3v-1.6c0.4-0.2,0.8-0.3,1.1-0.4c0.4-0.1,0.7-0.2,1-0.3c0.7-0.3,1-0.9,1-1.8V4.9c0-0.9-0.3-1.5-1-1.9
			c-0.3-0.1-0.6-0.3-1-0.3c-0.4-0.1-0.8-0.2-1.1-0.4V0.7H45v1.6c-0.4,0.2-0.9,0.3-1.2,0.4c-0.4,0.1-0.7,0.2-1,0.3
			c-0.7,0.3-1,0.9-1,1.9V31.8z M43.7,29.7c0.1,0,0.2,0,0.3,0s0.2,0,0.3,0c3.3,0,5.5-1.2,6.7-3.7c0.3-0.7,0.6-1.3,0.8-2
			c0.2-0.6,0.5-1.3,0.7-1.8c0.2-0.6,0.5-1,0.9-1.3h1.5v10.9H43.7V29.7z"/>
	</g>
</g>
</svg>
