<svg xmlns="http://www.w3.org/2000/svg" viewBox="0 0 310.78 264.87"><path d="M131,62.37a11.82,11.82,0,0,0,7.08-3,8.24,8.24,0,0,0,2.57-6.15,9.83,9.83,0,0,0-1.51-5.8,14.43,14.43,0,0,0-4-3.76,33.6,33.6,0,0,0-5.62-2.93L123.1,38.1c-2.2-.9-4.35-1.86-6.45-2.9A26.52,26.52,0,0,1,111,31.51a15.19,15.19,0,0,1-5.47-12A18.3,18.3,0,0,1,111,6.36Q117.17.09,126.86,0V5.94a10.4,10.4,0,0,0-6.06,2.41,6.46,6.46,0,0,0-2.29,5,7.81,7.81,0,0,0,1.5,4.92,14.54,14.54,0,0,0,4,3.46,34.6,34.6,0,0,0,5.62,2.74Q132.75,25.71,136,27T142.45,30a25.28,25.28,0,0,1,5.62,3.82,16.14,16.14,0,0,1,5.47,12.49A20.87,20.87,0,0,1,148,61.07q-6.16,6.74-17,7.24Zm-17.77,2.18q-1.73,0-2.88,2.79h-4.69V43.06h3.11c1.15.72,2.22,2.24,3.23,4.58s1.87,4.24,2.59,5.7a21.29,21.29,0,0,0,2.67,4.11,13.73,13.73,0,0,0,9.61,4.92v5.94a25.12,25.12,0,0,1-7.47-1.51c-2.11-.82-3.54-1.4-4.32-1.74A4.93,4.93,0,0,0,113.22,64.55ZM131,0a24.06,24.06,0,0,1,9.09,3.71,3,3,0,0,0,1.61.56,2,2,0,0,0,1.46-.86c.46-.57,1-1.23,1.53-2h4.18V24h-3.53a18,18,0,0,1-2.79-4.67q-1.48-3.27-2.43-5.2a22.88,22.88,0,0,0-2.21-3.59A11.42,11.42,0,0,0,131,5.94Z"/><path d="M183.29,1.44V67.38H161.34V64a14.56,14.56,0,0,1,2.44-.77,9,9,0,0,0,2.11-.72,3.93,3.93,0,0,0,2.09-3.9V10.35q0-2.92-2.09-3.95a9.5,9.5,0,0,0-2.11-.72,13.63,13.63,0,0,1-2.44-.76V1.44Zm18.52,8a12.52,12.52,0,0,0-4.07-2.53,15.18,15.18,0,0,0-5.68-1c-2.17,0-3.71.05-4.64.14V1.44h10.49a115.13,115.13,0,0,0,15.17-.7V23.2h-3.25a9,9,0,0,1-1.94-2.83c-.53-1.14-1.07-2.36-1.61-3.64s-1.15-2.57-1.83-3.85A13.46,13.46,0,0,0,201.81,9.4ZM187.42,28.12h15.45V40H187.42Zm0,34.62q2.33.19,5.89.19a17.42,17.42,0,0,0,6.43-1.12A13.65,13.65,0,0,0,204.38,59a13.49,13.49,0,0,0,2.81-3.88,43.28,43.28,0,0,0,1.76-4.2c.5-1.37,1-2.64,1.51-3.8a6.47,6.47,0,0,1,2.11-2.72h3.16v23H187.42Z"/><path d="M129.63,165.54h-22v-3.43a14.85,14.85,0,0,1,2.44-.77,8.86,8.86,0,0,0,2.11-.72,3.93,3.93,0,0,0,2.09-3.9V108.51q0-2.92-2.09-4a8.86,8.86,0,0,0-2.11-.72,14.78,14.78,0,0,1-2.44-.76V99.6h29v3.48a17.82,17.82,0,0,1-2.64.76,8.71,8.71,0,0,0-2.18.72c-1.42.68-2.14,2-2.14,4Zm4.18-4.5a3.83,3.83,0,0,0,.6.05h.65q10.49,0,14.16-7.89c.65-1.43,1.21-2.83,1.69-4.2s1-2.65,1.44-3.83a6.6,6.6,0,0,1,1.93-2.74h3.15v23.11H133.81Z"/><path d="M187.58,124l-10.44,29.89a10.92,10.92,0,0,0-.74,3.48,2.85,2.85,0,0,0,.79,2.16,5.46,5.46,0,0,0,2,1.2,21.48,21.48,0,0,0,2.53.77,10.23,10.23,0,0,1,2.5.93v3.15H162v-3.15a8.92,8.92,0,0,1,2-1,14.58,14.58,0,0,0,2.21-1,9.36,9.36,0,0,0,3.9-5.06l14.43-39.63Zm-.79-14.34-6.68-2c.19-1.3.31-2.47.37-3.5a17.11,17.11,0,0,1,.37-2.76q4.05-1.81,13.42-3a20,20,0,0,1,2.59-.19,10.22,10.22,0,0,1,1.67,2.64L220,154.91a13.93,13.93,0,0,0,3.23,5.27,7.52,7.52,0,0,0,4.61,1.93v3.43H198.21v-2.92a9.89,9.89,0,0,1,2.39-1.05c.82-.23,1.57-.45,2.25-.67,1.48-.43,2.23-1.21,2.23-2.32a10.83,10.83,0,0,0-.88-3.2Zm9.15,36.15H184.52l1.53-4.92h8Z"/><path d="M17.22,230.39q0,26,11.37,28.54v5.94q-12.9-.56-20.84-10.07Q0,245.43,0,231q0-14.89,8.12-24.69a28,28,0,0,1,9.1-7.19,25.25,25.25,0,0,1,11.37-2.6v5.94q-9.15,1.44-10.82,17A98,98,0,0,0,17.22,230.39Zm15.5-33.83a22.26,22.26,0,0,1,6.42,1.81c1.75.84,2.94,1.42,3.58,1.76a3.53,3.53,0,0,0,1.6.51,1.38,1.38,0,0,0,1.14-.74,17.13,17.13,0,0,0,1-1.9h4.41v23.94H47.38a28.21,28.21,0,0,1-2.69-5.4q-1.53-3.78-2.53-5.87a22,22,0,0,0-2.3-3.81,10.6,10.6,0,0,0-7.14-4.36Zm0,62.37a12.9,12.9,0,0,0,9.37-3.71q4.59-4.54,5.29-15L52.72,242q-1.3,15.5-11.09,20.74a20.32,20.32,0,0,1-8.91,2.14Z"/><path d="M80.65,222.36,70.21,252.25a10.92,10.92,0,0,0-.74,3.48,2.85,2.85,0,0,0,.79,2.16,5.46,5.46,0,0,0,2,1.2,21.48,21.48,0,0,0,2.53.77,10.46,10.46,0,0,1,2.51.93v3.15H55v-3.15a8.79,8.79,0,0,1,2-1,14.93,14.93,0,0,0,2.2-1,9.36,9.36,0,0,0,3.9-5.06l14.43-39.63ZM79.87,208l-6.69-2c.19-1.3.31-2.47.37-3.5a17.33,17.33,0,0,1,.38-2.77q4-1.8,13.41-3a20.11,20.11,0,0,1,2.6-.19,10.36,10.36,0,0,1,1.67,2.65l21.48,54.1a13.93,13.93,0,0,0,3.23,5.27,7.52,7.52,0,0,0,4.61,1.93v3.43H91.28V261a9.89,9.89,0,0,1,2.39-1c.82-.23,1.57-.45,2.25-.67,1.49-.43,2.23-1.21,2.23-2.32a10.83,10.83,0,0,0-.88-3.2ZM89,244.17H77.59l1.53-4.92h8Z"/><path d="M135.18,219.11V254q0,4.32,5.11,5.71a17.55,17.55,0,0,1,2.55.93v3.34H121.63V260.6a16.19,16.19,0,0,1,2.44-.93,9.87,9.87,0,0,0,2.34-1A5,5,0,0,0,129,254V209.88ZM131,205.47l-4-.74c-2.59-.44-4.25-.75-5-.93V198h21.58l34.8,51.51v14.43h-8Zm41.25,27.47v-26a4,4,0,0,0-2.27-3.95,10.53,10.53,0,0,0-2.32-.81,17,17,0,0,1-2.65-.86V198h20.61v3.29a15.93,15.93,0,0,1-2.58.86,10.45,10.45,0,0,0-2.29.81,4,4,0,0,0-2.28,3.95v35.22Z"/><path d="M187.81,197.3q6,.7,6.63.7h9.89v4.69q-7.2.69-9.28,7.23c-.38,1.24-.75,2.45-1.12,3.62q-1.44,4.65-3.25,6.13h-2.87Zm36.1,55.13c0,3.47.77,5.6,2.32,6.41a8,8,0,0,0,2.44.69,8.64,8.64,0,0,1,2.85,1v3.43H200.71v-3.43c1-.34,1.95-.63,2.87-.86a11.57,11.57,0,0,0,2.51-.91,4.44,4.44,0,0,0,2.37-4.22V198h15.45Zm14-54.43q.66,0,6.64-.7v22.37h-2.88a9.55,9.55,0,0,1-2.8-4.69c-.67-2.13-1.2-3.81-1.61-5a12.63,12.63,0,0,0-1.67-3.37c-1.57-2.25-4.1-3.55-7.56-3.89V198Z"/><path d="M278.48,264.87q-13.41-.6-21.48-10.67-7.62-9.37-7.61-23.25t7.47-23.49A27.31,27.31,0,0,1,278,196.56v5.94Q268.69,204,267.07,221q-.46,4.88-.47,10c0,3.42.17,6.73.49,9.93a39.76,39.76,0,0,0,1.79,8.66q2.92,8.34,9.6,9.37Zm15-33.92q0-26.83-11.37-28.45v-5.94a27.3,27.3,0,0,1,21.16,10.9q7.47,9.66,7.47,23.49t-7.33,23.25q-7.76,10-20.84,10.67v-5.94q9-1.21,10.49-18C293.38,237.71,293.52,234.38,293.52,231Z"/></svg>