<svg xmlns="http://www.w3.org/2000/svg" viewBox="0 0 267.07 137.82"><path d="M103.78,61.77H88V59.31a10.78,10.78,0,0,1,1.74-.54,7.62,7.62,0,0,0,1.55-.52,2.81,2.81,0,0,0,1.46-2.78V21a2.86,2.86,0,0,0-1.46-2.82,7.62,7.62,0,0,0-1.55-.52A10.78,10.78,0,0,1,88,17.13V14.64h15.76Zm3-26.57q9.28,0,9.28-8.75,0-6.27-4.74-8a8.26,8.26,0,0,0-2.78-.6h-1.4a2,2,0,0,0-.36,0V14.64h5.7q7.89,0,11.66,2.94a9.94,9.94,0,0,1,3.76,8.34,9,9,0,0,1-3.45,7.39,16.06,16.06,0,0,1-8.22,3.12v.13a17.26,17.26,0,0,1,10.08,3.12,10.6,10.6,0,0,1,4.28,8.92,11.27,11.27,0,0,1-4.44,9.29q-4.87,3.87-13.93,3.88h-5.44V58.12a8.06,8.06,0,0,0,1.72.13q9.89,0,9.89-9.65T106.73,39Z"/><path d="M158.2,62.43q-15,0-18.28-7a12.67,12.67,0,0,1-1.12-5.51v-29a2.71,2.71,0,0,0-1.66-2.79,8.42,8.42,0,0,0-1.54-.48A5.81,5.81,0,0,1,134,17V14.64h21.09V17a9.42,9.42,0,0,1-1.82.51,6.78,6.78,0,0,0-1.59.45,2.65,2.65,0,0,0-1.56,2.72V48.53q0,6.6,4.24,8.69a11,11,0,0,0,3.85,1Zm3-4.24q5-.34,6.93-2.92c1.2-1.6,1.79-4.2,1.79-7.83V21.21a3,3,0,0,0-1.72-3.09,7.19,7.19,0,0,0-1.68-.54A8.53,8.53,0,0,1,164.7,17V14.64h14.52V17a6.18,6.18,0,0,1-1.57.53,8.53,8.53,0,0,0-1.58.46,2.88,2.88,0,0,0-1.65,2.89V47q0,7-2.92,10.68-3.12,3.89-10.35,4.71Z"/><path d="M206.86,57.17a10.73,10.73,0,0,0,6.48-2.74,7.51,7.51,0,0,0,2.37-5.64,9.1,9.1,0,0,0-1.39-5.32A13.47,13.47,0,0,0,210.69,40a30.29,30.29,0,0,0-5.15-2.68l-5.91-2.43q-3-1.23-5.92-2.65a23.61,23.61,0,0,1-5.14-3.39,13.9,13.9,0,0,1-5-11,16.77,16.77,0,0,1,5-12Q194.18.08,203.07,0V5.44a9.51,9.51,0,0,0-5.55,2.22,5.93,5.93,0,0,0-2.11,4.59,7.09,7.09,0,0,0,1.39,4.51,13.33,13.33,0,0,0,3.63,3.17,32.49,32.49,0,0,0,5.15,2.51q2.89,1.13,5.89,2.34c2,.81,4,1.7,5.89,2.68A23.38,23.38,0,0,1,222.51,31a14.77,14.77,0,0,1,5,11.44A19.18,19.18,0,0,1,222.43,56q-5.67,6.17-15.57,6.64Zm-16.3,2c-1.05,0-1.92.85-2.63,2.55h-4.3V39.48h2.85q1.58,1,3,4.19t2.38,5.23a19,19,0,0,0,2.45,3.76,12.52,12.52,0,0,0,8.8,4.51v5.45a22.69,22.69,0,0,1-6.85-1.39c-1.93-.75-3.25-1.28-3.95-1.59A4.61,4.61,0,0,0,190.56,59.17ZM206.86,0a22.29,22.29,0,0,1,8.33,3.4,2.69,2.69,0,0,0,1.47.51A1.76,1.76,0,0,0,218,3.13c.43-.53.9-1.13,1.41-1.81h3.82V22H220a16.71,16.71,0,0,1-2.55-4.28q-1.37-3-2.23-4.76a21.88,21.88,0,0,0-2-3.3,10.63,10.63,0,0,0-6.34-4.17Z"/><path d="M7.59,98c-.37-.93-.71-1.74-1-2.45l-1.78-.4L3,94.74a24.26,24.26,0,0,1-3-.93V90H16l14.36,37.61L28,137.13H22.25Zm3.19,16.82v15c0,1.79.61,3,1.82,3.61a6.94,6.94,0,0,0,1.68.67,6.26,6.26,0,0,1,1.74.73v2.32H1.29v-2.32a4.8,4.8,0,0,1,1.58-.75,8.76,8.76,0,0,0,1.64-.65c1.22-.62,1.82-1.82,1.82-3.61V103ZM29.42,117l6.76-27H53.69v2.49A10.58,10.58,0,0,1,52,93a6.86,6.86,0,0,0-1.49.52A2.84,2.84,0,0,0,49,96.37v34.46a2.8,2.8,0,0,0,1.46,2.78,6.37,6.37,0,0,0,1.49.51,11.75,11.75,0,0,1,1.72.55v2.46H33.5v-2.46a11.24,11.24,0,0,1,1.74-.55,6.53,6.53,0,0,0,1.51-.51,2.8,2.8,0,0,0,1.49-2.78V97.13h-.17l-6.4,25.7Z"/><path d="M72.83,107.41l-7.46,21.36a7.52,7.52,0,0,0-.53,2.49,2,2,0,0,0,.56,1.54,4,4,0,0,0,1.41.86,16.12,16.12,0,0,0,1.81.55,7.66,7.66,0,0,1,1.79.66v2.26H54.52v-2.26a6.41,6.41,0,0,1,1.44-.7,9.36,9.36,0,0,0,1.58-.69,6.68,6.68,0,0,0,2.79-3.62l10.31-28.32Zm-.57-10.25L67.49,95.7c.13-.92.22-1.76.26-2.5a12.85,12.85,0,0,1,.27-2A36.91,36.91,0,0,1,77.6,89.1,17.15,17.15,0,0,1,79.46,89a7.56,7.56,0,0,1,1.19,1.89L96,129.53a10.11,10.11,0,0,0,2.3,3.77,5.43,5.43,0,0,0,3.3,1.37v2.46H80.42V135a7.18,7.18,0,0,1,1.71-.75l1.61-.48c1.06-.31,1.59-.86,1.59-1.66a7.7,7.7,0,0,0-.63-2.29ZM78.8,123H70.64l1.09-3.52h5.74Z"/><path d="M118.56,90v40.83a2.8,2.8,0,0,0,1.49,2.78,7.14,7.14,0,0,0,1.54.51,11.7,11.7,0,0,1,1.75.55v2.46H102.87v-2.46a11.7,11.7,0,0,1,1.75-.55,6.29,6.29,0,0,0,1.5-.51,2.8,2.8,0,0,0,1.5-2.78V96.37a2.84,2.84,0,0,0-1.5-2.82,6.77,6.77,0,0,0-1.5-.52,10.58,10.58,0,0,1-1.75-.54V90Zm27.1,42.88q-2.76,5-9.16,4.94a8.28,8.28,0,0,1-8.12-5.4,35.87,35.87,0,0,1-1.89-5.62q-.8-3.14-1.4-4.83a11.56,11.56,0,0,0-3.58-5.57v-4.88q3.94-.36,5.64-2.12c1.33-1.41,2-3.65,2-6.7q0-5.2-1.82-7.29t-5.81-2.19V90h3.92q7.75,0,11.87,3.55A10.6,10.6,0,0,1,141,102q0,8-8.26,10.57a22.9,22.9,0,0,1-6,1v.3a11.32,11.32,0,0,1,4.48,1.46,13.91,13.91,0,0,1,4.84,6.4c.4,1,.78,1.92,1.14,2.92l1.08,2.92a20.44,20.44,0,0,0,1.13,2.55c.88,1.66,1.79,2.49,2.72,2.49a1.52,1.52,0,0,0,1.24-.81,11.28,11.28,0,0,1,.91-1.2,1.15,1.15,0,0,1,.83-.38,3,3,0,0,1,.57,0Z"/><path d="M154.44,98a7.26,7.26,0,0,0-.51-3.46,2.57,2.57,0,0,0-1-1,6.62,6.62,0,0,0-1-.33L150.88,93a3.8,3.8,0,0,1-1.18-.49V90h20.4v2.49a3.91,3.91,0,0,1-1.16.49l-1.1.27a6,6,0,0,0-1,.33,1.86,1.86,0,0,0-.76.7,6.87,6.87,0,0,0-.7,3.71v31.18a7.27,7.27,0,0,0,.52,3.5,2.61,2.61,0,0,0,1,.94,6.25,6.25,0,0,0,1,.33,7.42,7.42,0,0,1,2.22.73v2.46H149.7v-2.46a12,12,0,0,1,1.74-.55,6.22,6.22,0,0,0,1.51-.51,2.79,2.79,0,0,0,1.49-2.78Z"/><path d="M184.13,105.09V130q0,3.08,3.64,4.08a10.73,10.73,0,0,1,1.83.66v2.39H174.44v-2.39a10.74,10.74,0,0,1,1.74-.66,7.06,7.06,0,0,0,1.68-.73,3.57,3.57,0,0,0,1.82-3.35V98.49Zm-3-9.75-2.82-.53c-1.86-.31-3-.53-3.55-.66V90h15.42L215,126.81v10.32H209.3ZM210.59,115V96.37A2.83,2.83,0,0,0,209,93.55a7.52,7.52,0,0,0-1.66-.58,11.26,11.26,0,0,1-1.89-.62V90h14.72v2.35a10.49,10.49,0,0,1-1.84.62,7.53,7.53,0,0,0-1.64.58A2.83,2.83,0,0,0,215,96.37v25.17Z"/><path d="M244,137.79a19.94,19.94,0,0,1-15.36-7.63q-5.43-6.69-5.44-16.61t5.34-16.78A19.54,19.54,0,0,1,243.66,89v4.25q-6.67,1.07-7.83,13.2-.33,3.48-.33,7.14a68.06,68.06,0,0,0,.35,7.1,28.21,28.21,0,0,0,1.27,6.19c1.4,4,3.68,6.21,6.87,6.69Zm10.74-24.24q0-19.17-8.12-20.33V89a19.5,19.5,0,0,1,15.12,7.8,26.57,26.57,0,0,1,5.34,16.78q0,9.84-5.24,16.61a19.25,19.25,0,0,1-14.89,7.63v-4.25q6.41-.85,7.49-12.86Q254.73,117.23,254.73,113.55Z"/></svg>