<svg xmlns="http://www.w3.org/2000/svg" viewBox="0 0 267.07 136.5"><path d="M90.34,56.87a8.47,8.47,0,0,0,5.06-2.14,5.85,5.85,0,0,0,1.84-4.4,7.06,7.06,0,0,0-1.08-4.14,10.58,10.58,0,0,0-2.83-2.69,24,24,0,0,0-4-2.09L84.7,39.52c-1.57-.64-3.1-1.33-4.61-2.07a18.57,18.57,0,0,1-4-2.64,10.85,10.85,0,0,1-3.91-8.59,13.07,13.07,0,0,1,3.91-9.38,15.35,15.35,0,0,1,11.31-4.55v4.25a7.48,7.48,0,0,0-4.33,1.72,4.64,4.64,0,0,0-1.64,3.59,5.56,5.56,0,0,0,1.08,3.51,10.43,10.43,0,0,0,2.83,2.47,25.09,25.09,0,0,0,4,2q2.25.87,4.59,1.82t4.59,2.09a18.27,18.27,0,0,1,4,2.74,11.55,11.55,0,0,1,3.91,8.92,15,15,0,0,1-4,10.58q-4.41,4.8-12.14,5.17Zm-12.7,1.55c-.82,0-1.5.67-2.06,2H72.23V43.07h2.23a7.13,7.13,0,0,1,2.3,3.27q1.08,2.5,1.86,4.08a15.15,15.15,0,0,0,1.9,2.93,9.84,9.84,0,0,0,6.87,3.52v4.24A17.64,17.64,0,0,1,82.05,60c-1.5-.58-2.53-1-3.08-1.24A3.69,3.69,0,0,0,77.64,58.42Zm12.7-46.13A17.36,17.36,0,0,1,96.84,15a2.11,2.11,0,0,0,1.15.39,1.37,1.37,0,0,0,1-.61c.33-.41.7-.88,1.09-1.41h3V29.41h-2.52a13.07,13.07,0,0,1-2-3.34c-.71-1.56-1.29-2.79-1.74-3.71a16.69,16.69,0,0,0-1.58-2.57,8.17,8.17,0,0,0-4.94-3.25Z"/><path d="M134.85,61.11q-15,0-18.28-7a12.62,12.62,0,0,1-1.12-5.5v-29a2.73,2.73,0,0,0-1.66-2.79,8.42,8.42,0,0,0-1.54-.48,5.81,5.81,0,0,1-1.61-.61V13.32h21.09v2.36a9.42,9.42,0,0,1-1.82.51,7,7,0,0,0-1.6.45,2.65,2.65,0,0,0-1.56,2.72V47.22q0,6.6,4.25,8.68a11,11,0,0,0,3.85,1Zm3-4.24c3.32-.22,5.62-1.2,6.93-2.92s1.79-4.2,1.79-7.83V19.89a3,3,0,0,0-1.72-3.09,7.19,7.19,0,0,0-1.68-.54,8,8,0,0,1-1.77-.58V13.32h14.52v2.36a6.18,6.18,0,0,1-1.57.53,8.31,8.31,0,0,0-1.58.46,2.89,2.89,0,0,0-1.66,2.89V45.72q0,7-2.91,10.68Q145,60.29,137.8,61.11Z"/><path d="M184.53,60.45h-20.2V57.3a13,13,0,0,1,2.23-.7,9.59,9.59,0,0,0,2-.66,3.62,3.62,0,0,0,1.87-3.57V8.17a3.67,3.67,0,0,0-1.87-3.62,9.59,9.59,0,0,0-2-.66,13,13,0,0,1-2.23-.7V0h20.2Zm3.79-34.08q11.91,0,11.91-11.23,0-8-6.09-10.29a10.7,10.7,0,0,0-3.57-.77h-1.78a2.26,2.26,0,0,0-.47,0V0h7.31q10.13,0,15,3.76t4.82,10.7A11.57,11.57,0,0,1,211,24q-3.92,3.15-10.55,4v.17q8,.25,12.93,4a13.58,13.58,0,0,1,5.49,11.44,14.42,14.42,0,0,1-5.7,11.91q-6.25,5-17.87,5h-7V55.77a10.72,10.72,0,0,0,2.21.17q12.67,0,12.68-12.38T188.32,31.18Z"/><path d="M225.79,55a6.1,6.1,0,0,1,1.6-4.28,5.88,5.88,0,0,1,8.35,0,6.49,6.49,0,0,1,0,8.56,5.88,5.88,0,0,1-8.35,0A6.08,6.08,0,0,1,225.79,55Z"/><path d="M7.59,96.67c-.37-.92-.71-1.74-1-2.45l-1.78-.4L3,93.42a26.47,26.47,0,0,1-3-.92V88.68H16l14.36,37.61L28,135.81H22.25Zm3.19,16.82v15c0,1.79.61,3,1.82,3.61a6.94,6.94,0,0,0,1.68.67,6.26,6.26,0,0,1,1.74.73v2.32H1.29v-2.32a5,5,0,0,1,1.58-.75,8.76,8.76,0,0,0,1.64-.65c1.22-.62,1.82-1.82,1.82-3.61V101.65Zm18.64,2.19,6.76-27H53.69v2.49a11.75,11.75,0,0,1-1.72.55,6.37,6.37,0,0,0-1.49.51A2.84,2.84,0,0,0,49,95.05v34.46a2.79,2.79,0,0,0,1.46,2.78,6.86,6.86,0,0,0,1.49.52,10.58,10.58,0,0,1,1.72.54v2.46H33.5v-2.46a10.2,10.2,0,0,1,1.74-.54,7,7,0,0,0,1.51-.52,2.8,2.8,0,0,0,1.49-2.78V95.81h-.17l-6.4,25.7Z"/><path d="M72.83,106.09l-7.46,21.36a7.63,7.63,0,0,0-.54,2.49,2,2,0,0,0,.57,1.54,4,4,0,0,0,1.41.86,16.12,16.12,0,0,0,1.81.55,8.13,8.13,0,0,1,1.79.66v2.26H54.52v-2.26a6.38,6.38,0,0,1,1.44-.69,10.33,10.33,0,0,0,1.58-.7,6.65,6.65,0,0,0,2.79-3.61l10.31-28.33Zm-.57-10.25-4.77-1.45c.13-.93.22-1.77.26-2.51a12.85,12.85,0,0,1,.27-2,36.58,36.58,0,0,1,9.58-2.12,15.14,15.14,0,0,1,1.86-.14,7.56,7.56,0,0,1,1.19,1.89L96,128.21a10,10,0,0,0,2.3,3.77,5.43,5.43,0,0,0,3.3,1.37v2.46H80.42v-2.09a7.18,7.18,0,0,1,1.71-.75c.59-.16,1.12-.32,1.61-.48,1.06-.31,1.59-.86,1.59-1.66a7.58,7.58,0,0,0-.63-2.28Zm6.54,25.84H70.64l1.09-3.52h5.74Z"/><path d="M118.56,88.68v40.83a2.8,2.8,0,0,0,1.49,2.78,7.74,7.74,0,0,0,1.54.52,10.58,10.58,0,0,1,1.75.54v2.46H102.87v-2.46a10.58,10.58,0,0,1,1.75-.54,6.77,6.77,0,0,0,1.5-.52,2.79,2.79,0,0,0,1.5-2.78V95.05a2.84,2.84,0,0,0-1.5-2.82,6.29,6.29,0,0,0-1.5-.51,11.7,11.7,0,0,1-1.75-.55V88.68Zm27.1,42.88q-2.76,5-9.16,4.94a8.28,8.28,0,0,1-8.12-5.4,35.87,35.87,0,0,1-1.89-5.62q-.8-3.14-1.4-4.83a11.56,11.56,0,0,0-3.58-5.57v-4.87q3.94-.37,5.64-2.13c1.33-1.41,2-3.65,2-6.7q0-5.2-1.82-7.29t-5.81-2.19V88.68h3.92q7.75,0,11.87,3.55a10.6,10.6,0,0,1,3.71,8.46q0,7.95-8.26,10.58a23.33,23.33,0,0,1-6,1v.3a11.32,11.32,0,0,1,4.48,1.46,13.91,13.91,0,0,1,4.84,6.4c.4,1,.78,1.93,1.14,2.92l1.08,2.92a20.44,20.44,0,0,0,1.13,2.55c.88,1.66,1.79,2.49,2.72,2.49a1.52,1.52,0,0,0,1.24-.81,11.28,11.28,0,0,1,.91-1.2,1.15,1.15,0,0,1,.83-.38,2.11,2.11,0,0,1,.57,0Z"/><path d="M154.44,96.67a7.29,7.29,0,0,0-.51-3.46,2.65,2.65,0,0,0-1-.95,6.62,6.62,0,0,0-1-.33c-.35-.09-.72-.18-1.11-.26a4.1,4.1,0,0,1-1.18-.5V88.68h20.4v2.49a4.24,4.24,0,0,1-1.16.5l-1.1.26a6,6,0,0,0-1,.33,1.93,1.93,0,0,0-.76.7,6.87,6.87,0,0,0-.7,3.71v31.18a7.27,7.27,0,0,0,.52,3.5,2.61,2.61,0,0,0,1,.94,5.37,5.37,0,0,0,1,.33,7.42,7.42,0,0,1,2.22.73v2.46H149.7v-2.46a10.78,10.78,0,0,1,1.74-.54,6.68,6.68,0,0,0,1.51-.52,2.78,2.78,0,0,0,1.49-2.78Z"/><path d="M184.13,103.77v24.91q0,3.07,3.64,4.08a10.73,10.73,0,0,1,1.83.66v2.39H174.44v-2.39a10.74,10.74,0,0,1,1.74-.66,7.06,7.06,0,0,0,1.68-.73,3.56,3.56,0,0,0,1.82-3.35V97.17Zm-3-9.75-2.82-.53c-1.86-.31-3-.53-3.55-.66V88.68h15.42L215,125.49v10.32H209.3Zm29.48,19.63V95.05A2.83,2.83,0,0,0,209,92.23a7.52,7.52,0,0,0-1.66-.58,12.18,12.18,0,0,1-1.89-.61V88.68h14.72V91a11.33,11.33,0,0,1-1.84.61,7.53,7.53,0,0,0-1.64.58A2.83,2.83,0,0,0,215,95.05v25.17Z"/><path d="M244,136.47a19.94,19.94,0,0,1-15.36-7.63q-5.43-6.69-5.44-16.61t5.34-16.78a19.54,19.54,0,0,1,15.13-7.8V91.9Q237,93,235.83,105.1q-.33,3.48-.33,7.14a68.06,68.06,0,0,0,.35,7.1,28.21,28.21,0,0,0,1.27,6.19c1.4,4,3.68,6.21,6.87,6.7Zm10.74-24.24q0-19.17-8.12-20.33V87.65a19.53,19.53,0,0,1,15.12,7.8,26.59,26.59,0,0,1,5.34,16.78q0,9.85-5.24,16.61a19.25,19.25,0,0,1-14.89,7.63v-4.24q6.41-.87,7.49-12.87Q254.73,115.91,254.73,112.23Z"/></svg>