<svg xmlns="http://www.w3.org/2000/svg" viewBox="0 0 267.07 136.5"><path d="M98.08,56.87a8.44,8.44,0,0,0,5-2.14,5.87,5.87,0,0,0,1.84-4.4,7.06,7.06,0,0,0-1.07-4.14,10.63,10.63,0,0,0-2.84-2.69,23.89,23.89,0,0,0-4-2.09l-4.61-1.89q-2.35-1-4.61-2.07a18.57,18.57,0,0,1-4-2.64,10.86,10.86,0,0,1-3.92-8.59,13.08,13.08,0,0,1,3.92-9.38,15.31,15.31,0,0,1,11.3-4.55v4.25a7.42,7.42,0,0,0-4.32,1.72,4.61,4.61,0,0,0-1.64,3.59,5.56,5.56,0,0,0,1.07,3.51,10.48,10.48,0,0,0,2.84,2.47,25.38,25.38,0,0,0,4,2c1.5.58,3,1.19,4.59,1.82s3.09,1.33,4.6,2.09a18.2,18.2,0,0,1,4,2.74,11.52,11.52,0,0,1,3.91,8.92,14.91,14.91,0,0,1-4,10.58q-4.41,4.8-12.13,5.17ZM85.37,58.43c-.81,0-1.5.66-2.05,2H80V43.07h2.22a7.07,7.07,0,0,1,2.31,3.27c.71,1.67,1.33,3,1.85,4.08a15.2,15.2,0,0,0,1.91,2.93,9.81,9.81,0,0,0,6.86,3.52v4.24A17.64,17.64,0,0,1,89.79,60c-1.51-.58-2.54-1-3.09-1.24A3.54,3.54,0,0,0,85.37,58.43ZM98.08,12.29a17.49,17.49,0,0,1,6.5,2.66,2.1,2.1,0,0,0,1.14.4,1.4,1.4,0,0,0,1-.62c.33-.41.69-.88,1.09-1.41h3V29.41h-2.52a13.37,13.37,0,0,1-2-3.34c-.7-1.55-1.28-2.79-1.74-3.71A15.48,15.48,0,0,0,103,19.79a8.2,8.2,0,0,0-4.94-3.25Z"/><path d="M142.58,61.11q-15,0-18.27-7a12.62,12.62,0,0,1-1.13-5.5v-29a2.72,2.72,0,0,0-1.66-2.79,8.18,8.18,0,0,0-1.54-.48,5.94,5.94,0,0,1-1.61-.61V13.32h21.09v2.36a9,9,0,0,1-1.82.51,6.78,6.78,0,0,0-1.59.45,2.65,2.65,0,0,0-1.56,2.72V47.22q0,6.6,4.25,8.68a11,11,0,0,0,3.84,1Zm2.95-4.24c3.32-.22,5.63-1.2,6.93-2.92s1.8-4.2,1.8-7.83V19.89a3,3,0,0,0-1.73-3.09,7.26,7.26,0,0,0-1.67-.54,8.23,8.23,0,0,1-1.78-.58V13.32h14.53v2.36a6.25,6.25,0,0,1-1.58.53,8.21,8.21,0,0,0-1.57.46,2.87,2.87,0,0,0-1.66,2.89V45.72q0,7-2.92,10.68-3.12,3.89-10.35,4.71Z"/><path d="M186.64,60.45H166.43V57.3a13.06,13.06,0,0,1,2.24-.7,9.3,9.3,0,0,0,2-.66,3.61,3.61,0,0,0,1.88-3.57V8.17a3.66,3.66,0,0,0-1.88-3.62,9.3,9.3,0,0,0-2-.66,13.06,13.06,0,0,1-2.24-.7V0h20.21Zm3.79-34.08q11.91,0,11.91-11.23,0-8-6.09-10.29a10.7,10.7,0,0,0-3.57-.77h-1.79a2.16,2.16,0,0,0-.46,0V0h7.31q10.13,0,14.95,3.77t4.83,10.69A11.57,11.57,0,0,1,213.1,24q-3.91,3.15-10.55,4v.17q7.95.25,12.93,4A13.58,13.58,0,0,1,221,43.56a14.44,14.44,0,0,1-5.7,11.91q-6.26,5-17.87,5h-7V55.77a10.65,10.65,0,0,0,2.21.17q12.68,0,12.67-12.38T190.43,31.18Z"/><path d="M7.59,96.67c-.37-.92-.71-1.74-1-2.45l-1.78-.4L3,93.42a26.47,26.47,0,0,1-3-.92V88.68H16l14.36,37.61L28,135.81H22.25Zm3.19,16.82v15c0,1.79.61,3,1.82,3.61a6.94,6.94,0,0,0,1.68.67,6.57,6.57,0,0,1,1.74.73v2.32H1.29v-2.32a5.24,5.24,0,0,1,1.58-.75,8.12,8.12,0,0,0,1.64-.65c1.22-.61,1.82-1.82,1.82-3.61V101.65Zm18.64,2.19,6.76-27H53.69v2.49a10.65,10.65,0,0,1-1.72.55,6.21,6.21,0,0,0-1.49.51A2.84,2.84,0,0,0,49,95.05v34.46a2.79,2.79,0,0,0,1.46,2.78,6.21,6.21,0,0,0,1.49.52,10.58,10.58,0,0,1,1.72.54v2.46H33.5v-2.46a10.2,10.2,0,0,1,1.74-.54,6.54,6.54,0,0,0,1.51-.52,2.8,2.8,0,0,0,1.49-2.78V95.81h-.17l-6.4,25.7Z"/><path d="M72.83,106.09l-7.46,21.36a7.62,7.62,0,0,0-.53,2.49,2,2,0,0,0,.56,1.54,3.82,3.82,0,0,0,1.41.86,14.28,14.28,0,0,0,1.81.55,8.13,8.13,0,0,1,1.79.66v2.26H54.52v-2.26a6.38,6.38,0,0,1,1.44-.69,10.33,10.33,0,0,0,1.58-.7,6.65,6.65,0,0,0,2.79-3.61l10.31-28.33Zm-.57-10.24-4.77-1.46c.13-.93.22-1.77.26-2.51a12.85,12.85,0,0,1,.27-2,36.58,36.58,0,0,1,9.58-2.12,15.14,15.14,0,0,1,1.86-.14,7.56,7.56,0,0,1,1.19,1.89L96,128.21a10,10,0,0,0,2.3,3.77,5.37,5.37,0,0,0,3.3,1.37v2.46H80.42v-2.09a7.18,7.18,0,0,1,1.71-.75c.59-.16,1.12-.32,1.61-.48,1.06-.31,1.59-.86,1.59-1.66a7.58,7.58,0,0,0-.63-2.28Zm6.54,25.83H70.64l1.09-3.52h5.74Z"/><path d="M118.56,88.68v40.83a2.8,2.8,0,0,0,1.49,2.78,7.15,7.15,0,0,0,1.54.52,10.58,10.58,0,0,1,1.75.54v2.46H102.87v-2.46a10.58,10.58,0,0,1,1.75-.54,6.3,6.3,0,0,0,1.5-.52,2.79,2.79,0,0,0,1.5-2.78V95.05a2.84,2.84,0,0,0-1.5-2.82,6.29,6.29,0,0,0-1.5-.51,10.65,10.65,0,0,1-1.75-.55V88.68Zm27.1,42.88q-2.76,5-9.16,4.94a8.28,8.28,0,0,1-8.12-5.4,35.87,35.87,0,0,1-1.89-5.62q-.8-3.14-1.4-4.83a11.61,11.61,0,0,0-3.58-5.57v-4.87c2.63-.25,4.51-.95,5.64-2.13q2-2.11,2-6.7,0-5.2-1.82-7.29t-5.81-2.19V88.68h3.92q7.75,0,11.87,3.55a10.6,10.6,0,0,1,3.71,8.46q0,7.95-8.26,10.58a23.32,23.32,0,0,1-6,1v.29a11.49,11.49,0,0,1,4.48,1.46,13.91,13.91,0,0,1,4.84,6.4c.4,1,.78,1.93,1.14,2.92l1.08,2.92a20.44,20.44,0,0,0,1.13,2.55c.88,1.66,1.79,2.49,2.72,2.49a1.52,1.52,0,0,0,1.24-.81,10,10,0,0,1,.91-1.19,1.12,1.12,0,0,1,.83-.39,2.68,2.68,0,0,1,.57,0Z"/><path d="M154.44,96.67a7.29,7.29,0,0,0-.51-3.46,2.65,2.65,0,0,0-1-.95,6.62,6.62,0,0,0-1-.33l-1.11-.26a4.1,4.1,0,0,1-1.18-.5V88.68h20.4v2.49a4.24,4.24,0,0,1-1.16.5l-1.1.26a6,6,0,0,0-1,.33,1.93,1.93,0,0,0-.76.7,6.87,6.87,0,0,0-.7,3.71v31.18a7.27,7.27,0,0,0,.52,3.5,2.53,2.53,0,0,0,1,.94,4.7,4.7,0,0,0,1,.33,7.72,7.72,0,0,1,2.22.73v2.46H149.7v-2.46a10.78,10.78,0,0,1,1.74-.54,6.23,6.23,0,0,0,1.51-.52,2.78,2.78,0,0,0,1.49-2.78Z"/><path d="M184.13,103.77v24.91q0,3.07,3.64,4.08a11.65,11.65,0,0,1,1.83.66v2.39H174.44v-2.39a11.76,11.76,0,0,1,1.74-.66,7.06,7.06,0,0,0,1.68-.73,3.56,3.56,0,0,0,1.82-3.35V97.17Zm-3-9.75-2.82-.53c-1.86-.31-3-.53-3.55-.66V88.68h15.42L215,125.49v10.32H209.3Zm29.48,19.63V95.05A2.83,2.83,0,0,0,209,92.23a7.52,7.52,0,0,0-1.66-.58,12.18,12.18,0,0,1-1.89-.61V88.68h14.72V91a11.33,11.33,0,0,1-1.84.61,7.53,7.53,0,0,0-1.64.58A2.83,2.83,0,0,0,215,95.05v25.17Z"/><path d="M244,136.47a19.94,19.94,0,0,1-15.36-7.63q-5.43-6.69-5.44-16.61t5.34-16.78a19.54,19.54,0,0,1,15.13-7.8V91.9Q237,93,235.83,105.1q-.33,3.48-.33,7.15a68,68,0,0,0,.35,7.09,28.21,28.21,0,0,0,1.27,6.19c1.4,4,3.68,6.21,6.87,6.7Zm10.74-24.24q0-19.17-8.12-20.33V87.65a19.53,19.53,0,0,1,15.12,7.8,26.59,26.59,0,0,1,5.34,16.78q0,9.85-5.24,16.61a19.25,19.25,0,0,1-14.89,7.63v-4.24q6.41-.87,7.49-12.87Q254.73,115.91,254.73,112.23Z"/></svg>