<?xml version="1.0" encoding="UTF-8"?>
<svg xmlns="http://www.w3.org/2000/svg" xmlns:xlink="http://www.w3.org/1999/xlink" width="224.87999pt" height="225pt" viewBox="0 0 224.87999 225" version="1.2">
<defs>
<clipPath id="clip1">
  <path d="M 2.011719 0.8125 L 223.144531 0.8125 L 223.144531 224.195312 L 2.011719 224.195312 Z M 2.011719 0.8125 "/>
</clipPath>
</defs>
<g id="surface1">
<g clip-path="url(#clip1)" clip-rule="nonzero">
<path style=" stroke:none;fill-rule:nonzero;fill:rgb(81.959534%,81.959534%,81.959534%);fill-opacity:1;" d="M 135.820312 104.597656 C 135.554688 104.597656 135.300781 104.652344 135.042969 104.679688 C 134.617188 103.339844 134.074219 102.0625 133.429688 100.832031 C 133.636719 100.671875 133.859375 100.523438 134.054688 100.332031 L 150.695312 83.699219 C 155.125 89.761719 158.183594 96.875 159.394531 104.597656 Z M 150.695312 140.550781 L 134.054688 123.921875 C 133.859375 123.730469 133.640625 123.582031 133.429688 123.417969 C 134.074219 122.1875 134.617188 120.910156 135.042969 119.570312 C 135.300781 119.597656 135.554688 119.648438 135.820312 119.648438 L 159.394531 119.648438 C 158.183594 127.371094 155.125 134.492188 150.695312 140.550781 Z M 119.113281 159.882812 L 119.113281 136.339844 C 119.113281 136.066406 119.070312 135.820312 119.039062 135.5625 C 120.375 135.132812 121.660156 134.585938 122.894531 133.949219 C 123.058594 134.152344 123.203125 134.375 123.394531 134.566406 L 140.042969 151.195312 C 133.980469 155.617188 126.847656 158.667969 119.113281 159.882812 Z M 119.113281 87.917969 L 119.113281 64.371094 C 126.847656 65.582031 133.976562 68.636719 140.042969 73.054688 L 123.394531 89.683594 C 123.203125 89.878906 123.058594 90.09375 122.890625 90.304688 C 121.65625 89.667969 120.375 89.121094 119.039062 88.695312 C 119.070312 88.4375 119.113281 88.179688 119.113281 87.917969 Z M 100.28125 90.304688 C 100.113281 90.097656 99.96875 89.878906 99.773438 89.683594 L 83.121094 73.054688 C 89.191406 68.632812 96.320312 65.582031 104.054688 64.371094 L 104.054688 87.917969 C 104.054688 88.179688 104.109375 88.4375 104.136719 88.695312 C 102.792969 89.121094 101.515625 89.667969 100.28125 90.304688 Z M 104.054688 136.339844 L 104.054688 159.882812 C 96.320312 158.675781 89.191406 155.621094 83.121094 151.199219 L 99.773438 134.566406 C 99.96875 134.375 100.109375 134.152344 100.28125 133.949219 C 101.515625 134.585938 102.792969 135.132812 104.136719 135.558594 C 104.109375 135.816406 104.054688 136.066406 104.054688 136.339844 Z M 72.464844 140.554688 C 68.039062 134.492188 64.980469 127.375 63.769531 119.648438 L 87.347656 119.648438 C 87.613281 119.648438 87.867188 119.597656 88.128906 119.570312 C 88.554688 120.910156 89.097656 122.1875 89.746094 123.417969 C 89.53125 123.582031 89.304688 123.730469 89.113281 123.921875 Z M 72.464844 83.699219 L 89.121094 100.328125 C 89.308594 100.519531 89.53125 100.664062 89.746094 100.832031 C 89.101562 102.0625 88.554688 103.339844 88.128906 104.679688 C 87.867188 104.652344 87.613281 104.597656 87.347656 104.597656 L 63.769531 104.597656 C 64.980469 96.875 68.042969 89.757812 72.464844 83.699219 Z M 209.15625 101.910156 C 216.847656 101.910156 223.097656 95.679688 223.097656 87.992188 C 223.097656 80.300781 216.847656 74.070312 209.15625 74.070312 C 203.25 74.070312 198.210938 77.738281 196.183594 82.917969 L 178.929688 86.929688 C 174.4375 74.988281 166.851562 64.546875 157.148438 56.582031 L 167.109375 40.617188 C 173.402344 39.28125 178.136719 33.691406 178.136719 26.996094 C 178.136719 19.308594 171.898438 13.074219 164.199219 13.074219 C 156.503906 13.074219 150.265625 19.308594 150.265625 26.996094 C 150.265625 28.515625 150.507812 29.980469 150.960938 31.351562 L 141.363281 46.753906 C 132.277344 42.613281 122.199219 40.289062 111.585938 40.289062 C 109.1875 40.289062 106.8125 40.414062 104.476562 40.644531 L 100.300781 22.703125 C 101.863281 20.449219 102.792969 17.71875 102.792969 14.761719 C 102.792969 7.074219 96.546875 0.839844 88.851562 0.839844 C 81.15625 0.839844 74.90625 7.074219 74.90625 14.761719 C 74.90625 20.042969 77.855469 24.636719 82.191406 26.996094 L 86.355469 44.859375 C 74.269531 49.398438 63.722656 57.09375 55.722656 66.945312 L 43.777344 59.523438 C 43.449219 52.125 37.359375 46.222656 29.871094 46.222656 C 22.171875 46.222656 15.925781 52.453125 15.925781 60.144531 C 15.925781 67.835938 22.171875 74.070312 29.871094 74.070312 C 30.507812 74.070312 31.128906 74.011719 31.742188 73.925781 L 45.964844 82.765625 C 41.921875 91.738281 39.65625 101.667969 39.65625 112.125 C 39.65625 114.519531 39.78125 116.890625 40.007812 119.226562 L 23.398438 123.089844 C 21.246094 121.714844 18.679688 120.910156 15.925781 120.910156 C 8.234375 120.910156 1.992188 127.140625 1.992188 134.832031 C 1.992188 142.519531 8.234375 148.753906 15.925781 148.753906 C 21.40625 148.753906 26.132812 145.589844 28.414062 141.003906 L 44.238281 137.324219 C 48.730469 149.269531 56.3125 159.707031 66.019531 167.667969 L 56.066406 183.636719 C 49.765625 184.976562 45.03125 190.5625 45.03125 197.257812 C 45.03125 204.949219 51.269531 211.175781 58.964844 211.175781 C 66.671875 211.175781 72.902344 204.949219 72.902344 197.257812 C 72.902344 195.734375 72.65625 194.277344 72.203125 192.90625 L 81.808594 177.496094 C 90.890625 181.636719 100.960938 183.964844 111.585938 183.964844 C 113.984375 183.964844 116.347656 183.839844 118.695312 183.613281 L 123.007812 202.128906 C 121.363281 204.417969 120.378906 207.214844 120.378906 210.25 C 120.378906 217.9375 126.617188 224.171875 134.320312 224.171875 C 142.011719 224.171875 148.25 217.9375 148.25 210.25 C 148.25 205.050781 145.402344 200.53125 141.179688 198.136719 L 136.808594 179.390625 C 148.636719 174.953125 158.988281 167.496094 166.925781 157.957031 L 183.164062 168.050781 C 184.449219 174.394531 190.074219 179.175781 196.816406 179.175781 C 204.515625 179.175781 210.757812 172.9375 210.757812 165.25 C 210.757812 157.5625 204.515625 151.328125 196.816406 151.328125 C 195.324219 151.328125 193.894531 151.570312 192.546875 152 L 176.859375 142.242188 C 181.117188 133.078125 183.511719 122.878906 183.511719 112.125 C 183.511719 109.730469 183.382812 107.363281 183.15625 105.023438 L 202.917969 100.433594 C 204.800781 101.371094 206.914062 101.910156 209.15625 101.910156 "/>
</g>
</g>
</svg>
